<svg version="1.2" xmlns="http://www.w3.org/2000/svg" viewBox="0 0 807 599" width="807" height="599">
	<style>
		.s0 { fill: #eb6e34 } 
		.s1 { fill: #ffffff } 
		.s2 { fill: #c65d2d } 
		.s3 { fill: #000000 } 
		.s4 { fill: #121212 } 
		.s5 { fill: #2f3573 } 
		.s6 { opacity: .1;fill: #e6e6e6 } 
		.s7 { fill: #232856 } 
		.s8 { opacity: .25;fill: #000000 } 
		.s9 { fill: #080808 } 
		.s10 { fill: #2f3573;stroke: #232856;stroke-miterlimit:10;stroke-width: 2 } 
		.s11 { fill: #f2f2f2 } 
	</style>
	<g>
		<path class="s0" d="m801.3 418.6c-2.9-15.5-17.7-102.5-32-144.6-9.4-27.7-13.1-53-17-64.9-12-35.7-33-65.7-33-65.7 0 0-9.5-13.1-10.1-16.3-0.6-3.2-4.7-8.6-4.7-8.6 0 0-17.4-5.7-62.3-5.7-44.9 0-53.7 5-53.7 5q-0.63 0.72-1.32 1.38-0.68 0.67-1.43 1.27-0.74 0.6-1.53 1.14-0.79 0.54-1.62 1.01c-3.5 1.8-11.7 1.7-11.7 1.7h-33.4q-0.12-0.02-0.25-0.01-0.12 0.01-0.24 0.05-0.12 0.04-0.22 0.1-0.1 0.07-0.19 0.16-0.12 0.23-0.22 0.48-0.1 0.24-0.18 0.49-0.08 0.25-0.13 0.51-0.05 0.26-0.07 0.52h-266.1q-0.04-0.26-0.09-0.52-0.06-0.25-0.14-0.5-0.07-0.25-0.17-0.5-0.09-0.24-0.2-0.48-0.09-0.09-0.19-0.15-0.11-0.07-0.22-0.11-0.12-0.04-0.24-0.05-0.13-0.01-0.25 0.01h-33.4c0 0-8.2 0.2-11.7-1.7q-0.84-0.46-1.64-0.99-0.79-0.53-1.53-1.13-0.75-0.61-1.43-1.28-0.68-0.67-1.3-1.4c-0.41-0.49-8.8-5-53.7-5-44.9 0-62.3 5.7-62.3 5.7 0 0-4.1 5.3-4.7 8.6-0.6 3.3-10.1 16.3-10.1 16.3 0 0-21 30-33 65.7-4 11.9-7.7 37.2-17 64.9-14.3 42.1-29.1 129.1-32 144.6-4.3 23.2-4.6 90.2-4.6 90.2 0 0 4.5 53.4 36.2 74.9 31.7 21.5 56.7 14 56.7 14 0 0 33.1-8.2 57.8-41.9 24.7-33.7 56.6-129.2 56.6-129.2q0.6-0.77 1.26-1.49 0.66-0.72 1.38-1.39 0.71-0.66 1.48-1.27 0.77-0.61 1.58-1.15 0.71-0.49 1.46-0.9 0.75-0.42 1.55-0.74 0.79-0.33 1.62-0.57 0.82-0.24 1.67-0.39l183.7 0.1 183.7-0.1q0.85 0.15 1.67 0.39 0.83 0.24 1.62 0.57 0.8 0.32 1.55 0.74 0.75 0.41 1.46 0.9 0.81 0.54 1.58 1.15 0.77 0.61 1.48 1.27 0.72 0.67 1.38 1.39 0.66 0.72 1.26 1.49c0.4 0.51 31.9 95.4 56.6 129.2 24.7 33.8 57.8 41.9 57.8 41.9 0 0 25 7.5 56.7-14 31.7-21.5 36.2-74.9 36.2-74.9 0 0-0.3-67-4.7-90.2z"/>
		<g style="opacity: .06">
			<path class="s1" d="m36.6 276c9.4-27.7 13.1-53 17-64.9 12-35.7 33-65.7 33-65.7 0 0 9.5-13.1 10.1-16.3 0.6-3.2 4.7-8.6 4.7-8.6 0 0 17.4-5.7 62.3-5.7 44.9 0 53.7 5 53.7 5q0.63 0.72 1.32 1.38 0.68 0.67 1.43 1.27 0.74 0.6 1.53 1.14 0.79 0.54 1.62 1.01c3.5 1.8 11.7 1.7 11.7 1.7h33.4q0.12-0.02 0.25-0.01 0.12 0.01 0.24 0.05 0.12 0.04 0.22 0.1 0.1 0.07 0.19 0.16 0.12 0.23 0.22 0.48 0.1 0.24 0.18 0.49 0.08 0.25 0.13 0.51 0.05 0.26 0.07 0.52h266.2q0.04-0.26 0.09-0.52 0.06-0.25 0.14-0.5 0.07-0.25 0.17-0.5 0.09-0.24 0.2-0.48 0.09-0.09 0.19-0.15 0.11-0.07 0.22-0.11 0.12-0.04 0.24-0.05 0.13-0.01 0.25 0.01h33.4c0 0 8.2 0.2 11.7-1.7q0.84-0.46 1.64-0.99 0.79-0.53 1.53-1.13 0.75-0.61 1.43-1.28 0.68-0.67 1.3-1.4c0.41-0.49 8.8-5 53.7-5 44.9 0 62.3 5.7 62.3 5.7 0 0 4.1 5.3 4.7 8.6 0.6 3.3 10.1 16.3 10.1 16.3 0 0 21 30 33 65.7 4 11.9 7.7 37.2 17 64.9 14.3 42.1 29.1 129.1 32 144.6 3.9 20.9 4.6 77.3 4.7 88.3v-0.1c0 0-0.3-66.9-4.7-90.1-2.9-15.5-17.7-102.5-32-144.6-9.4-27.7-13.1-53-17-64.9-12-35.7-33-65.7-33-65.7 0 0-9.5-13.1-10.1-16.3-0.6-3.2-4.7-8.6-4.7-8.6 0 0-17.4-5.7-62.3-5.7-44.9 0-53.7 5-53.7 5q-0.63 0.72-1.32 1.38-0.68 0.67-1.43 1.27-0.74 0.6-1.53 1.14-0.79 0.54-1.62 1.01c-3.5 1.8-11.7 1.7-11.7 1.7h-33.4q-0.12-0.02-0.25-0.01-0.12 0.01-0.24 0.05-0.12 0.04-0.22 0.1-0.1 0.07-0.19 0.16-0.12 0.23-0.22 0.48-0.1 0.24-0.18 0.49-0.08 0.25-0.13 0.51-0.05 0.26-0.07 0.52h-266.2q-0.04-0.26-0.09-0.52-0.06-0.25-0.14-0.5-0.07-0.25-0.17-0.5-0.09-0.24-0.2-0.48-0.09-0.09-0.19-0.15-0.11-0.07-0.22-0.11-0.12-0.04-0.24-0.05-0.13-0.01-0.25 0.01h-33.4c0 0-8.2 0.2-11.7-1.7q-0.84-0.46-1.64-0.99-0.79-0.53-1.53-1.13-0.75-0.61-1.43-1.28-0.68-0.67-1.3-1.4c-0.41-0.49-8.8-5-53.7-5-44.9 0-62.3 5.7-62.3 5.7 0 0-4.1 5.3-4.7 8.6-0.6 3.3-10.1 16.3-10.1 16.3 0 0-21 30-33 65.7-4 11.9-7.7 37.2-17 64.9-14.3 42.1-29.1 129.1-32 144.6-4.3 23.1-4.6 90.1-4.6 90.1v0.1c0.1-10.9 0.7-67.4 4.7-88.3 2.9-15.4 17.6-102.5 31.9-144.6z"/>
		</g>
		<path class="s2" d="m351.2 360c0-20.29-8.06-39.75-22.41-54.09-14.34-14.35-33.8-22.41-54.09-22.41-20.29 0-39.75 8.06-54.09 22.41-14.35 14.34-22.41 33.8-22.41 54.09q-0.01 0.25 0 0.5 0 0.25 0.01 0.5 0.02 0.25 0.04 0.5 0.02 0.25 0.05 0.5c0 0.7-0.1 1.3-0.1 2 0 20.29 8.06 39.75 22.41 54.09 14.34 14.35 33.8 22.41 54.09 22.41 20.29 0 39.75-8.06 54.09-22.41 14.35-14.34 22.41-33.8 22.41-54.09q0.01-0.25 0-0.5 0-0.25-0.01-0.5-0.02-0.25-0.04-0.5-0.02-0.25-0.05-0.5c0-0.7 0.1-1.4 0.1-2z"/>
		<path fill-rule="evenodd" class="s0" d="m274.7 429c-40.37 0-73-32.63-73-73 0-40.37 32.63-73 73-73 40.37 0 73 32.63 73 73 0 40.37-32.63 73-73 73z"/>
		<path fill-rule="evenodd" class="s3" d="m274.7 407.5c-28.48 0-51.5-23.02-51.5-51.5 0-28.48 23.02-51.5 51.5-51.5 28.48 0 51.5 23.02 51.5 51.5 0 28.48-23.02 51.5-51.5 51.5z"/>
		<path class="s2" d="m607.8 360c0-20.29-8.06-39.75-22.41-54.09-14.34-14.35-33.8-22.41-54.09-22.41-20.29 0-39.75 8.06-54.09 22.41-14.35 14.34-22.41 33.8-22.41 54.09q-0.01 0.25 0 0.5 0 0.25 0.01 0.5 0.02 0.25 0.04 0.5 0.02 0.25 0.05 0.5c0 0.7-0.1 1.3-0.1 2 0 20.29 8.06 39.75 22.41 54.09 14.34 14.35 33.8 22.41 54.09 22.41 20.29 0 39.75-8.06 54.09-22.41 14.35-14.34 22.41-33.8 22.41-54.09q0.01-0.25 0-0.5 0-0.25-0.01-0.5-0.02-0.25-0.04-0.5-0.02-0.25-0.05-0.5 0.03-0.25 0.05-0.5 0.02-0.25 0.04-0.5 0.01-0.25 0.01-0.5 0.01-0.25 0-0.5z"/>
		<path fill-rule="evenodd" class="s0" d="m531.3 429c-40.37 0-73-32.63-73-73 0-40.37 32.63-73 73-73 40.37 0 73 32.63 73 73 0 40.37-32.63 73-73 73z"/>
		<path fill-rule="evenodd" class="s3" d="m531.3 407.5c-28.48 0-51.5-23.02-51.5-51.5 0-28.48 23.02-51.5 51.5-51.5 28.48 0 51.5 23.02 51.5 51.5 0 28.48-23.02 51.5-51.5 51.5z"/>
		<path class="s4" d="m534.8 128q-0.18-1.17-0.74-2.2-0.58-1.04-1.47-1.81-0.9-0.77-2-1.18-1.11-0.41-2.29-0.41h-250.6q-1.18-0.01-2.3 0.39-1.11 0.41-2.01 1.18-0.9 0.77-1.46 1.81-0.57 1.05-0.73 2.22-0.03 0.26-0.05 0.52-0.02 0.27-0.04 0.53-0.01 0.26-0.01 0.52-0.01 0.27 0 0.53v127.4c0 2.11 0.41 4.21 1.22 6.16 0.81 1.96 2 3.73 3.49 5.23 1.5 1.49 3.27 2.68 5.23 3.49 1.95 0.81 4.05 1.22 6.16 1.22h231.6c2.11 0 4.21-0.41 6.16-1.22 1.96-0.81 3.73-2 5.23-3.49 1.49-1.5 2.68-3.27 3.49-5.23 0.81-1.95 1.22-4.05 1.22-6.16v-127.4q0.02-0.26 0.03-0.53 0.01-0.26-0.01-0.52-0.01-0.27-0.04-0.53-0.03-0.26-0.08-0.52z"/>
		<path fill-rule="evenodd" class="s2" d="m652.3 339.1c-52.15 0-94.3-42.15-94.3-94.3 0-52.15 42.15-94.3 94.3-94.3 52.15 0 94.3 42.15 94.3 94.3 0 52.15-42.15 94.3-94.3 94.3z"/>
		<g>
			<path fill-rule="evenodd" class="s2" d="m153.7 339.1c-52.15 0-94.3-42.15-94.3-94.3 0-52.15 42.15-94.3 94.3-94.3 52.15 0 94.3 42.15 94.3 94.3 0 52.15-42.15 94.3-94.3 94.3z"/>
			<path class="s5" d="m230.4 254.1l9.5-8.9q0.18-0.16 0.28-0.39 0.09-0.22 0.1-0.46-0.01-0.24-0.1-0.46-0.1-0.23-0.28-0.39l-9.5-8.9q-0.24-0.23-0.57-0.3-0.33-0.06-0.64 0.07-0.31 0.13-0.5 0.41-0.19 0.28-0.19 0.62v17.8q-0.01 0.34 0.17 0.63 0.18 0.29 0.49 0.44 0.31 0.14 0.64 0.1 0.34-0.05 0.6-0.27z"/>
			<path class="s5" d="m145 169.8h17.8q0.34 0 0.62-0.19 0.28-0.19 0.41-0.5 0.13-0.31 0.07-0.64-0.07-0.33-0.3-0.57l-8.9-9.5q-0.16-0.18-0.39-0.28-0.22-0.09-0.46-0.1-0.24 0.01-0.46 0.1-0.23 0.1-0.39 0.28l-8.9 9.5q-0.21 0.26-0.25 0.59-0.03 0.34 0.11 0.64 0.14 0.3 0.42 0.48 0.29 0.18 0.62 0.19z"/>
			<path class="s5" d="m77.5 234.6l-9.5 8.9q-0.18 0.16-0.28 0.39-0.09 0.22-0.1 0.46 0.01 0.24 0.1 0.46 0.1 0.23 0.28 0.39l9.5 8.9q0.24 0.23 0.57 0.3 0.33 0.06 0.64-0.07 0.31-0.13 0.5-0.41 0.19-0.28 0.19-0.62v-17.8q0.02-0.35-0.15-0.65-0.18-0.3-0.49-0.45-0.32-0.14-0.66-0.09-0.34 0.05-0.6 0.29z"/>
			<path class="s5" d="m162.8 318.8h-17.8q-0.34 0-0.62 0.19-0.28 0.19-0.41 0.5-0.13 0.31-0.07 0.64 0.07 0.33 0.3 0.57l8.9 9.5q0.16 0.18 0.39 0.28 0.22 0.09 0.46 0.1 0.24-0.01 0.46-0.1 0.23-0.1 0.39-0.28l8.9-9.5q0.21-0.26 0.25-0.59 0.03-0.34-0.11-0.64-0.14-0.3-0.42-0.48-0.29-0.18-0.62-0.19z"/>
		</g>
	</g>
	<g>
		<g>
			<path class="s6" d="m105.2 544.5c-40.5-2.8-75.8-20.3-87.3-30.5-11.5-10.2-17.5-31.6-17.5-31.6-0.4 15-0.4 26.3-0.4 26.3 0 0 4.5 53.4 36.2 74.9 31.7 21.5 56.7 14 56.7 14 0 0 33.1-8.2 57.8-41.9q1.97-2.84 3.84-5.76 1.87-2.91 3.64-5.89 1.76-2.97 3.42-6.01 1.65-3.04 3.2-6.14c-0.1 0-19.2 15.3-59.6 12.6z"/>
			<path class="s5" d="m105.2 544.5c-40.5-2.8-75.8-20.3-87.3-30.5-11.5-10.2-17.5-31.6-17.5-31.6-0.4 15-0.4 26.3-0.4 26.3 0 0 4.5 53.4 36.2 74.9 31.7 21.5 56.7 14 56.7 14 0 0 33.1-8.2 57.8-41.9q1.97-2.84 3.84-5.76 1.87-2.91 3.64-5.89 1.76-2.97 3.42-6.01 1.65-3.04 3.2-6.14c-0.1 0-19.2 15.3-59.6 12.6z"/>
			<path class="s7" d="m90 592.5c-12.5 1.8-31.3-2-45.1-7.7-13.6-5.7-24-16.4-24-16.4q1.57 2.21 3.32 4.28 1.75 2.07 3.68 3.98 1.92 1.91 4 3.65 2.08 1.74 4.3 3.29c31.7 21.5 56.7 14 56.7 14 0 0 11.7-2.9 26.3-12.3q-3.56 1.22-7.17 2.29-3.61 1.06-7.27 1.96-3.65 0.9-7.35 1.64-3.69 0.74-7.41 1.31z"/>
		</g>
		<g>
			<path class="s6" d="m700.8 544.5c40.5-2.8 75.8-20.3 87.3-30.5 11.5-10.2 17.5-31.5 17.5-31.5 0.4 15 0.4 26.3 0.4 26.3 0 0-4.5 53.4-36.2 74.9-31.7 21.5-56.7 14-56.7 14 0 0-33.1-8.2-57.8-41.9q-1.97-2.84-3.84-5.76-1.87-2.91-3.64-5.89-1.76-2.97-3.42-6.01-1.65-3.04-3.2-6.14c0.1-0.1 19.2 15.2 59.6 12.5z"/>
			<path class="s5" d="m700.8 544.5c40.5-2.8 75.8-20.3 87.3-30.5 11.5-10.2 17.5-31.5 17.5-31.5 0.4 15 0.4 26.3 0.4 26.3 0 0-4.5 53.4-36.2 74.9-31.7 21.5-56.7 14-56.7 14 0 0-33.1-8.2-57.8-41.9q-1.97-2.84-3.84-5.76-1.87-2.91-3.64-5.89-1.76-2.97-3.42-6.01-1.65-3.04-3.2-6.14c0.1-0.1 19.2 15.2 59.6 12.5z"/>
			<path class="s7" d="m716 592.5c12.5 1.8 31.3-2 45.1-7.7 13.6-5.7 24-16.4 24-16.4q-1.57 2.21-3.32 4.28-1.75 2.07-3.68 3.98-1.92 1.91-4 3.65-2.08 1.74-4.3 3.29c-31.7 21.5-56.7 14-56.7 14 0 0-11.7-2.9-26.3-12.3q3.56 1.22 7.17 2.29 3.61 1.06 7.27 1.96 3.65 0.9 7.35 1.64 3.69 0.74 7.41 1.31z"/>
		</g>
		<g>
			<path class="s7" d="m240.5 141.8c-1.86 0.01-3.71 0.38-5.43 1.09-1.72 0.72-3.28 1.77-4.6 3.08-1.31 1.32-2.36 2.88-3.08 4.6-0.71 1.72-1.08 3.57-1.09 5.43v18.3c0 3.77 1.5 7.38 4.16 10.04 2.66 2.66 6.27 4.16 10.04 4.16 3.77 0 7.38-1.5 10.04-4.16 2.66-2.66 4.16-6.27 4.16-10.04v-18.3c0-1.87-0.37-3.71-1.08-5.44-0.71-1.72-1.76-3.28-3.08-4.6-1.32-1.32-2.88-2.37-4.6-3.08-1.73-0.71-3.57-1.08-5.44-1.08zm0 1.7c1.64 0 3.27 0.32 4.78 0.95 1.52 0.63 2.9 1.55 4.06 2.71 1.16 1.16 2.08 2.54 2.71 4.06 0.63 1.51 0.95 3.14 0.95 4.78v18.3c0 3.32-1.32 6.49-3.66 8.84-2.35 2.34-5.52 3.66-8.84 3.66-3.32 0-6.49-1.32-8.84-3.66-2.34-2.35-3.66-5.52-3.66-8.84v-18.3c0-1.64 0.32-3.27 0.95-4.78 0.63-1.52 1.55-2.9 2.71-4.06 1.16-1.16 2.54-2.08 4.06-2.71 1.51-0.63 3.14-0.95 4.78-0.95z"/>
			<path class="s5" d="m240.5 143.5c-1.64 0-3.27 0.32-4.78 0.95-1.52 0.63-2.9 1.55-4.06 2.71-1.16 1.16-2.08 2.54-2.71 4.06-0.63 1.51-0.95 3.14-0.95 4.78v18.3c0 3.32 1.32 6.49 3.66 8.84 2.35 2.34 5.52 3.66 8.84 3.66 3.32 0 6.49-1.32 8.84-3.66 2.34-2.35 3.66-5.52 3.66-8.84v-18.3c0-1.64-0.32-3.27-0.95-4.78-0.63-1.52-1.55-2.9-2.71-4.06-1.16-1.16-2.54-2.08-4.06-2.71-1.51-0.63-3.14-0.95-4.78-0.95z"/>
		</g>
		<g>
			<path class="s7" d="m565.5 141.8c-1.86 0.01-3.71 0.38-5.43 1.09-1.72 0.72-3.28 1.77-4.6 3.08-1.31 1.32-2.36 2.88-3.08 4.6-0.71 1.72-1.08 3.57-1.09 5.43v18.3c0 3.77 1.5 7.38 4.16 10.04 2.66 2.66 6.27 4.16 10.04 4.16 3.77 0 7.38-1.5 10.04-4.16 2.66-2.66 4.16-6.27 4.16-10.04v-18.3c0-1.87-0.37-3.71-1.08-5.44-0.71-1.72-1.76-3.28-3.08-4.6-1.32-1.32-2.88-2.37-4.6-3.08-1.73-0.71-3.57-1.08-5.44-1.08zm0 1.7c1.64 0 3.27 0.32 4.78 0.95 1.52 0.63 2.9 1.55 4.06 2.71 1.16 1.16 2.08 2.54 2.71 4.06 0.63 1.51 0.95 3.14 0.95 4.78v18.3c0 1.64-0.32 3.27-0.95 4.78-0.63 1.52-1.55 2.9-2.71 4.06-1.16 1.16-2.54 2.08-4.06 2.71-1.51 0.63-3.14 0.95-4.78 0.95-1.64 0-3.27-0.32-4.78-0.95-1.52-0.63-2.9-1.55-4.06-2.71-1.16-1.16-2.08-2.54-2.71-4.06-0.63-1.51-0.95-3.14-0.95-4.78v-18.3c0-1.64 0.32-3.27 0.95-4.78 0.63-1.52 1.55-2.9 2.71-4.06 1.16-1.16 2.54-2.08 4.06-2.71 1.51-0.63 3.14-0.95 4.78-0.95z"/>
			<path class="s5" d="m565.5 143.5c-1.64 0-3.27 0.32-4.78 0.95-1.52 0.63-2.9 1.55-4.06 2.71-1.16 1.16-2.08 2.54-2.71 4.06-0.63 1.51-0.95 3.14-0.95 4.78v18.3c0 3.32 1.32 6.49 3.66 8.84 2.35 2.34 5.52 3.66 8.84 3.66 3.32 0 6.49-1.32 8.84-3.66 2.34-2.35 3.66-5.52 3.66-8.84v-18.3c0-1.64-0.32-3.27-0.95-4.78-0.63-1.52-1.55-2.9-2.71-4.06-1.16-1.16-2.54-2.08-4.06-2.71-1.51-0.63-3.14-0.95-4.78-0.95z"/>
		</g>
		<g>
			<g>
				<path class="s5" d="m141.2 247.2c1.4-2 1.2-2.9 1.2-2.9 0 0 0.2-0.9-1.2-2.9-1.4-2-15-13.6-15.7-14-0.7-0.4-28.5-2.2-31.4 1.3-2.9 3.5-2.6 15.6-2.6 15.6 0 0-0.3 12.1 2.6 15.6 2.9 3.5 30.7 1.7 31.4 1.3 0.7-0.4 14.3-12 15.7-14z"/>
				<path class="s8" d="m141.2 247.2c1.4-2 1.2-2.9 1.2-2.9 0 0 0.2-0.9-1.2-2.9-0.9-1.3-6.9-6.6-11.2-10.3q-0.83 1.51-1.46 3.12-0.63 1.6-1.06 3.27-0.43 1.67-0.65 3.38-0.22 1.71-0.23 3.43-0.01 1.73 0.2 3.44 0.21 1.71 0.64 3.38 0.43 1.67 1.08 3.27 0.64 1.6 1.48 3.11c4.3-3.7 10.3-9 11.2-10.3z"/>
			</g>
			<g>
				<path class="s5" d="m151 231.6c2 1.4 2.9 1.2 2.9 1.2 0 0 0.9 0.2 2.9-1.2 2-1.4 13.6-15 14-15.7 0.4-0.7 2.2-28.5-1.3-31.4-3.5-2.9-15.6-2.6-15.6-2.6 0 0-12.1-0.3-15.6 2.6-3.5 2.9-1.7 30.7-1.3 31.4 0.4 0.7 12 14.3 14 15.7z"/>
				<path class="s8" d="m151 231.6c2 1.4 2.9 1.2 2.9 1.2 0 0 0.9 0.2 2.9-1.2 1.3-0.9 6.6-6.9 10.3-11.2q-1.51-0.83-3.12-1.46-1.6-0.63-3.27-1.06-1.67-0.43-3.38-0.65-1.71-0.22-3.43-0.23-1.73-0.01-3.44 0.2-1.71 0.21-3.38 0.64-1.67 0.43-3.27 1.08-1.6 0.64-3.11 1.48c3.8 4.3 9 10.3 10.3 11.2z"/>
			</g>
			<g>
				<path class="s5" d="m213.7 228.8c-2.9-3.5-30.7-1.7-31.4-1.3-0.7 0.4-14.3 12-15.7 14-1.4 2-1.2 2.9-1.2 2.9 0 0-0.2 0.9 1.2 2.9 1.4 2 15 13.6 15.7 14 0.7 0.4 28.5 2.2 31.4-1.3 2.9-3.5 2.6-15.6 2.6-15.6 0 0 0.3-12.1-2.6-15.6z"/>
				<path class="s8" d="m177.9 231.2c-4.3 3.7-10.3 9-11.2 10.3-1.4 2-1.2 2.9-1.2 2.9 0 0-0.2 0.9 1.2 2.9 0.9 1.3 6.9 6.6 11.2 10.3q1.67-3.03 2.54-6.38 0.86-3.36 0.86-6.82 0-3.46-0.86-6.82-0.87-3.35-2.54-6.38z"/>
			</g>
			<g>
				<path class="s5" d="m156.8 257.1c-2-1.4-2.9-1.2-2.9-1.2 0 0-0.9-0.2-2.9 1.2-2 1.4-13.6 15-14 15.7-0.4 0.7-2.2 28.5 1.3 31.4 3.5 2.9 15.6 2.6 15.6 2.6 0 0 12.1 0.3 15.6-2.6 3.5-2.9 1.7-30.7 1.3-31.4-0.4-0.7-12-14.3-14-15.7z"/>
				<path class="s8" d="m156.8 257.1c-2-1.4-2.9-1.2-2.9-1.2 0 0-0.9-0.2-2.9 1.2-1.3 0.9-6.6 6.9-10.3 11.2q1.51 0.83 3.12 1.46 1.6 0.63 3.27 1.06 1.67 0.43 3.38 0.65 1.71 0.22 3.43 0.23 1.73 0.01 3.44-0.2 1.71-0.21 3.38-0.64 1.67-0.43 3.27-1.08 1.6-0.64 3.11-1.48c-3.7-4.3-9-10.3-10.3-11.2z"/>
			</g>
		</g>
	</g>
	<g>
		<g>
			<path fill-rule="evenodd" class="s3" d="m403 320.5c-2.27 0-4.1-1.83-4.1-4.1 0-2.27 1.83-4.1 4.1-4.1 2.27 0 4.1 1.83 4.1 4.1 0 2.27-1.83 4.1-4.1 4.1z"/>
			<path fill-rule="evenodd" class="s3" d="m403 299.6c-2.27 0-4.1-1.83-4.1-4.1 0-2.27 1.83-4.1 4.1-4.1 2.27 0 4.1 1.83 4.1 4.1 0 2.27-1.83 4.1-4.1 4.1z"/>
			<path fill-rule="evenodd" class="s3" d="m396.1 309.8c-2.27 0-4.1-1.83-4.1-4.1 0-2.27 1.83-4.1 4.1-4.1 2.27 0 4.1 1.83 4.1 4.1 0 2.27-1.83 4.1-4.1 4.1z"/>
			<path fill-rule="evenodd" class="s3" d="m381.4 309.8c-2.27 0-4.1-1.83-4.1-4.1 0-2.27 1.83-4.1 4.1-4.1 2.27 0 4.1 1.83 4.1 4.1 0 2.27-1.83 4.1-4.1 4.1z"/>
			<path fill-rule="evenodd" class="s3" d="m388.7 320.5c-2.27 0-4.1-1.83-4.1-4.1 0-2.27 1.83-4.1 4.1-4.1 2.27 0 4.1 1.83 4.1 4.1 0 2.27-1.83 4.1-4.1 4.1z"/>
			<path fill-rule="evenodd" class="s3" d="m388.7 299.6c-2.27 0-4.1-1.83-4.1-4.1 0-2.27 1.83-4.1 4.1-4.1 2.27 0 4.1 1.83 4.1 4.1 0 2.27-1.83 4.1-4.1 4.1z"/>
			<path fill-rule="evenodd" class="s3" d="m374.4 299.6c-2.27 0-4.1-1.83-4.1-4.1 0-2.27 1.83-4.1 4.1-4.1 2.27 0 4.1 1.83 4.1 4.1 0 2.27-1.83 4.1-4.1 4.1z"/>
		</g>
		<g>
			<path fill-rule="evenodd" class="s3" d="m409.9 309.8c-2.27 0-4.1-1.83-4.1-4.1 0-2.27 1.83-4.1 4.1-4.1 2.27 0 4.1 1.83 4.1 4.1 0 2.27-1.83 4.1-4.1 4.1z"/>
			<path fill-rule="evenodd" class="s3" d="m424.6 309.8c-2.27 0-4.1-1.83-4.1-4.1 0-2.27 1.83-4.1 4.1-4.1 2.27 0 4.1 1.83 4.1 4.1 0 2.27-1.83 4.1-4.1 4.1z"/>
			<path fill-rule="evenodd" class="s3" d="m421.27 317.07c-0.37 2.24-2.47 3.76-4.71 3.39-2.24-0.36-3.75-2.46-3.39-4.7 0.36-2.24 2.47-3.75 4.71-3.39 2.23 0.36 3.75 2.46 3.39 4.7z"/>
			<path fill-rule="evenodd" class="s3" d="m421.27 296.17c-0.37 2.24-2.47 3.76-4.71 3.39-2.24-0.36-3.75-2.46-3.39-4.7 0.36-2.24 2.47-3.75 4.71-3.39 2.23 0.36 3.75 2.47 3.39 4.7z"/>
			<path fill-rule="evenodd" class="s3" d="m431.6 299.6c-2.27 0-4.1-1.83-4.1-4.1 0-2.27 1.83-4.1 4.1-4.1 2.27 0 4.1 1.83 4.1 4.1 0 2.27-1.83 4.1-4.1 4.1z"/>
		</g>
	</g>
	<g style="opacity: .12">
		<path class="s1" d="m403 319.5q-0.75-0.01-1.45-0.28-0.7-0.27-1.27-0.76-0.56-0.5-0.92-1.16-0.35-0.66-0.46-1.4c0 0.2-0.1 0.3-0.1 0.5 0 1.09 0.43 2.13 1.2 2.9 0.77 0.77 1.81 1.2 2.9 1.2 1.09 0 2.13-0.43 2.9-1.2 0.77-0.77 1.2-1.81 1.2-2.9q0.01-0.06 0-0.13 0-0.06-0.01-0.13-0.02-0.06-0.04-0.12-0.02-0.06-0.05-0.12-0.05 0.74-0.37 1.41-0.32 0.67-0.86 1.17-0.55 0.5-1.24 0.77-0.69 0.26-1.43 0.25z"/>
		<path class="s1" d="m403 299.6q0.82 0.01 1.58-0.3 0.75-0.31 1.33-0.89 0.58-0.58 0.89-1.33 0.31-0.76 0.3-1.58 0.01-0.06 0-0.13 0-0.06-0.01-0.13-0.02-0.06-0.04-0.12-0.02-0.06-0.05-0.12-0.1 0.75-0.45 1.41-0.35 0.67-0.92 1.17-0.57 0.49-1.27 0.76-0.71 0.26-1.46 0.26-0.75-0.01-1.45-0.28-0.7-0.27-1.27-0.76-0.56-0.5-0.92-1.16-0.35-0.66-0.46-1.4c0 0.2-0.1 0.3-0.1 0.5q0.06 0.82 0.42 1.56 0.35 0.75 0.94 1.32 0.6 0.56 1.36 0.88 0.76 0.32 1.58 0.34z"/>
		<path class="s1" d="m400.2 305.7q0.01-0.06 0-0.13 0-0.06-0.01-0.13-0.02-0.06-0.04-0.12-0.02-0.06-0.05-0.12-0.1 0.75-0.45 1.41-0.35 0.67-0.92 1.17-0.57 0.49-1.27 0.76-0.71 0.26-1.46 0.26-0.75-0.01-1.45-0.28-0.7-0.27-1.27-0.76-0.56-0.5-0.92-1.16-0.35-0.66-0.46-1.4c0 0.2-0.1 0.3-0.1 0.5q-0.01 0.82 0.3 1.58 0.31 0.75 0.89 1.33 0.58 0.58 1.33 0.89 0.76 0.31 1.58 0.3 0.84 0.02 1.62-0.27 0.78-0.3 1.39-0.88 0.6-0.58 0.94-1.35 0.33-0.76 0.35-1.6z"/>
		<path class="s1" d="m385.4 305.2q-0.1 0.75-0.45 1.41-0.35 0.67-0.92 1.17-0.57 0.49-1.27 0.76-0.71 0.26-1.46 0.26-0.75-0.01-1.45-0.28-0.7-0.27-1.27-0.76-0.56-0.5-0.92-1.16-0.35-0.66-0.46-1.4c0 0.2-0.1 0.3-0.1 0.5 0 1.09 0.43 2.13 1.2 2.9 0.77 0.77 1.81 1.2 2.9 1.2 1.09 0 2.13-0.43 2.9-1.2 0.77-0.77 1.2-1.81 1.2-2.9 0.2-0.2 0.2-0.3 0.1-0.5z"/>
		<path class="s1" d="m388.8 319.5q-0.75-0.01-1.45-0.28-0.7-0.27-1.27-0.76-0.56-0.5-0.92-1.16-0.35-0.66-0.46-1.4c0 0.2-0.1 0.3-0.1 0.5 0 1.09 0.43 2.13 1.2 2.9 0.77 0.77 1.81 1.2 2.9 1.2 1.09 0 2.13-0.43 2.9-1.2 0.77-0.77 1.2-1.81 1.2-2.9q0.01-0.06 0-0.13 0-0.06-0.01-0.13-0.02-0.06-0.04-0.12-0.02-0.06-0.05-0.12-0.05 0.74-0.37 1.41-0.32 0.67-0.86 1.17-0.55 0.5-1.24 0.77-0.69 0.26-1.43 0.25z"/>
		<path class="s1" d="m388.8 299.6q0.82 0.01 1.58-0.3 0.75-0.31 1.33-0.89 0.58-0.58 0.89-1.33 0.31-0.76 0.3-1.58 0.01-0.06 0-0.13 0-0.06-0.01-0.13-0.02-0.06-0.04-0.12-0.02-0.06-0.05-0.12-0.1 0.75-0.45 1.41-0.35 0.67-0.92 1.17-0.57 0.49-1.27 0.76-0.71 0.26-1.46 0.26-0.75-0.01-1.45-0.28-0.7-0.27-1.27-0.76-0.56-0.5-0.92-1.16-0.35-0.66-0.46-1.4c0 0.2-0.1 0.3-0.1 0.5q0.05 0.82 0.4 1.57 0.35 0.75 0.95 1.32 0.59 0.57 1.36 0.89 0.76 0.31 1.59 0.32z"/>
		<path class="s1" d="m378.6 295.5q0.01-0.06 0-0.13 0-0.06-0.01-0.13-0.02-0.06-0.04-0.12-0.02-0.06-0.05-0.12-0.1 0.75-0.45 1.41-0.35 0.67-0.92 1.17-0.57 0.49-1.27 0.76-0.71 0.26-1.46 0.26-0.75-0.01-1.45-0.28-0.7-0.27-1.27-0.76-0.56-0.5-0.92-1.16-0.35-0.66-0.46-1.4c0 0.2-0.1 0.3-0.1 0.5q-0.01 0.82 0.3 1.58 0.31 0.75 0.89 1.33 0.58 0.58 1.33 0.89 0.76 0.31 1.58 0.3 0.83 0.01 1.61-0.29 0.78-0.3 1.38-0.88 0.6-0.57 0.94-1.33 0.34-0.77 0.37-1.6z"/>
		<path class="s1" d="m414 305.2q-0.1 0.75-0.45 1.41-0.35 0.67-0.92 1.17-0.57 0.49-1.27 0.76-0.71 0.26-1.46 0.26-0.75-0.01-1.45-0.28-0.7-0.27-1.27-0.76-0.56-0.5-0.92-1.16-0.35-0.66-0.46-1.4c0 0.2-0.1 0.3-0.1 0.5 0 1.09 0.43 2.13 1.2 2.9 0.77 0.77 1.81 1.2 2.9 1.2 1.09 0 2.13-0.43 2.9-1.2 0.77-0.77 1.2-1.81 1.2-2.9 0.2-0.2 0.1-0.3 0.1-0.5z"/>
		<path class="s1" d="m424.6 308.8q-0.75-0.01-1.45-0.28-0.7-0.27-1.27-0.76-0.56-0.5-0.92-1.16-0.35-0.66-0.46-1.4c0 0.2-0.1 0.3-0.1 0.5 0 1.09 0.43 2.13 1.2 2.9 0.77 0.77 1.81 1.2 2.9 1.2 1.09 0 2.13-0.43 2.9-1.2 0.77-0.77 1.2-1.81 1.2-2.9q0.01-0.06 0-0.13 0-0.06-0.01-0.13-0.02-0.06-0.04-0.12-0.02-0.06-0.05-0.12-0.02 0.75-0.33 1.43-0.32 0.68-0.87 1.19-0.55 0.5-1.25 0.76-0.7 0.26-1.45 0.22z"/>
		<path class="s1" d="m417.3 319.5q-0.75-0.01-1.45-0.28-0.7-0.27-1.27-0.76-0.56-0.5-0.92-1.16-0.35-0.66-0.46-1.4c0 0.2-0.1 0.3-0.1 0.5 0 1.09 0.43 2.13 1.2 2.9 0.77 0.77 1.81 1.2 2.9 1.2 1.09 0 2.13-0.43 2.9-1.2 0.77-0.77 1.2-1.81 1.2-2.9q0.01-0.06 0-0.13 0-0.06-0.01-0.13-0.02-0.06-0.04-0.12-0.02-0.06-0.05-0.12-0.05 0.74-0.37 1.41-0.32 0.67-0.86 1.17-0.55 0.5-1.24 0.77-0.69 0.26-1.43 0.25z"/>
		<path class="s1" d="m417.3 299.6q0.82 0.01 1.58-0.3 0.75-0.31 1.33-0.89 0.58-0.58 0.89-1.33 0.31-0.76 0.3-1.58 0.01-0.06 0-0.13 0-0.06-0.01-0.13-0.02-0.06-0.04-0.12-0.02-0.06-0.05-0.12-0.1 0.75-0.45 1.41-0.35 0.67-0.92 1.17-0.57 0.49-1.27 0.76-0.71 0.26-1.46 0.26-0.75-0.01-1.45-0.28-0.7-0.27-1.27-0.76-0.56-0.5-0.92-1.16-0.35-0.66-0.46-1.4c0 0.2-0.1 0.3-0.1 0.5q0.05 0.82 0.4 1.57 0.35 0.75 0.95 1.32 0.59 0.57 1.36 0.89 0.76 0.31 1.59 0.32z"/>
		<path class="s1" d="m431.6 298.6q-0.75-0.01-1.45-0.28-0.7-0.27-1.27-0.76-0.56-0.5-0.92-1.16-0.35-0.66-0.46-1.4c0 0.2-0.1 0.3-0.1 0.5 0 1.09 0.43 2.13 1.2 2.9 0.77 0.77 1.81 1.2 2.9 1.2 1.09 0 2.13-0.43 2.9-1.2 0.77-0.77 1.2-1.81 1.2-2.9q0.01-0.06 0-0.13 0-0.06-0.01-0.13-0.02-0.06-0.04-0.12-0.02-0.06-0.05-0.12-0.05 0.74-0.37 1.41-0.32 0.67-0.86 1.17-0.55 0.5-1.24 0.77-0.69 0.26-1.43 0.25z"/>
	</g>
	<path class="s5" d="m436.6 421h-67.9c-2.8 0-4.6 0.6-4.6-2.2q0-0.99 0.38-1.91 0.38-0.92 1.08-1.63 0.71-0.7 1.63-1.08 0.92-0.38 1.91-0.38h67.9q0.99 0 1.91 0.38 0.92 0.38 1.63 1.08 0.7 0.71 1.08 1.63 0.38 0.92 0.38 1.91c0.1 2.7-2.6 2.2-5.4 2.2z"/>
	<path class="s3" d="m408.3 418.8h-36.5q-0.18 0-0.34-0.07-0.17-0.07-0.3-0.19-0.12-0.13-0.19-0.3-0.07-0.16-0.07-0.34 0-0.4 0.15-0.77 0.16-0.36 0.44-0.64 0.28-0.28 0.64-0.44 0.37-0.15 0.77-0.15h34.2q0.4 0 0.77 0.15 0.36 0.16 0.64 0.44 0.28 0.28 0.44 0.64 0.15 0.37 0.15 0.77 0.03 0.17-0.02 0.34-0.05 0.17-0.16 0.3-0.12 0.13-0.28 0.2-0.16 0.07-0.34 0.06z"/>
	<path class="s3" d="m430.5 419.6h-4.2q-0.34-0.01-0.64-0.14-0.31-0.14-0.55-0.37-0.23-0.24-0.37-0.55-0.13-0.3-0.14-0.64 0-0.56 0.21-1.07 0.22-0.52 0.61-0.91 0.39-0.39 0.91-0.61 0.51-0.21 1.07-0.21h1.9q0.56 0 1.07 0.21 0.52 0.22 0.91 0.61 0.39 0.39 0.61 0.91 0.21 0.51 0.21 1.07 0.05 0.34-0.06 0.66-0.1 0.32-0.33 0.57-0.24 0.25-0.55 0.37-0.32 0.12-0.66 0.1z"/>
	<g>
		<path class="s9" d="m530.4 124.3q0-0.38-0.14-0.73-0.15-0.35-0.42-0.61-0.26-0.27-0.61-0.42-0.35-0.14-0.73-0.14h-251.1q-0.38 0-0.73 0.14-0.35 0.15-0.61 0.42-0.27 0.26-0.42 0.61-0.14 0.35-0.14 0.73v129.2c0 2.05 0.41 4.08 1.19 5.97 0.79 1.89 1.94 3.61 3.38 5.06 1.45 1.44 3.17 2.59 5.06 3.38 1.89 0.78 3.92 1.19 5.97 1.19h223.8c2.05 0 4.08-0.41 5.97-1.19 1.89-0.79 3.61-1.94 5.06-3.38 1.44-1.45 2.59-3.17 3.38-5.06 0.78-1.89 1.19-3.92 1.19-5.97v-123.1z"/>
		<g style="opacity: .12">
			<path class="s3" d="m275.5 253.5c0 2.05 0.41 4.08 1.19 5.97 0.79 1.89 1.94 3.61 3.38 5.06 1.45 1.44 3.17 2.59 5.06 3.38 1.89 0.78 3.92 1.19 5.97 1.19h223.8c2.05 0 4.08-0.41 5.97-1.19 1.89-0.79 3.61-1.94 5.06-3.38 1.44-1.45 2.59-3.17 3.38-5.06 0.78-1.89 1.19-3.92 1.19-5.97v-106.5h-255z"/>
		</g>
	</g>
	<g>
		<g>
			<g>
				<path class="s5" d="m709.9 271c-10.64 0-20.23-6.41-24.3-16.24-4.07-9.82-1.82-21.14 5.7-28.66 7.52-7.52 18.84-9.77 28.66-5.7 9.83 4.07 16.24 13.66 16.24 24.3 0 3.45-0.69 6.87-2.01 10.06-1.32 3.19-3.26 6.09-5.7 8.53-2.44 2.44-5.34 4.38-8.53 5.7-3.19 1.32-6.61 2.01-10.06 2.01z"/>
				<path class="s7" d="m709.9 217.5c-11.04 0-21 6.65-25.22 16.85-4.23 10.2-1.89 21.95 5.92 29.75 7.8 7.81 19.55 10.15 29.75 5.92 10.2-4.22 16.85-14.18 16.85-25.22-0.01-3.58-0.71-7.13-2.09-10.44-1.37-3.31-3.38-6.32-5.92-8.85-2.53-2.54-5.54-4.55-8.85-5.92-3.31-1.38-6.86-2.08-10.44-2.09zm0 2c10.21 0.02 19.41 6.19 23.3 15.63 3.89 9.45 1.7 20.3-5.53 27.51-7.24 7.21-18.1 9.35-27.53 5.42-9.43-3.93-15.56-13.15-15.54-23.36 0.02-3.31 0.68-6.59 1.96-9.65 1.28-3.05 3.15-5.83 5.49-8.17 2.35-2.33 5.13-4.19 8.2-5.46 3.06-1.26 6.34-1.92 9.65-1.92z"/>
			</g>
			<path class="s1" d="m709.9 225.9c-7.64 0-14.54 4.6-17.46 11.67-2.93 7.06-1.31 15.19 4.1 20.59 5.4 5.41 13.53 7.03 20.59 4.1 7.07-2.92 11.67-9.82 11.67-17.46-0.01-2.48-0.5-4.93-1.45-7.22-0.95-2.3-2.35-4.38-4.1-6.13-1.75-1.75-3.83-3.15-6.13-4.1-2.29-0.95-4.74-1.44-7.22-1.45zm0 34.9c-6.47 0-12.31-3.9-14.78-9.88-2.48-5.98-1.11-12.86 3.47-17.43 4.57-4.58 11.45-5.95 17.43-3.47 5.98 2.47 9.88 8.31 9.88 14.78 0 2.1-0.41 4.18-1.22 6.12-0.8 1.94-1.98 3.71-3.47 5.19-1.48 1.49-3.25 2.67-5.19 3.47-1.94 0.81-4.02 1.22-6.12 1.22z"/>
		</g>
		<g>
			<g>
				<path class="s5" d="m652.3 328.6c-10.64 0-20.23-6.41-24.3-16.24-4.07-9.82-1.82-21.14 5.7-28.66 7.52-7.52 18.84-9.77 28.66-5.7 9.83 4.07 16.24 13.66 16.24 24.3 0 3.45-0.69 6.87-2.01 10.06-1.32 3.19-3.26 6.09-5.7 8.53-2.44 2.44-5.34 4.38-8.53 5.7-3.19 1.32-6.61 2.01-10.06 2.01z"/>
				<path class="s7" d="m652.3 275.1c-11.04 0-21 6.65-25.22 16.85-4.23 10.2-1.89 21.95 5.92 29.75 7.8 7.81 19.55 10.15 29.75 5.92 10.2-4.22 16.85-14.18 16.85-25.22-0.01-3.58-0.71-7.13-2.09-10.44-1.37-3.31-3.38-6.32-5.92-8.85-2.53-2.54-5.54-4.55-8.85-5.92-3.31-1.38-6.86-2.08-10.44-2.09zm0 2c10.23 0 19.46 6.16 23.37 15.62 3.92 9.45 1.76 20.33-5.48 27.57-7.24 7.24-18.12 9.4-27.57 5.48-9.46-3.91-15.62-13.14-15.62-23.37 0-3.32 0.66-6.61 1.93-9.68 1.28-3.07 3.14-5.85 5.49-8.2 2.35-2.35 5.13-4.21 8.2-5.49 3.07-1.27 6.36-1.93 9.68-1.93z"/>
			</g>
			<path fill-rule="evenodd" class="s1" d="m666.7 290l-2-2-12.4 12.4-12.3-12.4-2 2 12.3 12.4-12.3 12.3 2 2 12.3-12.3 12.4 12.3 2-2-12.4-12.3 12.4-12.4z"/>
		</g>
		<g>
			<g>
				<path class="s5" d="m594.8 271c-10.64 0-20.23-6.41-24.3-16.24-4.07-9.82-1.82-21.14 5.7-28.66 7.52-7.52 18.84-9.77 28.66-5.7 9.83 4.07 16.24 13.66 16.24 24.3 0 3.45-0.69 6.87-2.01 10.06-1.32 3.19-3.26 6.09-5.7 8.53-2.44 2.44-5.34 4.38-8.53 5.7-3.19 1.32-6.61 2.01-10.06 2.01z"/>
				<path class="s7" d="m594.7 217.5c-11.04 0-21 6.65-25.22 16.85-4.23 10.2-1.89 21.95 5.92 29.75 7.8 7.81 19.55 10.15 29.75 5.92 10.2-4.22 16.85-14.18 16.85-25.22-0.01-3.58-0.71-7.13-2.09-10.44-1.37-3.31-3.38-6.32-5.92-8.85-2.53-2.54-5.54-4.55-8.85-5.92-3.31-1.38-6.86-2.08-10.44-2.09zm0 2c10.21 0.02 19.41 6.19 23.3 15.63 3.89 9.45 1.7 20.3-5.53 27.51-7.24 7.21-18.1 9.35-27.53 5.42-9.43-3.93-15.56-13.15-15.54-23.36 0.02-3.31 0.68-6.59 1.96-9.65 1.28-3.05 3.15-5.83 5.49-8.17 2.35-2.33 5.13-4.19 8.2-5.46 3.06-1.26 6.34-1.92 9.65-1.92z"/>
			</g>
			<path class="s1" d="m606.3 230.4h-25.8v28.6h28.6v-28.6zm0 25.9h-23v-23h23z"/>
		</g>
		<g>
			<g>
				<path class="s5" d="m652.3 213.5c-10.64 0-20.23-6.41-24.3-16.24-4.07-9.82-1.82-21.14 5.7-28.66 7.52-7.52 18.84-9.77 28.66-5.7 9.83 4.07 16.24 13.66 16.24 24.3 0 3.45-0.69 6.87-2.01 10.06-1.32 3.19-3.26 6.09-5.7 8.53-2.44 2.44-5.34 4.38-8.53 5.7-3.19 1.32-6.61 2.01-10.06 2.01z"/>
				<path class="s7" d="m652.3 160c-11.04 0-21 6.65-25.22 16.85-4.23 10.2-1.89 21.95 5.92 29.75 7.8 7.81 19.55 10.15 29.75 5.92 10.2-4.22 16.85-14.18 16.85-25.22-0.01-3.58-0.71-7.13-2.09-10.44-1.37-3.31-3.38-6.32-5.92-8.85-2.53-2.54-5.54-4.55-8.85-5.92-3.31-1.38-6.86-2.08-10.44-2.09zm0 2c10.23 0 19.46 6.16 23.37 15.62 3.92 9.45 1.76 20.33-5.48 27.57-7.24 7.24-18.12 9.4-27.57 5.48-9.46-3.91-15.62-13.14-15.62-23.37 0-3.32 0.66-6.61 1.93-9.68 1.28-3.07 3.14-5.85 5.49-8.2 2.35-2.35 5.13-4.21 8.2-5.49 3.07-1.27 6.36-1.93 9.68-1.93z"/>
			</g>
			<path class="s1" d="m668.3 195.2l-16-27.6-16 27.6-1.6 2.8h35.2zm-16 0h-12.7l12.7-21.9 12.7 21.9z"/>
		</g>
	</g>
	<g>
		<path fill-rule="evenodd" class="s10" d="m403 382.2c-11.17 0-20.2-9.03-20.2-20.2 0-11.17 9.03-20.2 20.2-20.2 11.17 0 20.2 9.03 20.2 20.2 0 11.17-9.03 20.2-20.2 20.2z"/>
		<g>
			<path class="s11" d="m404.1 368.6v-12.8q-0.01-0.13 0-0.27 0.01-0.13 0.05-0.26 0.04-0.13 0.1-0.25 0.06-0.12 0.15-0.22 0.06-0.08 0.14-0.14 0.08-0.06 0.17-0.09 0.1-0.02 0.2-0.02 0.1 0.01 0.19 0.05c0.6 0.2 0.9 0.7 0.9 1.7v6.9q0.24 0.12 0.5 0.22 0.25 0.09 0.52 0.16 0.27 0.06 0.54 0.09 0.27 0.03 0.54 0.03 0.21 0 0.42-0.03 0.22-0.03 0.42-0.1 0.2-0.06 0.39-0.15 0.2-0.1 0.37-0.22c1-0.7 1.5-1.9 1.5-3.7q0.04-0.57-0.01-1.14-0.06-0.57-0.21-1.12-0.15-0.55-0.4-1.06-0.25-0.52-0.58-0.98-0.41-0.46-0.88-0.86-0.47-0.4-0.99-0.73-0.52-0.33-1.08-0.58-0.56-0.26-1.15-0.43c-1.3-0.4-2.5-0.8-3.6-1.1-1.1-0.3-2-0.5-2.9-0.7v12.2 2.7 1.7 2.5 1.5l4.7 1.5v-3.6z"/>
			<path class="s11" d="m399 367.6l-1.7 0.6-0.9 0.4-1.6 0.3-1.5-0.2c-0.3-0.2-0.4-0.4-0.2-0.6 0.2-0.2 0.2-0.1 0.3-0.2 0.1-0.1 0.3-0.1 0.4-0.2l1.1-0.4 4.1-1.5v-2.7l-1.7 0.5-5.5 2-1 0.4c-1.5 0.6-2.2 1.2-2.2 1.8 0.1 0.8 1 1.5 2.7 1.9q0.53 0.14 1.06 0.24 0.53 0.1 1.07 0.16 0.54 0.07 1.08 0.09 0.55 0.02 1.09 0.01 0.41 0 0.83-0.02 0.41-0.02 0.83-0.06 0.41-0.04 0.82-0.09 0.41-0.06 0.82-0.13v-2.3z"/>
			<path class="s11" d="m414.8 365.3q-0.3-0.11-0.61-0.2-0.31-0.09-0.62-0.16-0.32-0.08-0.63-0.14-0.32-0.06-0.64-0.1-0.31-0.05-0.62-0.08-0.31-0.03-0.63-0.04-0.31-0.02-0.62-0.01-0.32 0.01-0.63 0.03-0.35 0.02-0.7 0.05-0.35 0.03-0.7 0.06-0.35 0.04-0.7 0.09-0.35 0.04-0.7 0.1-0.33 0.07-0.66 0.16-0.33 0.08-0.66 0.18-0.32 0.1-0.64 0.22-0.32 0.11-0.64 0.24v2.8l3.9-1.4 1.6-0.5 1.1-0.3h1.4c0.3 0.1 0.6 0.2 0.7 0.4 0.1 0.2-0.2 0.4-0.8 0.6l-1.4 0.5-6.5 2.4v2.7l3.5-1.3 6.4-2.3 0.7-0.4c1.5-0.5 2.2-1.2 2.2-1.9 0-0.7-0.8-1.2-2.4-1.7z"/>
		</g>
	</g>
	<g>
		<g>
			<path class="s7" d="m697.2 109.9q0-0.29-0.07-0.57-0.07-0.28-0.22-0.53-0.14-0.25-0.35-0.46-0.21-0.2-0.46-0.34c-4.5-2.9-23.4-13.6-51.5-13.6-26.9 0-41.1 5.9-45.1 8q-0.28 0.14-0.5 0.35-0.23 0.21-0.39 0.48-0.16 0.26-0.24 0.56-0.08 0.3-0.07 0.61c0 0.21 9.8-2.9 47.5-2.9 37.7 0 51.4 8.4 51.4 8.4z"/>
			<path class="s5" d="m697.1 116.8v-6.9c0 0-13.7-8.4-51.4-8.4-37.7 0-47.5 2.9-47.5 2.9v11c7.7-1.3 21.2-2.6 44.1-2.6 28.5 0.1 45.9 2.4 54.8 4z"/>
		</g>
		<g>
			<path class="s7" d="m108.8 109.9q0-0.29 0.07-0.57 0.07-0.28 0.22-0.53 0.14-0.25 0.35-0.46 0.21-0.2 0.46-0.34c4.5-2.9 23.4-13.6 51.5-13.6 26.9 0 41.1 5.9 45.1 8q0.28 0.14 0.5 0.35 0.23 0.21 0.39 0.48 0.16 0.26 0.24 0.56 0.08 0.3 0.07 0.61c0 0.21-9.8-2.9-47.5-2.9-37.7 0-51.4 8.4-51.4 8.4z"/>
			<path class="s5" d="m108.9 116.8v-6.9c0 0 13.7-8.4 51.4-8.4 37.7 0 47.5 2.9 47.5 2.9v11c-7.7-1.3-21.2-2.6-44.1-2.6-28.5 0.1-45.9 2.4-54.8 4z"/>
		</g>
	</g>
	<g>
		<g>
			<g>
				<path class="s5" d="m697.2 90.8c0 0-32.7-3.2-50.6-3.2-17.9 0-48.4 2.4-48.4 2.4 0 0 3.1-44.7 4.8-52 1.7-7.3 7.7-21.3 16.9-27.9 9.2-6.6 11.9-10.1 22.7-10.1 10.8 0 25.4 6.4 34.6 21.4 9.2 15 20 69.4 20 69.4z"/>
				<path class="s7" d="m598.7 83.2c0 0 26.1-4.4 49-4.4 22.9 0 47.9 4.4 47.9 4.4 1 4.7 1.6 7.6 1.6 7.6 0 0-32.7-3.2-50.6-3.2-17.9 0-48.4 2.4-48.4 2.4 0 0 0.2-2.7 0.5-6.8z"/>
			</g>
			<g style="opacity: .08">
				<path class="s1" d="m648.7 65.7l-3.2 2.6q-0.45 0.44-0.81 0.96-0.36 0.52-0.62 1.1-0.25 0.58-0.4 1.19-0.14 0.62-0.17 1.25h9.8v-2.6h-6.3q0.21-0.29 0.45-0.56 0.23-0.26 0.5-0.5 0.26-0.24 0.55-0.45 0.29-0.21 0.6-0.39 0.37-0.21 0.73-0.45 0.35-0.24 0.69-0.51 0.34-0.26 0.66-0.55 0.32-0.28 0.62-0.59 0.31-0.33 0.56-0.72 0.24-0.38 0.41-0.8 0.17-0.43 0.25-0.88 0.08-0.44 0.08-0.9 0.02-0.46-0.07-0.92-0.08-0.46-0.26-0.89-0.18-0.42-0.45-0.8-0.27-0.38-0.62-0.69-0.36-0.31-0.78-0.54-0.41-0.23-0.86-0.39-0.45-0.15-0.92-0.22-0.47-0.07-0.94-0.05c-3.1 0-4.7 1.7-4.7 5h2.7q0-2.7 2.1-2.7 0.42-0.04 0.82 0.1 0.4 0.15 0.7 0.46 0.29 0.31 0.42 0.71 0.12 0.41 0.06 0.83c0.2 1.1-0.4 2-1.6 2.9z"/>
				<path class="s1" d="m631.1 67.2h3c1.5 0 2.3 0.6 2.4 1.9 0.1 1.3 0.2 2.5 0.3 3.8h3.3v-0.4c-0.5-0.2-0.7-0.7-0.7-1.5q0-0.1 0-0.2 0.01-0.1 0.02-0.2 0.01-0.1 0.03-0.2 0.02-0.1 0.05-0.2v-0.7q0.06-0.52-0.04-1.04-0.09-0.51-0.33-0.98-0.24-0.47-0.61-0.85-0.36-0.37-0.82-0.63 0.52-0.18 0.96-0.51 0.43-0.34 0.73-0.81 0.3-0.46 0.43-0.99 0.13-0.54 0.08-1.09 0.03-0.43-0.04-0.85-0.07-0.42-0.24-0.81-0.17-0.39-0.43-0.73-0.26-0.34-0.59-0.61-0.34-0.27-0.72-0.47-0.38-0.2-0.79-0.32-0.41-0.13-0.83-0.18-0.43-0.06-0.86-0.03h-7.3v14.3h3zm0-6.2h3.7c1.4 0 2.1 0.6 2.1 1.9 0 1.3-0.8 1.9-2.3 1.9h-3.5z"/>
			</g>
		</g>
		<g>
			<g>
				<path class="s5" d="m108.8 90.8c0 0 32.7-3.2 50.6-3.2 17.9 0 48.3 2.4 48.3 2.4 0 0-3.1-44.7-4.8-52-1.7-7.3-7.7-21.3-16.9-27.9-9.2-6.6-11.8-10.1-22.6-10.1-10.8 0-25.4 6.4-34.6 21.4-9.2 15-20 69.4-20 69.4z"/>
				<path class="s7" d="m207.3 83.2c0 0-26.1-4.4-49-4.4-22.9 0-47.9 4.4-47.9 4.4-1 4.7-1.6 7.6-1.6 7.6 0 0 32.7-3.2 50.6-3.2 17.9 0 48.3 2.4 48.3 2.4 0 0-0.1-2.7-0.4-6.8z"/>
			</g>
			<g style="opacity: .08">
				<path class="s1" d="m173.3 65.7l-3.2 2.6q-0.45 0.44-0.81 0.96-0.36 0.52-0.62 1.1-0.25 0.58-0.4 1.19-0.14 0.62-0.17 1.25h9.8v-2.6h-6.2q0.21-0.29 0.45-0.56 0.23-0.26 0.5-0.5 0.26-0.24 0.55-0.45 0.29-0.21 0.6-0.39 0.37-0.21 0.73-0.45 0.35-0.24 0.69-0.51 0.34-0.26 0.66-0.55 0.32-0.28 0.62-0.59 0.31-0.33 0.56-0.72 0.24-0.38 0.41-0.8 0.17-0.43 0.25-0.88 0.08-0.44 0.08-0.9 0.02-0.46-0.07-0.92-0.08-0.46-0.26-0.89-0.18-0.42-0.45-0.8-0.27-0.38-0.62-0.69-0.36-0.31-0.78-0.54-0.41-0.23-0.86-0.39-0.45-0.15-0.92-0.22-0.47-0.07-0.94-0.05c-3.1 0-4.7 1.7-4.7 5h2.7q0-2.7 2.1-2.7 0.42-0.04 0.82 0.1 0.4 0.15 0.7 0.46 0.29 0.31 0.42 0.71 0.12 0.41 0.06 0.83c0.1 1.1-0.5 2-1.7 2.9z"/>
				<path fill-rule="evenodd" class="s1" d="m164.8 70.2h-7v-11.7h-3.1v14.3h10.1v-2.6z"/>
			</g>
		</g>
	</g>
	<g>
		<g>
			<path class="s5" d="m547.6 134.6c-0.07 1.04-0.54 2.01-1.3 2.72-0.76 0.71-1.76 1.1-2.8 1.1-1.04 0-2.04-0.39-2.8-1.1-0.76-0.71-1.23-1.68-1.3-2.72q0-0.79 0.32-1.52 0.32-0.73 0.9-1.27 0.59-0.54 1.34-0.81 0.75-0.26 1.54-0.2 0.8-0.07 1.55 0.19 0.76 0.25 1.35 0.8 0.58 0.54 0.9 1.28 0.31 0.73 0.3 1.53zm-6.7 0q-0.04 0.54 0.13 1.04 0.18 0.51 0.56 0.9 0.37 0.39 0.87 0.59 0.5 0.19 1.04 0.17 0.53 0.01 1.03-0.19 0.49-0.2 0.86-0.59 0.37-0.38 0.56-0.88 0.18-0.51 0.15-1.04c0-0.69-0.27-1.35-0.76-1.84-0.49-0.49-1.15-0.76-1.84-0.76-0.69 0-1.35 0.27-1.84 0.76-0.49 0.49-0.76 1.15-0.76 1.84z"/>
			<path class="s5" d="m548.9 131h3.8c2.4 0 2.9 1.3 2.9 2.2 0 0.9-0.5 2.2-2.9 2.2h-2.3v2.8h-1.5zm1.5 3.4h2.2c0.7 0 1.5-0.3 1.5-1.2 0-0.9-0.7-1.2-1.5-1.2h-2.2z"/>
			<path class="s5" d="m556.1 131h6.9v1.1h-2.7v6.1h-1.5v-6.2h-2.7z"/>
			<path class="s5" d="m564.1 131h1.5v7.2h-1.5z"/>
			<path class="s5" d="m575.1 134.6c-0.07 1.04-0.54 2.01-1.3 2.72-0.76 0.71-1.76 1.1-2.8 1.1-1.04 0-2.04-0.39-2.8-1.1-0.76-0.71-1.23-1.68-1.3-2.72q0-0.79 0.32-1.52 0.32-0.73 0.9-1.27 0.59-0.54 1.34-0.81 0.75-0.26 1.54-0.2 0.8-0.07 1.55 0.19 0.76 0.25 1.35 0.8 0.58 0.54 0.9 1.28 0.31 0.73 0.3 1.53zm-6.7 0q-0.04 0.54 0.13 1.04 0.18 0.51 0.56 0.9 0.37 0.39 0.87 0.59 0.5 0.19 1.04 0.17 0.53 0.01 1.03-0.19 0.49-0.2 0.86-0.59 0.37-0.38 0.56-0.88 0.18-0.51 0.15-1.04c0-0.69-0.27-1.35-0.76-1.84-0.49-0.49-1.15-0.76-1.84-0.76-0.69 0-1.35 0.27-1.84 0.76-0.49 0.49-0.76 1.15-0.76 1.84z"/>
			<path class="s5" d="m576.5 131h1.6l3.9 5.3v-5.3h1.4v7.2h-1.6l-3.9-5.3v5.3h-1.4z"/>
			<path class="s5" d="m586.2 135.8c0 1.1 1 1.5 2.2 1.5 1.2 0 1.8-0.6 1.8-1.1q0.01-0.16-0.04-0.3-0.05-0.15-0.15-0.28-0.09-0.12-0.23-0.2-0.13-0.09-0.28-0.12c-0.6-0.2-1.4-0.3-2.6-0.6-1.5-0.3-1.9-1.1-1.9-1.8 0-1.5 1.6-2.1 3.1-2.1 1.8 0 3.3 0.8 3.3 2.3h-1.5c-0.1-0.9-0.8-1.3-1.8-1.3-0.7 0-1.6 0.2-1.6 0.9 0 0.5 0.4 0.8 1 0.9q0.32 0.06 0.63 0.12 0.32 0.07 0.63 0.14 0.31 0.08 0.62 0.16 0.31 0.09 0.62 0.18 0.33 0.06 0.62 0.22 0.3 0.15 0.53 0.4 0.23 0.24 0.37 0.54 0.14 0.31 0.18 0.64c0 1.6-1.7 2.3-3.4 2.3-2 0-3.5-0.8-3.6-2.6h1.5z"/>
		</g>
		<g>
			<path class="s5" d="m222.2 135.8c0 1.1 1 1.5 2.2 1.5 1.2 0 1.8-0.6 1.8-1.1q0.01-0.16-0.04-0.3-0.05-0.15-0.15-0.28-0.09-0.12-0.23-0.2-0.13-0.09-0.28-0.12c-0.6-0.2-1.4-0.3-2.6-0.6-1.5-0.3-1.9-1.1-1.9-1.8 0-1.5 1.6-2.1 3.1-2.1 1.8 0 3.3 0.8 3.3 2.3h-1.5c-0.1-0.9-0.8-1.3-1.8-1.3-0.7 0-1.6 0.2-1.6 0.9 0 0.5 0.4 0.8 1 0.9q0.32 0.06 0.63 0.12 0.32 0.07 0.63 0.14 0.31 0.08 0.62 0.16 0.31 0.09 0.62 0.18 0.33 0.06 0.62 0.22 0.3 0.15 0.53 0.4 0.23 0.24 0.37 0.54 0.14 0.31 0.18 0.64c0 1.6-1.7 2.3-3.4 2.3-2 0-3.5-0.8-3.6-2.6h1.5z"/>
			<path class="s5" d="m228.9 131h1.5v2.9h3.9v-2.9h1.5v7.2h-1.5v-3.2h-3.9v3.2h-1.5z"/>
			<path class="s5" d="m239.9 131h1.6l3.3 7.2h-1.6l-0.8-1.9h-3.4l-0.8 1.9h-1.5zm-0.5 4.3h2.6l-1.3-3.1z"/>
			<path class="s5" d="m245.6 131h4.1c1.9 0 2.8 0.7 2.8 1.9q0.01 0.31-0.08 0.61-0.1 0.3-0.29 0.55-0.19 0.24-0.46 0.41-0.26 0.16-0.57 0.23 0.28 0.03 0.52 0.15 0.25 0.13 0.43 0.34 0.18 0.21 0.27 0.47 0.09 0.26 0.08 0.54c0 0.8 0.1 1.6 0.5 1.9h-1.6q-0.06-0.13-0.11-0.26-0.04-0.14-0.07-0.28-0.02-0.14-0.03-0.28 0-0.14 0.01-0.28c0-1.3-0.3-1.9-1.7-1.9h-2.2v3h-1.5v-7.1zm1.5 3.2h2.5c1 0 1.5-0.4 1.5-1.1 0-0.9-0.7-1.1-1.5-1.1h-2.4v2.2z"/>
			<path class="s5" d="m254.1 131h6.2v1.1h-4.7v1.9h4.3v1h-4.3v2.1h4.7v1.1h-6.2z"/>
		</g>
	</g>
</svg>