<svg version="1.2" xmlns="http://www.w3.org/2000/svg" viewBox="0 0 99 23" width="99" height="23">
	<style>
		.s0 { fill: #f5f5f5 } 
		.s1 { fill: #ededed } 
	</style>
	<g>
		<path class="s0" d="m0 15.5q0-0.29 0.07-0.57 0.07-0.28 0.22-0.53 0.14-0.25 0.35-0.46 0.21-0.2 0.46-0.34c4.5-2.9 23.3-13.6 51.5-13.6 26.9 0 41.1 5.9 45.1 8q0.28 0.14 0.5 0.35 0.23 0.21 0.39 0.48 0.16 0.26 0.24 0.56 0.08 0.3 0.07 0.61c0 0.21-9.8-2.9-47.5-2.9-37.7 0-51.4 8.4-51.4 8.4z"/>
		<path class="s1" d="m0 22.4v-6.9c0 0 13.7-8.4 51.4-8.4 37.7 0 47.5 2.9 47.5 2.9v11c-7.7-1.3-21.2-2.6-44.1-2.6-28.5 0-45.9 2.3-54.8 4z"/>
	</g>
</svg>