<svg version="1.2" xmlns="http://www.w3.org/2000/svg" viewBox="0 0 179 104" width="179" height="104">
	<style>
		.s0 { fill: #2f3573 } 
		.s1 { opacity: .25;fill: #000000 } 
		.s2 { fill: #e6e6e6 } 
		.s3 { opacity: .25;fill: #ffffff } 
	</style>
	<g>
		<g>
			<path class="s0" d="m124.52 20.62c1.4-2 1.2-2.9 1.2-2.9 0 0 0.2-0.9-1.2-2.9-1.4-2-15-13.6-15.7-14-0.7-0.4-28.5-2.2-31.4 1.3-2.9 3.5-2.6 15.6-2.6 15.6 0 0-0.3 12.1 2.6 15.6 2.9 3.5 30.7 1.7 31.4 1.3 0.7-0.4 14.3-12 15.7-14z"/>
			<path class="s1" d="m124.52 20.62c1.4-2 1.2-2.9 1.2-2.9 0 0 0.2-0.9-1.2-2.9-0.9-1.3-6.9-6.6-11.2-10.3q-0.83 1.51-1.46 3.12-0.63 1.6-1.06 3.27-0.43 1.67-0.65 3.38-0.22 1.71-0.23 3.43-0.01 1.73 0.2 3.44 0.21 1.71 0.64 3.38 0.43 1.67 1.08 3.27 0.64 1.6 1.48 3.11c4.3-3.7 10.3-9 11.2-10.3z"/>
		</g>
		<g>
			<path class="s0" d="m52.22 49.72c2 1.4 2.9 1.2 2.9 1.2 0 0 0.9 0.2 2.9-1.2 2-1.4 13.6-15 14-15.7 0.4-0.7 2.2-28.5-1.3-31.4-3.5-2.9-15.6-2.6-15.6-2.6 0 0-12.1-0.2-15.6 2.6-3.5 2.8-1.7 30.7-1.3 31.4 0.4 0.7 12 14.3 14 15.7z"/>
			<path class="s1" d="m52.22 49.72c2 1.4 2.9 1.2 2.9 1.2 0 0 0.9 0.2 2.9-1.2 1.3-0.9 6.6-6.9 10.3-11.2q-1.51-0.83-3.12-1.46-1.6-0.63-3.27-1.06-1.67-0.43-3.38-0.65-1.71-0.22-3.43-0.23-1.73-0.01-3.44 0.2-1.71 0.21-3.38 0.64-1.67 0.43-3.27 1.08-1.6 0.64-3.11 1.48c3.7 4.3 9 10.3 10.3 11.2z"/>
		</g>
		<g>
			<path class="s0" d="m175.92 2.22c-2.9-3.5-30.7-1.7-31.4-1.3-0.7 0.4-14.3 12-15.7 14-1.4 2-1.2 2.9-1.2 2.9 0 0-0.2 0.9 1.2 2.9 1.4 2 15 13.6 15.7 14 0.7 0.4 28.5 2.2 31.4-1.3 2.9-3.5 2.6-15.6 2.6-15.6 0 0 0.3-12.1-2.6-15.6z"/>
			<path class="s1" d="m140.12 4.62c-4.3 3.7-10.3 9-11.2 10.3-1.4 2-1.2 2.9-1.2 2.9 0 0-0.2 0.9 1.2 2.9 0.9 1.3 6.9 6.6 11.2 10.3q0.83-1.51 1.46-3.12 0.63-1.6 1.06-3.27 0.43-1.67 0.65-3.38 0.22-1.71 0.23-3.43-0.01-1.72-0.23-3.43-0.22-1.71-0.65-3.38-0.43-1.67-1.06-3.27-0.63-1.61-1.46-3.12z"/>
		</g>
		<g>
			<path class="s0" d="m20.62 1.22c-2-1.4-2.9-1.2-2.9-1.2 0 0-0.9-0.2-2.9 1.2-2 1.4-13.6 15-14 15.7-0.4 0.7-2.2 28.5 1.3 31.4 3.5 2.9 15.6 2.6 15.6 2.6 0 0 12.1 0.3 15.6-2.6 3.5-2.9 1.7-30.7 1.3-31.4-0.4-0.7-12-14.3-14-15.7z"/>
			<path class="s1" d="m20.62 1.22c-2-1.4-2.9-1.2-2.9-1.2 0 0-0.9-0.2-2.9 1.2-1.3 0.9-6.6 6.9-10.3 11.2q1.51 0.83 3.12 1.46 1.6 0.63 3.27 1.06 1.67 0.43 3.38 0.65 1.71 0.22 3.43 0.23 1.73 0.01 3.44-0.2 1.71-0.21 3.38-0.64 1.67-0.43 3.27-1.08 1.6-0.64 3.11-1.48c-3.7-4.3-9-10.3-10.3-11.2z"/>
		</g>
	</g>
	<g>
		<g>
			<path class="s2" d="m124.52 73.62c1.4-2 1.2-2.9 1.2-2.9 0 0 0.2-0.9-1.2-2.9-1.4-2-15-13.6-15.7-14-0.7-0.4-28.5-2.2-31.4 1.3-2.9 3.5-2.6 15.6-2.6 15.6 0 0-0.3 12.1 2.6 15.6 2.9 3.5 30.7 1.7 31.4 1.3 0.7-0.4 14.3-12 15.7-14z"/>
			<path class="s3" d="m124.52 73.62c1.4-2 1.2-2.9 1.2-2.9 0 0 0.2-0.9-1.2-2.9-0.9-1.3-6.9-6.6-11.2-10.3q-0.83 1.51-1.46 3.12-0.63 1.6-1.06 3.27-0.43 1.67-0.65 3.38-0.22 1.71-0.23 3.43-0.01 1.73 0.2 3.44 0.21 1.71 0.64 3.38 0.43 1.67 1.08 3.27 0.64 1.6 1.48 3.11c4.3-3.7 10.3-9 11.2-10.3z"/>
		</g>
		<g>
			<path class="s2" d="m52.22 102.72c2 1.4 2.9 1.2 2.9 1.2 0 0 0.9 0.2 2.9-1.2 2-1.4 13.6-15 14-15.7 0.4-0.7 2.2-28.5-1.3-31.4-3.5-2.9-15.6-2.6-15.6-2.6 0 0-12.1-0.2-15.6 2.6-3.5 2.8-1.7 30.7-1.3 31.4 0.4 0.7 12 14.3 14 15.7z"/>
			<path class="s3" d="m52.22 102.72c2 1.4 2.9 1.2 2.9 1.2 0 0 0.9 0.2 2.9-1.2 1.3-0.9 6.6-6.9 10.3-11.2q-1.51-0.83-3.12-1.46-1.6-0.63-3.27-1.06-1.67-0.43-3.38-0.65-1.71-0.22-3.43-0.23-1.73-0.01-3.44 0.2-1.71 0.21-3.38 0.64-1.67 0.43-3.27 1.08-1.6 0.64-3.11 1.48c3.7 4.3 9 10.3 10.3 11.2z"/>
		</g>
		<g>
			<path class="s2" d="m175.92 55.12c-2.9-3.5-30.7-1.7-31.4-1.3-0.7 0.4-14.3 12-15.7 14-1.4 2-1.2 2.9-1.2 2.9 0 0-0.2 0.9 1.2 2.9 1.4 2 15 13.6 15.7 14 0.7 0.4 28.5 2.2 31.4-1.3 2.9-3.5 2.6-15.6 2.6-15.6 0 0 0.3-12.1-2.6-15.6z"/>
			<path class="s3" d="m140.12 57.62c-4.3 3.7-10.3 9-11.2 10.3-1.4 2-1.2 2.9-1.2 2.9 0 0-0.2 0.9 1.2 2.9 0.9 1.3 6.9 6.6 11.2 10.3q1.67-3.03 2.54-6.38 0.86-3.36 0.86-6.82 0-3.46-0.86-6.82-0.87-3.35-2.54-6.38z"/>
		</g>
		<g>
			<path class="s2" d="m20.62 54.22c-2-1.4-2.9-1.2-2.9-1.2 0 0-0.9-0.2-2.9 1.2-2 1.4-13.6 15-14 15.7-0.4 0.7-2.2 28.5 1.3 31.4 3.5 2.9 15.6 2.6 15.6 2.6 0 0 12.1 0.3 15.6-2.6 3.5-2.9 1.7-30.7 1.3-31.4-0.4-0.7-12-14.3-14-15.7z"/>
			<path class="s3" d="m20.62 54.22c-2-1.4-2.9-1.2-2.9-1.2 0 0-0.9-0.2-2.9 1.2-1.3 0.9-6.6 6.9-10.3 11.2q1.51 0.83 3.12 1.46 1.6 0.63 3.27 1.06 1.67 0.43 3.38 0.65 1.71 0.22 3.43 0.23 1.73 0.01 3.44-0.2 1.71-0.21 3.38-0.64 1.67-0.43 3.27-1.08 1.6-0.64 3.11-1.48c-3.7-4.3-9-10.3-10.3-11.2z"/>
		</g>
	</g>
</svg>