<svg version="1.2" xmlns="http://www.w3.org/2000/svg" viewBox="0 0 264 152" width="264" height="152">
	<style>
		.s0 { fill: #ededed } 
		.s1 { fill: #f7f7f7 } 
		.s2 { fill: #000000 } 
	</style>
	<g>
		<path class="s0" d="m263.7 5.6q-0.18-1.17-0.74-2.2-0.58-1.04-1.47-1.81-0.9-0.77-2-1.18-1.11-0.41-2.29-0.41h-250.6q-1.18-0.01-2.3 0.39-1.11 0.41-2.01 1.18-0.9 0.77-1.46 1.81-0.57 1.05-0.73 2.22-0.03 0.26-0.05 0.52-0.02 0.27-0.04 0.53-0.01 0.26-0.01 0.52-0.01 0.27 0 0.53v127.4c0 2.11 0.41 4.21 1.22 6.16 0.81 1.96 2 3.73 3.49 5.23 1.5 1.49 3.27 2.68 5.23 3.49 1.95 0.81 4.05 1.22 6.16 1.22h231.6c2.11 0 4.21-0.41 6.16-1.22 1.96-0.81 3.73-2 5.23-3.49 1.49-1.5 2.68-3.27 3.49-5.23 0.81-1.95 1.22-4.05 1.22-6.16v-127.4q0.01-0.26 0.01-0.53-0.01-0.26-0.02-0.52-0.01-0.26-0.03-0.53-0.03-0.26-0.06-0.52z"/>
		<g>
			<path class="s1" d="m259.3 1.9q0-0.38-0.14-0.73-0.15-0.35-0.42-0.61-0.26-0.27-0.61-0.42-0.35-0.14-0.73-0.14h-251.1q-0.38 0-0.73 0.14-0.35 0.15-0.61 0.42-0.27 0.26-0.42 0.61-0.14 0.35-0.14 0.73v129.2c0 2.05 0.41 4.08 1.19 5.97 0.79 1.89 1.94 3.61 3.38 5.06 1.45 1.44 3.17 2.59 5.06 3.38 1.89 0.78 3.92 1.19 5.97 1.19h223.8c2.05 0 4.08-0.41 5.97-1.19 1.89-0.79 3.61-1.94 5.06-3.38 1.44-1.45 2.59-3.17 3.38-5.06 0.78-1.89 1.19-3.92 1.19-5.97v-123.2z"/>
			<g style="opacity: .12">
				<path class="s2" d="m4.4 131.1c0 2.05 0.41 4.08 1.19 5.97 0.79 1.89 1.94 3.61 3.38 5.06 1.45 1.44 3.17 2.59 5.06 3.38 1.89 0.78 3.92 1.19 5.97 1.19h223.8c2.05 0 4.08-0.41 5.97-1.19 1.89-0.79 3.61-1.94 5.06-3.38 1.44-1.45 2.59-3.17 3.38-5.06 0.78-1.89 1.19-3.92 1.19-5.97v-106.6h-254.9v106.6z"/>
			</g>
		</g>
	</g>
</svg>