<svg version="1.2" xmlns="http://www.w3.org/2000/svg" viewBox="0 0 200 91" width="200" height="91">
	<style>
		.s0 { fill: #ededed } 
		.s1 { fill: #f5f5f5 } 
		.s2 { fill: #000000 } 
	</style>
	<g>
		<g>
			<path class="s0" d="m200 90.8c0 0-32.7-3.2-50.6-3.2-17.9 0-48.4 2.4-48.4 2.4 0 0 3.1-44.7 4.8-52 1.7-7.3 7.7-21.3 16.9-27.9 9.2-6.6 12-10.1 22.8-10.1 10.8 0 25.4 6.4 34.6 21.4 9.2 15 19.9 69.4 19.9 69.4z"/>
			<path class="s1" d="m101.5 83.2c0 0 26.1-4.4 49-4.4 22.9 0 47.9 4.4 47.9 4.4 1 4.7 1.6 7.6 1.6 7.6 0 0-32.7-3.2-50.6-3.2-17.9 0-48.4 2.4-48.4 2.4 0 0 0.2-2.7 0.5-6.8z"/>
		</g>
		<g style="opacity: .08">
			<path class="s2" d="m151.5 65.7l-3.2 2.6q-0.45 0.44-0.81 0.96-0.36 0.52-0.62 1.1-0.25 0.58-0.4 1.19-0.14 0.62-0.17 1.25h9.8v-2.6h-6.2q0.21-0.29 0.45-0.56 0.23-0.26 0.5-0.5 0.26-0.24 0.55-0.45 0.29-0.21 0.6-0.39 0.37-0.21 0.73-0.45 0.35-0.24 0.69-0.51 0.34-0.26 0.66-0.55 0.32-0.28 0.62-0.59 0.31-0.33 0.56-0.72 0.24-0.38 0.41-0.8 0.17-0.43 0.25-0.88 0.08-0.44 0.08-0.9 0.02-0.46-0.07-0.92-0.08-0.46-0.26-0.89-0.18-0.42-0.45-0.8-0.27-0.38-0.62-0.69-0.36-0.31-0.78-0.54-0.41-0.23-0.86-0.39-0.45-0.15-0.92-0.22-0.47-0.07-0.94-0.05c-3.1 0-4.7 1.7-4.7 5h2.7q0-2.7 2.1-2.7 0.42-0.04 0.82 0.1 0.4 0.15 0.7 0.46 0.29 0.31 0.42 0.71 0.12 0.41 0.06 0.83c0.1 1.1-0.5 2-1.7 2.9z"/>
			<path class="s2" d="m134 67.2h3c1.5 0 2.3 0.6 2.4 1.9 0.1 1.3 0.2 2.5 0.3 3.8h3.3v-0.4c-0.5-0.2-0.7-0.7-0.7-1.5q0-0.1 0-0.2 0.01-0.1 0.02-0.2 0.01-0.1 0.03-0.2 0.02-0.1 0.05-0.2v-0.7q0.06-0.52-0.04-1.04-0.09-0.51-0.33-0.98-0.24-0.47-0.61-0.85-0.36-0.37-0.82-0.63 0.52-0.18 0.96-0.51 0.43-0.34 0.73-0.81 0.3-0.46 0.43-0.99 0.13-0.54 0.08-1.09 0.03-0.43-0.04-0.85-0.07-0.42-0.24-0.81-0.17-0.39-0.43-0.73-0.26-0.34-0.59-0.61-0.34-0.27-0.72-0.47-0.38-0.2-0.79-0.32-0.41-0.13-0.83-0.18-0.43-0.06-0.86-0.03h-7.3v14.3h3zm0-6.2h3.7c1.4 0 2.1 0.6 2.1 1.9 0 1.3-0.8 1.9-2.3 1.9h-3.5z"/>
		</g>
	</g>
	<g>
		<g>
			<path class="s0" d="m0.1 90.8c0 0 32.7-3.2 50.6-3.2 17.9 0 48.3 2.4 48.3 2.4 0 0-3.1-44.7-4.8-52-1.7-7.3-7.7-21.3-16.9-27.9-9.2-6.6-11.9-10.1-22.7-10.1-10.8 0-25.4 6.4-34.6 21.4-9.2 15-19.9 69.4-19.9 69.4z"/>
			<path class="s1" d="m98.5 83.2c0 0-26.1-4.4-49-4.4-22.9 0-47.9 4.4-47.9 4.4-1 4.7-1.6 7.6-1.6 7.6 0 0 32.7-3.2 50.6-3.2 17.9 0 48.4 2.4 48.4 2.4 0 0-0.1-2.7-0.5-6.8z"/>
		</g>
		<g style="opacity: .08">
			<path class="s2" d="m64.6 65.7l-3.2 2.6q-0.45 0.44-0.81 0.96-0.36 0.52-0.62 1.1-0.25 0.58-0.4 1.19-0.14 0.62-0.17 1.25h9.7v-2.6h-6.2q0.21-0.29 0.45-0.56 0.23-0.26 0.5-0.5 0.26-0.24 0.55-0.45 0.29-0.21 0.6-0.39 0.37-0.21 0.73-0.45 0.35-0.24 0.69-0.51 0.34-0.26 0.66-0.55 0.32-0.28 0.62-0.59 0.31-0.33 0.56-0.72 0.24-0.38 0.41-0.8 0.17-0.43 0.25-0.88 0.08-0.44 0.08-0.9 0.02-0.46-0.07-0.92-0.08-0.46-0.26-0.89-0.18-0.42-0.45-0.8-0.27-0.38-0.62-0.69-0.36-0.31-0.78-0.54-0.41-0.23-0.86-0.39-0.45-0.15-0.92-0.22-0.47-0.07-0.94-0.05c-3.1 0-4.7 1.7-4.7 5h2.7q0-2.7 2.1-2.7 0.42-0.04 0.82 0.1 0.4 0.15 0.7 0.46 0.29 0.31 0.42 0.71 0.12 0.41 0.06 0.83 0.02 0.44-0.08 0.86-0.1 0.43-0.31 0.82-0.21 0.38-0.52 0.69-0.31 0.31-0.69 0.53z"/>
			<path fill-rule="evenodd" class="s2" d="m56.1 70.2h-7.1v-11.7h-3v14.3h10.1v-2.6z"/>
		</g>
	</g>
</svg>