<?xml version="1.0" encoding="UTF-8" standalone="no"?>
<svg
   id="Layer_2"
   data-name="Layer 2"
   width="47.36"
   height="47.36"
   viewBox="0 0 47.36 47.36"
   version="1.1"
   sodipodi:docname="a.svg"
   inkscape:version="1.3.2 (091e20e, 2023-11-25, custom)"
   xmlns:inkscape="http://www.inkscape.org/namespaces/inkscape"
   xmlns:sodipodi="http://sodipodi.sourceforge.net/DTD/sodipodi-0.dtd"
   xmlns="http://www.w3.org/2000/svg"
   xmlns:svg="http://www.w3.org/2000/svg">
  <sodipodi:namedview
     id="namedview2"
     pagecolor="#505050"
     bordercolor="#eeeeee"
     borderopacity="1"
     inkscape:showpageshadow="0"
     inkscape:pageopacity="0"
     inkscape:pagecheckerboard="0"
     inkscape:deskcolor="#505050"
     inkscape:zoom="17.335304"
     inkscape:cx="23.68"
     inkscape:cy="23.68"
     inkscape:window-width="1920"
     inkscape:window-height="1017"
     inkscape:window-x="-8"
     inkscape:window-y="-8"
     inkscape:window-maximized="1"
     inkscape:current-layer="Layer_2" />
  <defs
     id="defs1">
    <style
       id="style1">
      .cls-1 {
        fill: #39b54a;
      }

      .cls-1, .cls-2 {
        stroke-width: 0px;
      }

      .cls-2 {
        fill: #141414;
      }
    </style>
  </defs>
  <g
     id="Layer_1-2"
     data-name="Layer 1">
    <g
       id="g2">
      <g
         id="A">
        <path
           class="cls-2"
           d="m23.69,0c13.08,0,23.68,10.61,23.67,23.69,0,13.08-10.61,23.68-23.69,23.67C10.6,47.35,0,36.75,0,23.68,0,10.6,10.61,0,23.69,0Z"
           id="path1" />
      </g>
      <path
         class="cls-1"
         d="m32.45,38.83l-2.78-7.66h-12.13l-2.64,7.66h-5.48l11.46-30.3h5.59l11.53,30.3h-5.55Zm-8.79-25.75h-.13c-.08.74-.23,1.46-.45,2.17l-4.14,11.68h9.3l-4.17-11.68c-.21-.71-.34-1.44-.41-2.17Z"
         id="path2" />
    </g>
  </g>
  <path
     style="fill:#00ffff;stroke-width:0.0576858"
     d="M 9.5432653,38.577909 C 9.5862105,38.458622 12.101081,31.80648 15.131866,23.795372 18.162652,15.784263 20.698218,9.0804581 20.766458,8.8980269 l 0.124073,-0.3316931 h 2.783256 2.783256 l 5.689618,14.9550302 c 3.129291,8.225267 5.716284,15.026669 5.748876,15.114225 l 0.05926,0.159195 -2.749999,-0.01498 -2.749999,-0.01498 -1.341149,-3.69049 c -0.737631,-2.02977 -1.368101,-3.749645 -1.401043,-3.821946 l -0.0599,-0.131456 -6.066032,0.01469 -6.066032,0.01469 -1.312684,3.807259 -1.312684,3.80726 -2.715047,0.01499 -2.7150458,0.01498 z M 28.266017,26.944805 c 0,-0.01281 -0.943977,-2.667071 -2.097726,-5.898368 -1.15375,-3.231297 -2.139329,-6.043816 -2.190177,-6.250042 -0.120104,-0.487116 -0.269271,-1.354113 -0.269271,-1.565072 0,-0.12152 -0.02787,-0.165501 -0.104871,-0.165501 -0.08776,0 -0.115274,0.07775 -0.168635,0.476567 -0.03507,0.262112 -0.120658,0.709897 -0.190195,0.995079 -0.06954,0.285182 -1.070932,3.185706 -2.225324,6.445609 -1.154391,3.259903 -2.098892,5.940127 -2.098892,5.956054 0,0.01593 2.102646,0.02896 4.672546,0.02896 2.5699,0 4.672545,-0.01048 4.672545,-0.02328 z"
     id="path3" />
</svg>
