<?xml version="1.0" encoding="UTF-8" standalone="no"?>
<svg
   id="Layer_2"
   data-name="Layer 2"
   width="47.38"
   height="47.38"
   viewBox="0 0 47.38 47.38"
   version="1.1"
   sodipodi:docname="b.svg"
   inkscape:version="1.3.2 (091e20e, 2023-11-25, custom)"
   xmlns:inkscape="http://www.inkscape.org/namespaces/inkscape"
   xmlns:sodipodi="http://sodipodi.sourceforge.net/DTD/sodipodi-0.dtd"
   xmlns="http://www.w3.org/2000/svg"
   xmlns:svg="http://www.w3.org/2000/svg">
  <sodipodi:namedview
     id="namedview2"
     pagecolor="#505050"
     bordercolor="#eeeeee"
     borderopacity="1"
     inkscape:showpageshadow="0"
     inkscape:pageopacity="0"
     inkscape:pagecheckerboard="0"
     inkscape:deskcolor="#505050"
     inkscape:zoom="17.327986"
     inkscape:cx="23.690001"
     inkscape:cy="23.690001"
     inkscape:window-width="1920"
     inkscape:window-height="1017"
     inkscape:window-x="-8"
     inkscape:window-y="-8"
     inkscape:window-maximized="1"
     inkscape:current-layer="Layer_2" />
  <defs
     id="defs1">
    <style
       id="style1">
      .cls-1 {
        fill: #141414;
      }

      .cls-1, .cls-2 {
        stroke-width: 0px;
      }

      .cls-2 {
        fill: #c1272d;
      }
    </style>
  </defs>
  <g
     id="Layer_1-2"
     data-name="Layer 1">
    <g
       id="g2">
      <g
         id="B">
        <path
           class="cls-1"
           d="m23.69,0c13.08,0,23.69,10.61,23.69,23.69s-10.61,23.69-23.69,23.69S0,36.77,0,23.69C0,10.61,10.61,0,23.69,0Z"
           id="path1" />
      </g>
      <path
         class="cls-2"
         d="m33.9,30c.07,2.47-1.01,4.83-2.93,6.39-2.15,1.69-4.83,2.55-7.56,2.43h-9.91V8.53h9.57c2.43-.12,4.84.54,6.87,1.88,1.63,1.17,2.58,3.08,2.52,5.09.02,1.58-.51,3.12-1.5,4.35-1.02,1.28-2.42,2.22-4,2.67v.09c1.93.16,3.75,1.01,5.11,2.39,1.22,1.37,1.88,3.16,1.83,5Zm-6.77-13.53c.05-1.09-.45-2.14-1.33-2.79-1.2-.74-2.6-1.09-4-1h-3.26v8.39h3.23c1.43.1,2.86-.33,4-1.2.94-.87,1.44-2.12,1.36-3.4Zm1.48,13.4c.06-1.32-.52-2.59-1.55-3.41-1.39-.9-3.03-1.32-4.68-1.2h-3.84v9.41h4.24c1.52.09,3.03-.38,4.24-1.31,1.05-.85,1.64-2.14,1.59-3.49Z"
         id="path2" />
    </g>
  </g>
  <path
     style="fill:#00ffff;stroke-width:0.0577101"
     d="M 13.504166,23.693423 V 8.571209 l 5.035207,-0.015056 c 2.769364,-0.00828 5.392447,0.0038 5.829075,0.026845 1.847935,0.097535 3.855691,0.7478607 5.383542,1.743765 1.216469,0.792934 2.119229,2.073578 2.505333,3.554035 0.160501,0.615416 0.219196,1.833048 0.12311,2.553934 -0.356,2.670904 -2.329189,4.994969 -5.040268,5.936539 -0.385336,0.133828 -0.5173,0.279949 -0.252827,0.279949 0.308165,0 1.198336,0.190628 1.747595,0.374243 1.462893,0.489041 2.813665,1.415752 3.602131,2.471281 0.418496,0.560244 0.982594,1.683728 1.150141,2.290675 0.582076,2.108588 0.287033,4.581743 -0.76076,6.376968 -1.329122,2.277235 -3.811067,3.867132 -7.00117,4.484843 -0.616805,0.119434 -0.80055,0.123538 -6.47796,0.144665 l -5.843149,0.02174 z m 10.56095,10.935398 c 1.354703,-0.205412 2.575492,-0.806794 3.385201,-1.667607 0.482373,-0.512818 0.72877,-0.918778 0.9594,-1.580694 0.155911,-0.447471 0.178986,-0.598516 0.200671,-1.313552 0.02961,-0.976319 -0.05743,-1.463198 -0.38172,-2.135274 -0.568814,-1.178834 -1.38663,-1.825839 -2.956185,-2.338745 -1.063374,-0.347494 -1.411495,-0.37432 -4.626691,-0.356518 l -2.120846,0.01174 v 4.732229 4.732229 l 2.495962,-3.41e-4 c 1.879127,-2.55e-4 2.631452,-0.02088 3.044208,-0.08347 z M 23.34374,20.983767 c 1.945582,-0.403667 3.226393,-1.506486 3.674257,-3.163651 0.164165,-0.607439 0.177413,-1.842196 0.02525,-2.353806 -0.422139,-1.419374 -1.550662,-2.286775 -3.489147,-2.681813 -0.518901,-0.105745 -0.791198,-0.117128 -2.801958,-0.117128 h -2.227201 v 4.212838 4.212839 l 2.149701,-7.59e-4 c 1.872916,-6.6e-4 2.216576,-0.01463 2.669093,-0.10852 z"
     id="path3" />
</svg>
