<?xml version="1.0" encoding="UTF-8" standalone="no"?>
<svg
   id="Layer_2"
   data-name="Layer 2"
   width="47.38"
   height="47.38"
   viewBox="0 0 47.38 47.38"
   version="1.1"
   sodipodi:docname="x.svg"
   inkscape:version="1.3.2 (091e20e, 2023-11-25, custom)"
   xmlns:inkscape="http://www.inkscape.org/namespaces/inkscape"
   xmlns:sodipodi="http://sodipodi.sourceforge.net/DTD/sodipodi-0.dtd"
   xmlns="http://www.w3.org/2000/svg"
   xmlns:svg="http://www.w3.org/2000/svg">
  <sodipodi:namedview
     id="namedview2"
     pagecolor="#505050"
     bordercolor="#eeeeee"
     borderopacity="1"
     inkscape:showpageshadow="0"
     inkscape:pageopacity="0"
     inkscape:pagecheckerboard="0"
     inkscape:deskcolor="#505050"
     inkscape:zoom="6.1263682"
     inkscape:cx="1.7139029"
     inkscape:cy="27.830518"
     inkscape:window-width="1920"
     inkscape:window-height="1017"
     inkscape:window-x="-8"
     inkscape:window-y="-8"
     inkscape:window-maximized="1"
     inkscape:current-layer="Layer_2" />
  <defs
     id="defs1">
    <style
       id="style1">
      .cls-1 {
        fill: #141414;
      }

      .cls-1, .cls-2 {
        stroke-width: 0px;
      }

      .cls-2 {
        fill: #0071bc;
      }
    </style>
  </defs>
  <g
     id="Layer_1-2"
     data-name="Layer 1">
    <g
       id="g2">
      <g
         id="X">
        <path
           class="cls-1"
           d="m23.68,0c13.08,0,23.69,10.6,23.7,23.68,0,13.08-10.6,23.69-23.68,23.7C10.62,47.39,0,36.78,0,23.7h0C0,10.61,10.6.01,23.68,0Z"
           id="path1" />
      </g>
      <path
         class="cls-2"
         d="m30.8,38.83l-6.41-11c-.12-.24-.22-.5-.3-.76-.05-.26-.13-.51-.22-.76h-.09c-.11.27-.19.52-.27.77-.09.26-.2.51-.33.75l-6.53,11h-6.12l10.14-15.19-9.26-15.11h6.19l5.4,10c.42.71.76,1.48,1,2.27h.08c.3-.79.53-1.31.65-1.56s2.21-3.8,6.27-10.66h5.68l-9.46,15,9.58,15.28-6-.03Z"
         id="path2" />
    </g>
  </g>
  <path
     style="fill:#00ffff;stroke-width:0.0577101"
     d="m 10.61866,38.781542 c 0,-0.01625 2.259351,-3.418413 5.02078,-7.560372 2.761429,-4.141959 5.02078,-7.557067 5.02078,-7.589129 0,-0.03206 -2.017221,-3.349748 -4.482713,-7.372634 C 13.712015,12.23652 11.644736,8.8604372 11.583553,8.7570006 l -0.111242,-0.1880666 3.067936,0.014936 3.067935,0.014936 2.714522,5.020779 c 2.951991,5.460005 3.247911,6.029573 3.492561,6.722279 0.16557,0.468798 0.266972,0.567981 0.340225,0.332783 0.13299,-0.427002 0.656034,-1.530841 1.037953,-2.190512 0.244273,-0.421922 1.65125,-2.812233 3.126614,-5.311802 l 2.682482,-4.5446719 h 2.792836 c 1.536059,0 2.792835,0.011639 2.792835,0.025865 0,0.020594 -3.233926,5.1575419 -9.005033,14.3040939 l -0.393598,0.623807 0.333566,0.530395 c 2.696428,4.287514 9.180486,14.649274 9.180486,14.670749 0,0.01569 -1.327594,0.0218 -2.950208,0.01357 l -2.950209,-0.01495 -2.793437,-4.78994 c -3.896883,-6.682029 -3.685194,-6.301067 -3.922144,-7.058448 -0.127319,-0.406963 -0.229725,-0.644137 -0.272049,-0.630073 -0.03733,0.0124 -0.161176,0.280117 -0.275213,0.594917 -0.114036,0.314799 -0.275312,0.70221 -0.358391,0.860912 -0.08308,0.158703 -1.587241,2.703719 -3.342583,5.655591 l -3.19153,5.367041 -3.014603,0.01494 c -1.658032,0.0082 -3.014604,0.0016 -3.014604,-0.01459 z"
     id="path3" />
</svg>
