<?xml version="1.0" encoding="UTF-8" standalone="no"?>
<svg
   id="Layer_1"
   data-name="Layer 1"
   width="806.1"
   height="598.97"
   viewBox="0 0 806.1 598.97"
   version="1.1"
   sodipodi:docname="base.svg"
   inkscape:version="1.3.2 (091e20e, 2023-11-25, custom)"
   xmlns:inkscape="http://www.inkscape.org/namespaces/inkscape"
   xmlns:sodipodi="http://sodipodi.sourceforge.net/DTD/sodipodi-0.dtd"
   xmlns="http://www.w3.org/2000/svg"
   xmlns:svg="http://www.w3.org/2000/svg">
  <sodipodi:namedview
     id="namedview134"
     pagecolor="#505050"
     bordercolor="#eeeeee"
     borderopacity="1"
     inkscape:showpageshadow="0"
     inkscape:pageopacity="0"
     inkscape:pagecheckerboard="0"
     inkscape:deskcolor="#505050"
     inkscape:zoom="1.3706864"
     inkscape:cx="365.14552"
     inkscape:cy="259.35911"
     inkscape:window-width="1920"
     inkscape:window-height="1017"
     inkscape:window-x="-8"
     inkscape:window-y="-8"
     inkscape:window-maximized="1"
     inkscape:current-layer="Layer_1" />
  <defs
     id="defs37">
    <style
       id="style1">
      .cls-1 {
        fill: none;
      }

      .cls-2 {
        fill: #b3b3b3;
      }

      .cls-3 {
        fill: #0d0e13;
      }

      .cls-4 {
        opacity: 0.06;
      }

      .cls-5 {
        fill: #fff;
      }

      .cls-6 {
        fill: #13161f;
      }

      .cls-7 {
        fill: #0f1015;
      }

      .cls-8 {
        fill: #121212;
      }

      .cls-9 {
        fill: #080808;
      }

      .cls-10 {
        fill: #1f1f1f;
      }

      .cls-11 {
        fill: #e6e6e6;
        opacity: 0.1;
      }

      .cls-11, .cls-12, .cls-13, .cls-14, .cls-17 {
        isolation: isolate;
      }

      .cls-12, .cls-14, .cls-29 {
        opacity: 0.08;
      }

      .cls-12 {
        fill: url(#SVGID_4_);
      }

      .cls-13 {
        opacity: 0.22;
      }

      .cls-14 {
        fill: url(#SVGID_5_);
      }

      .cls-15 {
        fill: #10111a;
      }

      .cls-16 {
        fill: #1a1a1a;
      }

      .cls-17 {
        opacity: 0.25;
      }

      .cls-18 {
        opacity: 0.12;
      }

      .cls-19 {
        fill: #0b0b0f;
      }

      .cls-20 {
        fill: url(#SVGID_6_);
      }

      .cls-21 {
        fill: #0f0f0f;
      }

      .cls-22 {
        fill: #f66;
      }

      .cls-23 {
        fill: #7cb2e8;
      }

      .cls-24 {
        fill: #ff69f8;
      }

      .cls-25 {
        fill: #40e2a0;
      }

      .cls-26 {
        fill: #050505;
        stroke: #000;
        stroke-miterlimit: 10;
        stroke-width: 2px;
      }

      .cls-27 {
        fill: #f2f2f2;
      }

      .cls-28 {
        fill: #0a0a0a;
      }

      .cls-30 {
        fill: #ccc;
      }
    </style>
    <pattern
       id="SVGID_4_"
       data-name="SVGID 4 "
       width="40"
       height="103"
       patternTransform="translate(-10082.69 7243.51) rotate(16) scale(0.34)"
       patternUnits="userSpaceOnUse"
       viewBox="0 0 40 103">
      <rect
         class="cls-1"
         width="40"
         height="103"
         id="rect1" />
      <g
         id="g18">
        <polygon
           class="cls-1"
           points="0 0 40 0 40 103 0 103 0 0"
           id="polygon1" />
        <g
           id="g17">
          <polygon
             class="cls-1"
             points="0 0 40 0 40 103 0 103 0 0"
             id="polygon2" />
          <polygon
             points="34.5 231.8 37.5 231.8 37.5 77.3 34.5 77.3 34.5 231.8"
             id="polygon3" />
          <polygon
             points="26.5 231.8 29.5 231.8 29.5 77.3 26.5 77.3 26.5 231.8"
             id="polygon4" />
          <polygon
             points="18.5 231.8 21.5 231.8 21.5 77.3 18.5 77.3 18.5 231.8"
             id="polygon5" />
          <polygon
             points="10.5 231.8 13.5 231.8 13.5 77.3 10.5 77.3 10.5 231.8"
             id="polygon6" />
          <polygon
             points="2.5 231.8 5.5 231.8 5.5 77.3 2.5 77.3 2.5 231.8"
             id="polygon7" />
          <polygon
             points="34.5 128.8 37.5 128.8 37.5 -25.7 34.5 -25.7 34.5 128.8"
             id="polygon8" />
          <polygon
             points="26.5 128.8 29.5 128.8 29.5 -25.7 26.5 -25.7 26.5 128.8"
             id="polygon9" />
          <polygon
             points="18.5 128.8 21.5 128.8 21.5 -25.7 18.5 -25.7 18.5 128.8"
             id="polygon10" />
          <polygon
             points="10.5 128.8 13.5 128.8 13.5 -25.7 10.5 -25.7 10.5 128.8"
             id="polygon11" />
          <polygon
             points="2.5 128.8 5.5 128.8 5.5 -25.7 2.5 -25.7 2.5 128.8"
             id="polygon12" />
          <polygon
             points="34.5 25.8 37.5 25.8 37.5 -128.7 34.5 -128.7 34.5 25.8"
             id="polygon13" />
          <polygon
             points="26.5 25.8 29.5 25.8 29.5 -128.7 26.5 -128.7 26.5 25.8"
             id="polygon14" />
          <polygon
             points="18.5 25.8 21.5 25.8 21.5 -128.7 18.5 -128.7 18.5 25.8"
             id="polygon15" />
          <polygon
             points="10.5 25.8 13.5 25.8 13.5 -128.7 10.5 -128.7 10.5 25.8"
             id="polygon16" />
          <polygon
             points="2.5 25.8 5.5 25.8 5.5 -128.7 2.5 -128.7 2.5 25.8"
             id="polygon17" />
        </g>
      </g>
    </pattern>
    <pattern
       id="SVGID_5_"
       data-name="SVGID 5 "
       width="40"
       height="103"
       patternTransform="matrix(-0.33, 0.09, 0.09, 0.33, -21062.21, 7272.07)"
       patternUnits="userSpaceOnUse"
       viewBox="0 0 40 103">
      <rect
         class="cls-1"
         width="40"
         height="103"
         id="rect18" />
      <g
         id="g35">
        <polygon
           class="cls-1"
           points="0 0 40 0 40 103 0 103 0 0"
           id="polygon18" />
        <g
           id="g34">
          <polygon
             class="cls-1"
             points="0 0 40 0 40 103 0 103 0 0"
             id="polygon19" />
          <polygon
             points="34.5 231.8 37.5 231.8 37.5 77.3 34.5 77.3 34.5 231.8"
             id="polygon20" />
          <polygon
             points="26.5 231.8 29.5 231.8 29.5 77.3 26.5 77.3 26.5 231.8"
             id="polygon21" />
          <polygon
             points="18.5 231.8 21.5 231.8 21.5 77.3 18.5 77.3 18.5 231.8"
             id="polygon22" />
          <polygon
             points="10.5 231.8 13.5 231.8 13.5 77.3 10.5 77.3 10.5 231.8"
             id="polygon23" />
          <polygon
             points="2.5 231.8 5.5 231.8 5.5 77.3 2.5 77.3 2.5 231.8"
             id="polygon24" />
          <polygon
             points="34.5 128.8 37.5 128.8 37.5 -25.7 34.5 -25.7 34.5 128.8"
             id="polygon25" />
          <polygon
             points="26.5 128.8 29.5 128.8 29.5 -25.7 26.5 -25.7 26.5 128.8"
             id="polygon26" />
          <polygon
             points="18.5 128.8 21.5 128.8 21.5 -25.7 18.5 -25.7 18.5 128.8"
             id="polygon27" />
          <polygon
             points="10.5 128.8 13.5 128.8 13.5 -25.7 10.5 -25.7 10.5 128.8"
             id="polygon28" />
          <polygon
             points="2.5 128.8 5.5 128.8 5.5 -25.7 2.5 -25.7 2.5 128.8"
             id="polygon29" />
          <polygon
             points="34.5 25.8 37.5 25.8 37.5 -128.7 34.5 -128.7 34.5 25.8"
             id="polygon30" />
          <polygon
             points="26.5 25.8 29.5 25.8 29.5 -128.7 26.5 -128.7 26.5 25.8"
             id="polygon31" />
          <polygon
             points="18.5 25.8 21.5 25.8 21.5 -128.7 18.5 -128.7 18.5 25.8"
             id="polygon32" />
          <polygon
             points="10.5 25.8 13.5 25.8 13.5 -128.7 10.5 -128.7 10.5 25.8"
             id="polygon33" />
          <polygon
             points="2.5 25.8 5.5 25.8 5.5 -128.7 2.5 -128.7 2.5 25.8"
             id="polygon34" />
        </g>
      </g>
    </pattern>
    <pattern
       id="SVGID_6_"
       data-name="SVGID 6 "
       width="71"
       height="71"
       patternTransform="translate(-13881.41 2292.1) scale(0.1)"
       patternUnits="userSpaceOnUse"
       viewBox="0 0 71 71">
      <rect
         class="cls-1"
         width="71"
         height="71"
         id="rect35" />
      <g
         id="g37">
        <polygon
           class="cls-1"
           points="0 0 71 0 71 71 0 71 0 0"
           id="polygon35" />
        <g
           id="g36">
          <polygon
             class="cls-1"
             points="0 0 71 0 71 71 0 71 0 0"
             id="polygon36" />
          <path
             class="cls-2"
             d="M41.8,35.5a6.3,6.3,0,1,1-6.3-6.3A6.27,6.27,0,0,1,41.8,35.5Z"
             id="path36" />
        </g>
      </g>
    </pattern>
  </defs>
  <g
     id="g48">
    <path
       class="cls-3"
       d="M801.3,418.6c-2.9-15.5-17.7-102.5-32-144.6-9.4-27.7-13.1-53-17-64.9-12-35.7-33-65.7-33-65.7s-9.5-13.1-10.1-16.3-4.7-8.6-4.7-8.6-17.4-5.7-62.3-5.7-53.7,5-53.7,5a22.51,22.51,0,0,1-5.9,4.8c-3.5,1.8-11.7,1.7-11.7,1.7H537.5a1,1,0,0,0-.9.3,5.3,5.3,0,0,0-.6,2H269.9a7.13,7.13,0,0,0-.6-2,1.06,1.06,0,0,0-.9-.3H235s-8.2.2-11.7-1.7a20.51,20.51,0,0,1-5.9-4.8s-8.8-5-53.7-5-62.3,5.7-62.3,5.7-4.1,5.3-4.7,8.6-10.1,16.3-10.1,16.3-21,30-33,65.7c-4,11.9-7.7,37.2-17,64.9C22.3,316.1,7.5,403.1,4.6,418.6.3,441.8,0,508.8,0,508.8s4.5,53.4,36.2,74.9,56.7,14,56.7,14,33.1-8.2,57.8-41.9,56.6-129.2,56.6-129.2a24.5,24.5,0,0,1,5.7-5.3,15.79,15.79,0,0,1,6.3-2.6l183.7.1,183.7-.1a15.79,15.79,0,0,1,6.3,2.6,24.5,24.5,0,0,1,5.7,5.3s31.9,95.4,56.6,129.2,57.8,41.9,57.8,41.9,25,7.5,56.7-14S806,508.8,806,508.8,805.7,441.8,801.3,418.6Z"
       transform="translate(0 0)"
       id="path37"
       style="fill:#008080" />
    <g
       class="cls-4"
       id="g38">
      <path
         class="cls-5"
         d="M36.6,276c9.4-27.7,13.1-53,17-64.9,12-35.7,33-65.7,33-65.7s9.5-13.1,10.1-16.3,4.7-8.6,4.7-8.6,17.4-5.7,62.3-5.7,53.7,5,53.7,5a22.51,22.51,0,0,0,5.9,4.8c3.5,1.8,11.7,1.7,11.7,1.7h33.4a1,1,0,0,1,.9.3,5.3,5.3,0,0,1,.6,2H536.1a7.13,7.13,0,0,1,.6-2,1.06,1.06,0,0,1,.9-.3H571s8.2.2,11.7-1.7a20.51,20.51,0,0,0,5.9-4.8s8.8-5,53.7-5,62.3,5.7,62.3,5.7,4.1,5.3,4.7,8.6,10.1,16.3,10.1,16.3,21,30,33,65.7c4,11.9,7.7,37.2,17,64.9,14.3,42.1,29.1,129.1,32,144.6,3.9,20.9,4.6,77.3,4.7,88.3v-.1s-.3-66.9-4.7-90.1c-2.9-15.5-17.7-102.5-32-144.6-9.4-27.7-13.1-53-17-64.9-12-35.7-33-65.7-33-65.7s-9.5-13.1-10.1-16.3-4.7-8.6-4.7-8.6-17.4-5.7-62.3-5.7-53.7,5-53.7,5a22.51,22.51,0,0,1-5.9,4.8c-3.5,1.8-11.7,1.7-11.7,1.7H537.6a1,1,0,0,0-.9.3,5.3,5.3,0,0,0-.6,2H269.9a7.13,7.13,0,0,0-.6-2,1.06,1.06,0,0,0-.9-.3H235s-8.2.2-11.7-1.7a20.51,20.51,0,0,1-5.9-4.8s-8.8-5-53.7-5-62.3,5.7-62.3,5.7-4.1,5.3-4.7,8.6-10.1,16.3-10.1,16.3-21,30-33,65.7c-4,11.9-7.7,37.2-17,64.9C22.3,316.2,7.5,403.2,4.6,418.7.3,441.8,0,508.8,0,508.8v.1c.1-10.9.7-67.4,4.7-88.3C7.6,405.2,22.3,318.1,36.6,276Z"
         transform="translate(0 0)"
         id="path38" />
    </g>
    <path
       class="cls-6"
       d="M351.2,360a76.5,76.5,0,0,0-153,0,13.4,13.4,0,0,0,.1,2c0,.7-.1,1.3-.1,2a76.5,76.5,0,0,0,153,0,13.4,13.4,0,0,0-.1-2C351.1,361.3,351.2,360.6,351.2,360Z"
       transform="translate(0 0)"
       id="path39"
       style="fill:#00ffcc" />
    <circle
       class="cls-7"
       cx="274.7"
       cy="356"
       r="73"
       id="circle39"
       style="fill:#008080" />
    <circle
       cx="274.7"
       cy="356"
       r="51.5"
       id="circle40" />
    <path
       class="cls-6"
       d="M607.8,360a76.5,76.5,0,0,0-153,0,13.4,13.4,0,0,0,.1,2c0,.7-.1,1.3-.1,2a76.5,76.5,0,0,0,153,0,13.4,13.4,0,0,0-.1-2A14.08,14.08,0,0,0,607.8,360Z"
       transform="translate(0 0)"
       id="path40"
       style="fill:#00ffcc" />
    <circle
       class="cls-7"
       cx="531.3"
       cy="356"
       r="73"
       id="circle41"
       style="fill:#008080" />
    <circle
       cx="531.3"
       cy="356"
       r="51.5"
       id="circle42" />
    <path
       class="cls-8"
       d="M534.8,128a6.57,6.57,0,0,0-6.5-5.6H277.7a6.48,6.48,0,0,0-6.5,5.6,14.77,14.77,0,0,0-.1,2.1V257.5a16.09,16.09,0,0,0,16.1,16.1H518.8a16.09,16.09,0,0,0,16.1-16.1V130.1A7.41,7.41,0,0,0,534.8,128Z"
       transform="translate(0 0)"
       id="path42"
       style="fill:#00ffcc" />
    <circle
       class="cls-9"
       cx="652.3"
       cy="244.8"
       r="94.3"
       id="circle43" />
    <g
       id="g47">
      <circle
         class="cls-9"
         cx="153.7"
         cy="244.8"
         r="94.3"
         id="circle44" />
      <path
         class="cls-10"
         d="M230.4,254.1l9.5-8.9a1.15,1.15,0,0,0,0-1.7l-9.5-8.9a1.12,1.12,0,0,0-1.9.8v17.8A1.15,1.15,0,0,0,230.4,254.1Z"
         transform="translate(0 0)"
         id="path44" />
      <path
         class="cls-10"
         d="M145,169.8h17.8a1.12,1.12,0,0,0,.8-1.9l-8.9-9.5a1.15,1.15,0,0,0-1.7,0l-8.9,9.5A1.17,1.17,0,0,0,145,169.8Z"
         transform="translate(0 0)"
         id="path45" />
      <path
         class="cls-10"
         d="M77.5,234.6,68,243.5a1.15,1.15,0,0,0,0,1.7l9.5,8.9a1.12,1.12,0,0,0,1.9-.8V235.5A1.13,1.13,0,0,0,77.5,234.6Z"
         transform="translate(0 0)"
         id="path46" />
      <path
         class="cls-10"
         d="M162.8,318.8H145a1.12,1.12,0,0,0-.8,1.9l8.9,9.5a1.15,1.15,0,0,0,1.7,0l8.9-9.5A1.17,1.17,0,0,0,162.8,318.8Z"
         transform="translate(0 0)"
         id="path47" />
    </g>
  </g>
  <g
     id="g67">
    <g
       id="g50">
      <path
         class="cls-11"
         d="M105.2,544.5c-40.5-2.8-75.8-20.3-87.3-30.5S.4,482.4.4,482.4c-.4,15-.4,26.3-.4,26.3s4.5,53.4,36.2,74.9,56.7,14,56.7,14,33.1-8.2,57.8-41.9a192.08,192.08,0,0,0,14.1-23.8C164.7,531.9,145.6,547.2,105.2,544.5Z"
         transform="translate(0 0)"
         id="path48" />
      <path
         class="cls-12"
         d="M105.2,544.5c-40.5-2.8-75.8-20.3-87.3-30.5S.4,482.4.4,482.4c-.4,15-.4,26.3-.4,26.3s4.5,53.4,36.2,74.9,56.7,14,56.7,14,33.1-8.2,57.8-41.9a192.08,192.08,0,0,0,14.1-23.8C164.7,531.9,145.6,547.2,105.2,544.5Z"
         transform="translate(0 0)"
         id="path49"
         style="fill:#00ffcc" />
      <path
         class="cls-13"
         d="M90,592.5c-12.5,1.8-31.3-2-45.1-7.7-13.6-5.7-24-16.4-24-16.4a63.12,63.12,0,0,0,15.3,15.2c31.7,21.5,56.7,14,56.7,14s11.7-2.9,26.3-12.3A168.54,168.54,0,0,1,90,592.5Z"
         transform="translate(0 0)"
         id="path50" />
    </g>
    <g
       id="g53">
      <path
         class="cls-11"
         d="M700.8,544.5c40.5-2.8,75.8-20.3,87.3-30.5s17.5-31.5,17.5-31.5c.4,15,.4,26.3.4,26.3s-4.5,53.4-36.2,74.9-56.7,14-56.7,14-33.1-8.2-57.8-41.9A192.08,192.08,0,0,1,641.2,532C641.3,531.9,660.4,547.2,700.8,544.5Z"
         transform="translate(0 0)"
         id="path51" />
      <path
         class="cls-14"
         d="M700.8,544.5c40.5-2.8,75.8-20.3,87.3-30.5s17.5-31.5,17.5-31.5c.4,15,.4,26.3.4,26.3s-4.5,53.4-36.2,74.9-56.7,14-56.7,14-33.1-8.2-57.8-41.9A192.08,192.08,0,0,1,641.2,532C641.3,531.9,660.4,547.2,700.8,544.5Z"
         transform="translate(0 0)"
         id="path52"
         style="fill:#00ffcc" />
      <path
         class="cls-13"
         d="M716,592.5c12.5,1.8,31.3-2,45.1-7.7,13.6-5.7,24-16.4,24-16.4a63.12,63.12,0,0,1-15.3,15.2c-31.7,21.5-56.7,14-56.7,14s-11.7-2.9-26.3-12.3A168.54,168.54,0,0,0,716,592.5Z"
         transform="translate(0 0)"
         id="path53" />
    </g>
    <g
       id="g55">
      <path
         d="M240.5,143.5A12.5,12.5,0,0,1,253,156v18.3a12.5,12.5,0,0,1-25,0V156a12.5,12.5,0,0,1,12.5-12.5m0-1.7A14.25,14.25,0,0,0,226.3,156v18.3a14.2,14.2,0,0,0,28.4,0V156a14.19,14.19,0,0,0-14.2-14.2Z"
         transform="translate(0 0)"
         id="path54"
         style="fill:#00ffcc" />
      <path
         class="cls-15"
         d="M240.5,143.5A12.5,12.5,0,0,0,228,156v18.3a12.5,12.5,0,0,0,25,0V156A12.5,12.5,0,0,0,240.5,143.5Z"
         transform="translate(0 0)"
         id="path55"
         style="fill:#008080" />
    </g>
    <g
       id="g57">
      <path
         d="M565.5,143.5A12.5,12.5,0,0,1,578,156v18.3a12.5,12.5,0,0,1-12.5,12.5h0A12.5,12.5,0,0,1,553,174.3V156a12.5,12.5,0,0,1,12.5-12.5h0m0-1.7A14.25,14.25,0,0,0,551.3,156v18.3a14.2,14.2,0,0,0,28.4,0V156a14.19,14.19,0,0,0-14.2-14.2Z"
         transform="translate(0 0)"
         id="path56"
         style="fill:#00ffcc" />
      <path
         class="cls-15"
         d="M565.5,143.5A12.5,12.5,0,0,0,553,156v18.3a12.5,12.5,0,0,0,25,0V156A12.5,12.5,0,0,0,565.5,143.5Z"
         transform="translate(0 0)"
         id="path57"
         style="fill:#008080" />
    </g>
    <g
       id="g66">
      <g
         id="g59">
        <path
           class="cls-16"
           d="M141.2,247.2c1.4-2,1.2-2.9,1.2-2.9s.2-.9-1.2-2.9-15-13.6-15.7-14-28.5-2.2-31.4,1.3-2.6,15.6-2.6,15.6-.3,12.1,2.6,15.6,30.7,1.7,31.4,1.3S139.8,249.2,141.2,247.2Z"
           transform="translate(0 0)"
           id="path58" />
        <path
           class="cls-17"
           d="M141.2,247.2c1.4-2,1.2-2.9,1.2-2.9s.2-.9-1.2-2.9c-.9-1.3-6.9-6.6-11.2-10.3a27.84,27.84,0,0,0-3.4,13.2,26.73,26.73,0,0,0,3.4,13.2C134.3,253.8,140.3,248.5,141.2,247.2Z"
           transform="translate(0 0)"
           id="path59" />
      </g>
      <g
         id="g61">
        <path
           class="cls-16"
           d="M151,231.6c2,1.4,2.9,1.2,2.9,1.2s.9.2,2.9-1.2,13.6-15,14-15.7,2.2-28.5-1.3-31.4-15.6-2.6-15.6-2.6-12.1-.3-15.6,2.6-1.7,30.7-1.3,31.4S149,230.2,151,231.6Z"
           transform="translate(0 0)"
           id="path60" />
        <path
           class="cls-17"
           d="M151,231.6c2,1.4,2.9,1.2,2.9,1.2s.9.2,2.9-1.2c1.3-.9,6.6-6.9,10.3-11.2a27.84,27.84,0,0,0-13.2-3.4,26.73,26.73,0,0,0-13.2,3.4C144.5,224.7,149.7,230.7,151,231.6Z"
           transform="translate(0 0)"
           id="path61" />
      </g>
      <g
         id="g63">
        <path
           class="cls-16"
           d="M213.7,228.8c-2.9-3.5-30.7-1.7-31.4-1.3s-14.3,12-15.7,14-1.2,2.9-1.2,2.9-.2.9,1.2,2.9,15,13.6,15.7,14,28.5,2.2,31.4-1.3,2.6-15.6,2.6-15.6S216.6,232.3,213.7,228.8Z"
           transform="translate(0 0)"
           id="path62" />
        <path
           class="cls-17"
           d="M177.9,231.2c-4.3,3.7-10.3,9-11.2,10.3-1.4,2-1.2,2.9-1.2,2.9s-.2.9,1.2,2.9c.9,1.3,6.9,6.6,11.2,10.3a27.32,27.32,0,0,0,0-26.4Z"
           transform="translate(0 0)"
           id="path63" />
      </g>
      <g
         id="g65">
        <path
           class="cls-16"
           d="M156.8,257.1c-2-1.4-2.9-1.2-2.9-1.2s-.9-.2-2.9,1.2-13.6,15-14,15.7-2.2,28.5,1.3,31.4,15.6,2.6,15.6,2.6,12.1.3,15.6-2.6,1.7-30.7,1.3-31.4S158.8,258.5,156.8,257.1Z"
           transform="translate(0 0)"
           id="path64" />
        <path
           class="cls-17"
           d="M156.8,257.1c-2-1.4-2.9-1.2-2.9-1.2s-.9-.2-2.9,1.2c-1.3.9-6.6,6.9-10.3,11.2a27.84,27.84,0,0,0,13.2,3.4,26.73,26.73,0,0,0,13.2-3.4C163.4,264,158.1,258,156.8,257.1Z"
           transform="translate(0 0)"
           id="path65" />
      </g>
    </g>
  </g>
  <g
     id="g79">
    <g
       id="g73">
      <circle
         cx="403"
         cy="316.4"
         r="4.1"
         id="circle67" />
      <circle
         cx="403"
         cy="295.5"
         r="4.1"
         id="circle68" />
      <circle
         cx="396.1"
         cy="305.7"
         r="4.1"
         id="circle69" />
      <circle
         cx="381.4"
         cy="305.7"
         r="4.1"
         id="circle70" />
      <circle
         cx="388.7"
         cy="316.4"
         r="4.1"
         id="circle71" />
      <circle
         cx="388.7"
         cy="295.5"
         r="4.1"
         id="circle72" />
      <circle
         cx="374.4"
         cy="295.5"
         r="4.1"
         id="circle73" />
    </g>
    <g
       id="g78">
      <circle
         cx="409.9"
         cy="305.7"
         r="4.1"
         id="circle74" />
      <circle
         cx="424.6"
         cy="305.7"
         r="4.1"
         id="circle75" />
      <circle
         cx="417.2"
         cy="316.4"
         r="4.1"
         transform="translate(38.06 677.53) rotate(-80.78)"
         id="circle76" />
      <circle
         cx="417.2"
         cy="295.5"
         r="4.1"
         transform="translate(58.69 659.98) rotate(-80.78)"
         id="circle77" />
      <circle
         cx="431.6"
         cy="295.5"
         r="4.1"
         id="circle78" />
    </g>
  </g>
  <g
     class="cls-18"
     id="g90">
    <path
       class="cls-5"
       d="M403,319.5a4.19,4.19,0,0,1-4.1-3.6c0,.2-.1.3-.1.5a4.1,4.1,0,0,0,8.2,0,.9.9,0,0,0-.1-.5A3.85,3.85,0,0,1,403,319.5Z"
       transform="translate(0 0)"
       id="path79" />
    <path
       class="cls-5"
       d="M403,299.6a4.06,4.06,0,0,0,4.1-4.1.9.9,0,0,0-.1-.5,4.12,4.12,0,0,1-4.1,3.6,4.19,4.19,0,0,1-4.1-3.6c0,.2-.1.3-.1.5A4.44,4.44,0,0,0,403,299.6Z"
       transform="translate(0 0)"
       id="path80" />
    <path
       class="cls-5"
       d="M400.2,305.7a.9.9,0,0,0-.1-.5,4.12,4.12,0,0,1-4.1,3.6,4.19,4.19,0,0,1-4.1-3.6c0,.2-.1.3-.1.5a4.06,4.06,0,0,0,4.1,4.1A4.17,4.17,0,0,0,400.2,305.7Z"
       transform="translate(0 0)"
       id="path81" />
    <path
       class="cls-5"
       d="M385.4,305.2a4.12,4.12,0,0,1-4.1,3.6,4.19,4.19,0,0,1-4.1-3.6c0,.2-.1.3-.1.5a4.1,4.1,0,0,0,8.2,0C385.5,305.5,385.5,305.4,385.4,305.2Z"
       transform="translate(0 0)"
       id="path82" />
    <path
       class="cls-5"
       d="M388.8,319.5a4.19,4.19,0,0,1-4.1-3.6c0,.2-.1.3-.1.5a4.1,4.1,0,0,0,8.2,0,.9.9,0,0,0-.1-.5A3.85,3.85,0,0,1,388.8,319.5Z"
       transform="translate(0 0)"
       id="path83" />
    <path
       class="cls-5"
       d="M388.8,299.6a4.06,4.06,0,0,0,4.1-4.1.9.9,0,0,0-.1-.5,4.12,4.12,0,0,1-4.1,3.6,4.19,4.19,0,0,1-4.1-3.6c0,.2-.1.3-.1.5A4.37,4.37,0,0,0,388.8,299.6Z"
       transform="translate(0 0)"
       id="path84" />
    <path
       class="cls-5"
       d="M378.6,295.5a.9.9,0,0,0-.1-.5,4.12,4.12,0,0,1-4.1,3.6,4.19,4.19,0,0,1-4.1-3.6c0,.2-.1.3-.1.5a4.06,4.06,0,0,0,4.1,4.1A4.23,4.23,0,0,0,378.6,295.5Z"
       transform="translate(0 0)"
       id="path85" />
    <path
       class="cls-5"
       d="M414,305.2a4.12,4.12,0,0,1-4.1,3.6,4.19,4.19,0,0,1-4.1-3.6c0,.2-.1.3-.1.5a4.1,4.1,0,0,0,8.2,0C414.1,305.5,414,305.4,414,305.2Z"
       transform="translate(0 0)"
       id="path86" />
    <path
       class="cls-5"
       d="M424.6,308.8a4.19,4.19,0,0,1-4.1-3.6c0,.2-.1.3-.1.5a4.1,4.1,0,1,0,8.2,0,.9.9,0,0,0-.1-.5A3.72,3.72,0,0,1,424.6,308.8Z"
       transform="translate(0 0)"
       id="path87" />
    <path
       class="cls-5"
       d="M417.3,319.5a4.19,4.19,0,0,1-4.1-3.6c0,.2-.1.3-.1.5a4.1,4.1,0,0,0,8.2,0,.9.9,0,0,0-.1-.5A3.85,3.85,0,0,1,417.3,319.5Z"
       transform="translate(0 0)"
       id="path88" />
    <path
       class="cls-5"
       d="M417.3,299.6a4.06,4.06,0,0,0,4.1-4.1.9.9,0,0,0-.1-.5,4.12,4.12,0,0,1-4.1,3.6,4.19,4.19,0,0,1-4.1-3.6c0,.2-.1.3-.1.5A4.37,4.37,0,0,0,417.3,299.6Z"
       transform="translate(0 0)"
       id="path89" />
    <path
       class="cls-5"
       d="M431.6,298.6a4.19,4.19,0,0,1-4.1-3.6c0,.2-.1.3-.1.5a4.1,4.1,0,0,0,8.2,0,.9.9,0,0,0-.1-.5A3.85,3.85,0,0,1,431.6,298.6Z"
       transform="translate(0 0)"
       id="path90" />
  </g>
  <path
     class="cls-19"
     d="M436.6,421H368.7c-2.8,0-4.6.6-4.6-2.2h0a5,5,0,0,1,5-5H437a5,5,0,0,1,5,5h0C442.1,421.5,439.4,421,436.6,421Z"
     transform="translate(0 0)"
     id="path91" />
  <path
     d="M408.3,418.8H371.8a.9.9,0,0,1-.9-.9h0a2,2,0,0,1,2-2h34.2a2,2,0,0,1,2,2h0A.77.77,0,0,1,408.3,418.8Z"
     transform="translate(0 0)"
     id="path92" />
  <path
     d="M430.5,419.6h-4.2a1.75,1.75,0,0,1-1.7-1.7h0a2.8,2.8,0,0,1,2.8-2.8h1.9a2.8,2.8,0,0,1,2.8,2.8h0A1.5,1.5,0,0,1,430.5,419.6Z"
     transform="translate(0 0)"
     id="path93" />
  <g
     id="g96">
    <path
       class="cls-9"
       d="M530.4,124.3a1.9,1.9,0,0,0-1.9-1.9H277.4a1.9,1.9,0,0,0-1.9,1.9V253.5a15.62,15.62,0,0,0,15.6,15.6H514.9a15.62,15.62,0,0,0,15.6-15.6V130.4Z"
       transform="translate(0 0)"
       id="path94" />
    <g
       class="cls-18"
       id="g95">
      <path
         class="cls-20"
         d="M275.5,253.5a15.62,15.62,0,0,0,15.6,15.6H514.9a15.62,15.62,0,0,0,15.6-15.6V147h-255Z"
         transform="translate(0 0)"
         id="path95" />
    </g>
  </g>
  <g
     id="g107">
    <g
       id="g98">
      <g
         id="g97">
        <path
           class="cls-16"
           d="M709.9,271a26.3,26.3,0,1,1,26.3-26.3A26.33,26.33,0,0,1,709.9,271Z"
           transform="translate(0 0)"
           id="path96" />
        <path
           class="cls-21"
           d="M709.9,219.5a25.25,25.25,0,1,1-25.3,25.2,25.33,25.33,0,0,1,25.3-25.2m0-2a27.3,27.3,0,1,0,27.3,27.3,27.34,27.34,0,0,0-27.3-27.3Z"
           transform="translate(0 0)"
           id="path97" />
      </g>
      <path
         class="cls-22"
         d="M709.9,225.9a18.9,18.9,0,1,0,18.9,18.9A18.95,18.95,0,0,0,709.9,225.9Zm0,34.9a16,16,0,1,1,16-16A16,16,0,0,1,709.9,260.8Z"
         transform="translate(0 0)"
         id="path98"
         style="fill:#00ffcc" />
    </g>
    <g
       id="g101">
      <g
         id="g100">
        <path
           class="cls-16"
           d="M652.3,328.6a26.3,26.3,0,1,1,26.3-26.3A26.33,26.33,0,0,1,652.3,328.6Z"
           transform="translate(0 0)"
           id="path99" />
        <path
           class="cls-21"
           d="M652.3,277.1A25.3,25.3,0,1,1,627,302.4a25.33,25.33,0,0,1,25.3-25.3m0-2a27.3,27.3,0,1,0,27.3,27.3,27.34,27.34,0,0,0-27.3-27.3Z"
           transform="translate(0 0)"
           id="path100" />
      </g>
      <polygon
         class="cls-23"
         points="666.7 290 664.7 288 652.3 300.4 640 288 638 290 650.3 302.4 638 314.7 640 316.7 652.3 304.4 664.7 316.7 666.7 314.7 654.3 302.4 666.7 290"
         id="polygon100"
         style="fill:#00ffcc" />
    </g>
    <g
       id="g103">
      <g
         id="g102">
        <path
           class="cls-16"
           d="M594.8,271a26.3,26.3,0,1,1,26.3-26.3A26.33,26.33,0,0,1,594.8,271Z"
           transform="translate(0 0)"
           id="path101" />
        <path
           class="cls-21"
           d="M594.7,219.5a25.25,25.25,0,1,1-25.3,25.2,25.33,25.33,0,0,1,25.3-25.2m0-2A27.3,27.3,0,1,0,622,244.8a27.34,27.34,0,0,0-27.3-27.3Z"
           transform="translate(0 0)"
           id="path102" />
      </g>
      <path
         class="cls-24"
         d="M606.3,230.4H580.5V259h28.6V230.4Zm0,25.9h-23v-23h23Z"
         transform="translate(0 0)"
         id="path103"
         style="fill:#00ffcc" />
    </g>
    <g
       id="g106">
      <g
         id="g105">
        <path
           class="cls-16"
           d="M652.3,213.5a26.3,26.3,0,1,1,26.3-26.3A26.33,26.33,0,0,1,652.3,213.5Z"
           transform="translate(0 0)"
           id="path104" />
        <path
           class="cls-21"
           d="M652.3,162A25.3,25.3,0,1,1,627,187.3,25.33,25.33,0,0,1,652.3,162m0-2a27.3,27.3,0,1,0,27.3,27.3A27.34,27.34,0,0,0,652.3,160Z"
           transform="translate(0 0)"
           id="path105" />
      </g>
      <path
         class="cls-25"
         d="M668.3,195.2l-16-27.6-16,27.6-1.6,2.8h35.2Zm-16,0H639.6l12.7-21.9L665,195.2Z"
         transform="translate(0 0)"
         id="path106"
         style="fill:#00ffcc" />
    </g>
  </g>
  <g
     id="g110">
    <circle
       class="cls-26"
       cx="403"
       cy="362"
       r="20.2"
       id="circle107" />
    <g
       id="g109">
      <path
         class="cls-27"
         d="M404.1,368.6V355.8a1.33,1.33,0,0,1,.3-1,.57.57,0,0,1,.7-.2c.6.2.9.7.9,1.7v6.9a4.55,4.55,0,0,0,2.1.5,2.77,2.77,0,0,0,1.6-.5c1-.7,1.5-1.9,1.5-3.7a6.49,6.49,0,0,0-1.2-4.3,8.79,8.79,0,0,0-4.1-2.6c-1.3-.4-2.5-.8-3.6-1.1s-2-.5-2.9-.7V363h0v2.7h0v1.7h0v2.5h0v1.5l4.7,1.5v-3.6h0Z"
         transform="translate(0 0)"
         id="path107" />
      <path
         class="cls-27"
         d="M399,367.6l-1.7.6-.9.4-1.6.3-1.5-.2c-.3-.2-.4-.4-.2-.6s.2-.1.3-.2.3-.1.4-.2l1.1-.4,4.1-1.5v-2.7l-1.7.5-5.5,2-1,.4c-1.5.6-2.2,1.2-2.2,1.8.1.8,1,1.5,2.7,1.9a15.21,15.21,0,0,0,4.3.5,20.2,20.2,0,0,0,3.3-.3v-2.3Z"
         transform="translate(0 0)"
         id="path108" />
      <path
         class="cls-27"
         d="M414.8,365.3a12.88,12.88,0,0,0-2.5-.6,10.48,10.48,0,0,0-2.5-.1,26.6,26.6,0,0,0-2.8.3,15.25,15.25,0,0,0-2.6.8v2.8l3.9-1.4,1.6-.5,1.1-.3h1.4c.3.1.6.2.7.4s-.2.4-.8.6l-1.4.5-6.5,2.4v2.7l3.5-1.3,6.4-2.3.7-.4c1.5-.5,2.2-1.2,2.2-1.9S416.4,365.8,414.8,365.3Z"
         transform="translate(0 0)"
         id="path109" />
    </g>
  </g>
  <g
     id="g114">
    <g
       id="g111">
      <path
         class="cls-28"
         d="M697.2,109.9a2.14,2.14,0,0,0-1.1-1.9c-4.5-2.9-23.4-13.6-51.5-13.6-26.9,0-41.1,5.9-45.1,8a2.2,2.2,0,0,0-1.2,2s9.8-2.9,47.5-2.9S697.2,109.9,697.2,109.9Z"
         transform="translate(0 0)"
         id="path110" />
      <path
         class="cls-8"
         d="M697.1,116.8h0v-6.9s-13.7-8.4-51.4-8.4-47.5,2.9-47.5,2.9v11h0c7.7-1.3,21.2-2.6,44.1-2.6C670.8,112.9,688.2,115.2,697.1,116.8Z"
         transform="translate(0 0)"
         id="path111" />
    </g>
    <g
       id="g113">
      <path
         class="cls-28"
         d="M108.8,109.9a2.14,2.14,0,0,1,1.1-1.9c4.5-2.9,23.4-13.6,51.5-13.6,26.9,0,41.1,5.9,45.1,8a2.2,2.2,0,0,1,1.2,2s-9.8-2.9-47.5-2.9S108.8,109.9,108.8,109.9Z"
         transform="translate(0 0)"
         id="path112" />
      <path
         class="cls-8"
         d="M108.9,116.8h0v-6.9s13.7-8.4,51.4-8.4,47.5,2.9,47.5,2.9v11h0c-7.7-1.3-21.2-2.6-44.1-2.6C135.2,112.9,117.8,115.2,108.9,116.8Z"
         transform="translate(0 0)"
         id="path113" />
    </g>
  </g>
  <g
     id="g122">
    <g
       id="g118">
      <g
         id="g115">
        <path
           class="cls-8"
           d="M697.2,90.8s-32.7-3.2-50.6-3.2S598.2,90,598.2,90s3.1-44.7,4.8-52,7.7-21.3,16.9-27.9S631.8,0,642.6,0,668,6.4,677.2,21.4,697.2,90.8,697.2,90.8Z"
           transform="translate(0 0)"
           id="path114" />
        <path
           class="cls-28"
           d="M598.7,83.2s26.1-4.4,49-4.4,47.9,4.4,47.9,4.4c1,4.7,1.6,7.6,1.6,7.6s-32.7-3.2-50.6-3.2S598.2,90,598.2,90,598.4,87.3,598.7,83.2Z"
           transform="translate(0 0)"
           id="path115" />
      </g>
      <g
         class="cls-29"
         id="g117">
        <path
           class="cls-5"
           d="M648.7,65.7l-3.2,2.6a6.71,6.71,0,0,0-2,4.5h9.8V70.2H647a6.71,6.71,0,0,1,2.1-1.9,12.47,12.47,0,0,0,2.7-2.1,4.77,4.77,0,0,0,1.3-3.3,4.22,4.22,0,0,0-1.4-3.3,5.13,5.13,0,0,0-3.5-1.2c-3.1,0-4.7,1.7-4.7,5h2.7q0-2.7,2.1-2.7a1.83,1.83,0,0,1,2,2.1C650.5,63.9,649.9,64.8,648.7,65.7Z"
           transform="translate(0 0)"
           id="path116" />
        <path
           class="cls-5"
           d="M631.1,67.2h3c1.5,0,2.3.6,2.4,1.9s.2,2.5.3,3.8h3.3v-.4c-.5-.2-.7-.7-.7-1.5a2.81,2.81,0,0,1,.1-.8v-.7a3.56,3.56,0,0,0-1.8-3.5,3.25,3.25,0,0,0,2.2-3.4,3.54,3.54,0,0,0-1.3-3,4.72,4.72,0,0,0-3.2-1h-7.3V72.9h3Zm0-6.2h3.7c1.4,0,2.1.6,2.1,1.9s-.8,1.9-2.3,1.9h-3.5Z"
           transform="translate(0 0)"
           id="path117" />
      </g>
    </g>
    <g
       id="g121">
      <g
         id="g119">
        <path
           class="cls-8"
           d="M108.8,90.8s32.7-3.2,50.6-3.2S207.7,90,207.7,90s-3.1-44.7-4.8-52S195.2,16.7,186,10.1,174.2,0,163.4,0,138,6.4,128.8,21.4,108.8,90.8,108.8,90.8Z"
           transform="translate(0 0)"
           id="path118" />
        <path
           class="cls-28"
           d="M207.3,83.2s-26.1-4.4-49-4.4-47.9,4.4-47.9,4.4c-1,4.7-1.6,7.6-1.6,7.6s32.7-3.2,50.6-3.2S207.7,90,207.7,90,207.6,87.3,207.3,83.2Z"
           transform="translate(0 0)"
           id="path119" />
      </g>
      <g
         class="cls-29"
         id="g120">
        <path
           class="cls-5"
           d="M173.3,65.7l-3.2,2.6a6.71,6.71,0,0,0-2,4.5h9.8V70.2h-6.2a6.71,6.71,0,0,1,2.1-1.9,12.47,12.47,0,0,0,2.7-2.1,4.77,4.77,0,0,0,1.3-3.3,4.22,4.22,0,0,0-1.4-3.3,5.13,5.13,0,0,0-3.5-1.2c-3.1,0-4.7,1.7-4.7,5h2.7q0-2.7,2.1-2.7a1.83,1.83,0,0,1,2,2.1C175.1,63.9,174.5,64.8,173.3,65.7Z"
           transform="translate(0 0)"
           id="path120" />
        <polygon
           class="cls-5"
           points="164.8 70.2 157.8 70.2 157.8 58.5 154.7 58.5 154.7 72.8 164.8 72.8 164.8 70.2"
           id="polygon120" />
      </g>
    </g>
  </g>
  <g
     id="g134">
    <g
       id="g128">
      <path
         class="cls-30"
         d="M547.6,134.6a4.11,4.11,0,0,1-8.2,0,3.82,3.82,0,0,1,4.1-3.8A3.76,3.76,0,0,1,547.6,134.6Zm-6.7,0a2.49,2.49,0,0,0,2.6,2.7,2.54,2.54,0,0,0,2.6-2.7,2.6,2.6,0,1,0-5.2,0Z"
         transform="translate(0 0)"
         id="path122" />
      <path
         class="cls-30"
         d="M548.9,131h3.8c2.4,0,2.9,1.3,2.9,2.2s-.5,2.2-2.9,2.2h-2.3v2.8h-1.5Zm1.5,3.4h2.2c.7,0,1.5-.3,1.5-1.2s-.7-1.2-1.5-1.2h-2.2Z"
         transform="translate(0 0)"
         id="path123" />
      <path
         class="cls-30"
         d="M556.1,131H563v1.1h-2.7v6.1h-1.5V132h-2.7Z"
         transform="translate(0 0)"
         id="path124" />
      <path
         class="cls-30"
         d="M564.1,131h1.5v7.2h-1.5Z"
         transform="translate(0 0)"
         id="path125" />
      <path
         class="cls-30"
         d="M575.1,134.6a4.11,4.11,0,0,1-8.2,0,3.82,3.82,0,0,1,4.1-3.8A3.76,3.76,0,0,1,575.1,134.6Zm-6.7,0a2.49,2.49,0,0,0,2.6,2.7,2.54,2.54,0,0,0,2.6-2.7,2.6,2.6,0,1,0-5.2,0Z"
         transform="translate(0 0)"
         id="path126" />
      <path
         class="cls-30"
         d="M576.5,131h1.6l3.9,5.3h0V131h1.4v7.2h-1.6l-3.9-5.3h0v5.3h-1.4Z"
         transform="translate(0 0)"
         id="path127" />
      <path
         class="cls-30"
         d="M586.2,135.8c0,1.1,1,1.5,2.2,1.5s1.8-.6,1.8-1.1a.89.89,0,0,0-.7-.9c-.6-.2-1.4-.3-2.6-.6-1.5-.3-1.9-1.1-1.9-1.8,0-1.5,1.6-2.1,3.1-2.1,1.8,0,3.3.8,3.3,2.3h-1.5c-.1-.9-.8-1.3-1.8-1.3-.7,0-1.6.2-1.6.9,0,.5.4.8,1,.9a21.46,21.46,0,0,1,2.5.6,2.07,2.07,0,0,1,1.7,1.8c0,1.6-1.7,2.3-3.4,2.3-2,0-3.5-.8-3.6-2.6h1.5Z"
         transform="translate(0 0)"
         id="path128" />
    </g>
    <g
       id="g133">
      <path
         class="cls-30"
         d="M222.2,135.8c0,1.1,1,1.5,2.2,1.5s1.8-.6,1.8-1.1a.89.89,0,0,0-.7-.9c-.6-.2-1.4-.3-2.6-.6-1.5-.3-1.9-1.1-1.9-1.8,0-1.5,1.6-2.1,3.1-2.1,1.8,0,3.3.8,3.3,2.3h-1.5c-.1-.9-.8-1.3-1.8-1.3-.7,0-1.6.2-1.6.9,0,.5.4.8,1,.9a21.46,21.46,0,0,1,2.5.6,2.07,2.07,0,0,1,1.7,1.8c0,1.6-1.7,2.3-3.4,2.3-2,0-3.5-.8-3.6-2.6h1.5Z"
         transform="translate(0 0)"
         id="path129" />
      <path
         class="cls-30"
         d="M228.9,131h1.5v2.9h3.9V131h1.5v7.2h-1.5V135h-3.9v3.2h-1.5Z"
         transform="translate(0 0)"
         id="path130" />
      <path
         class="cls-30"
         d="M239.9,131h1.6l3.3,7.2h-1.6l-.8-1.9H239l-.8,1.9h-1.5Zm-.5,4.3H242l-1.3-3.1h0Z"
         transform="translate(0 0)"
         id="path131" />
      <path
         class="cls-30"
         d="M245.6,131h4.1c1.9,0,2.8.7,2.8,1.9a1.77,1.77,0,0,1-1.4,1.8h0a1.44,1.44,0,0,1,1.3,1.5c0,.8.1,1.6.5,1.9h-1.6a2,2,0,0,1-.2-1.1c0-1.3-.3-1.9-1.7-1.9h-2.2v3h-1.5V131Zm1.5,3.2h2.5c1,0,1.5-.4,1.5-1.1,0-.9-.7-1.1-1.5-1.1h-2.4v2.2Z"
         transform="translate(0 0)"
         id="path132" />
      <path
         class="cls-30"
         d="M254.1,131h6.2v1.1h-4.7V134h4.3v1h-4.3v2.1h4.7v1.1h-6.2V131Z"
         transform="translate(0 0)"
         id="path133" />
    </g>
  </g>
  <path
     style="fill:#008080;stroke-width:0.18239"
     d="m 154.71049,65.614935 0.0477,-7.067627 1.50472,-0.05297 1.50472,-0.05297 v 5.935063 5.935063 h 3.46542 3.46541 v 1.185538 1.185537 h -5.01787 -5.01788 z"
     id="path144" />
  <path
     style="fill:#008080;stroke-width:0.18239"
     d="m 168.16392,72.313225 c 0,-0.676071 0.7008,-2.375118 1.31184,-3.180493 0.33179,-0.437313 1.51826,-1.537218 2.6366,-2.444233 2.55813,-2.074738 2.87791,-2.505733 2.88546,-3.888991 0.005,-0.892803 -0.0657,-1.122711 -0.46801,-1.525406 -0.61899,-0.619536 -1.7187,-0.778202 -2.52038,-0.363639 -0.62149,0.321389 -1.10965,1.204904 -1.10965,2.008356 0,0.453028 -0.026,0.461834 -1.36444,0.461834 h -1.36444 l 0.10982,-0.866354 c 0.12415,-0.979427 0.65521,-2.324384 1.1213,-2.839795 0.96036,-1.061984 3.54664,-1.536464 5.2646,-0.965848 1.13867,0.378207 2.15422,1.213559 2.65239,2.181772 0.46143,0.896801 0.53429,2.572204 0.1594,3.665605 -0.3403,0.99254 -1.62543,2.307831 -3.52833,3.611156 -1.47,1.006823 -2.13835,1.632711 -2.13835,2.002491 0,0.07799 1.35425,0.141807 3.00944,0.141807 h 3.00944 v 1.185538 1.185537 h -4.83335 c -4.73162,0 -4.83334,-0.0078 -4.83334,-0.369337 z"
     id="path145" />
  <path
     style="fill:#008080;stroke-width:0.0911952"
     d="m 643.56576,72.478172 c 0.003,-0.849837 0.43108,-2.076489 1.05761,-3.033039 0.56789,-0.867005 0.71667,-1.010063 2.82119,-2.712726 2.72736,-2.206577 2.86288,-2.387858 2.8663,-3.834162 0.002,-0.952796 -0.14583,-1.370719 -0.63005,-1.778163 -0.40636,-0.34193 -0.85583,-0.458662 -1.56944,-0.407603 -1.12759,0.08068 -1.73533,0.743437 -1.8796,2.049775 l -0.0683,0.618399 -1.29953,0.0253 -1.29953,0.0253 v -0.580685 c 0,-0.319377 0.0812,-0.898091 0.18039,-1.286033 0.40631,-1.588639 1.24234,-2.470004 2.78619,-2.937266 0.78328,-0.237067 2.63403,-0.236488 3.32588,0.001 0.83119,0.285365 1.37233,0.596791 1.89353,1.089723 0.90155,0.852645 1.29831,1.816072 1.29831,3.152615 0,2.069503 -0.96297,3.442399 -3.67768,5.243265 -0.84745,0.562171 -1.50528,1.077049 -1.84542,1.444377 l -0.52854,0.570802 3.13981,0.0456 3.13981,0.0456 v 1.276733 1.276732 l -4.85614,0.0236 -4.85614,0.0236 z"
     id="path146" />
  <path
     style="fill:#008080;stroke-width:0.0911952"
     d="m 628.15243,65.751728 v -7.158822 l 3.94419,0.0016 c 4.34938,0.0017 4.71377,0.03638 5.71848,0.543558 1.47355,0.743843 2.21234,2.143995 2.06599,3.915417 -0.0994,1.203527 -0.74224,2.206874 -1.74158,2.718418 l -0.45477,0.232788 0.22678,0.14291 c 0.43217,0.272339 0.97897,0.906936 1.24062,1.439818 0.25986,0.529212 0.26298,0.554916 0.2705,2.222515 0.01,2.201793 -0.01,2.068045 0.35718,2.434911 0.17555,0.175551 0.31918,0.397155 0.31918,0.492454 0,0.163814 -0.0896,0.173271 -1.64151,0.173271 -1.50122,0 -1.64182,-0.01364 -1.64501,-0.159592 -0.002,-0.08777 -0.0792,-1.053589 -0.1717,-2.146254 -0.20626,-2.436118 -0.29813,-2.686316 -1.14563,-3.12002 l -0.5351,-0.273833 -1.94469,-0.03064 -1.94468,-0.03064 v 2.880485 2.880486 h -1.45913 -1.45912 z m 7.53234,-1.091843 c 0.77784,-0.230996 1.22297,-0.876389 1.22189,-1.771615 -8e-4,-0.659372 -0.15275,-1.055986 -0.53785,-1.403902 -0.49572,-0.447857 -0.95516,-0.520387 -3.29633,-0.520387 h -2.0018 v 1.915099 1.915099 h 2.08093 c 1.56699,0 2.19263,-0.03317 2.53316,-0.134294 z"
     id="path147" />
</svg>
