<?xml version="1.0" encoding="UTF-8" standalone="no"?>
<svg
   id="Layer_1"
   data-name="Layer 1"
   width="200"
   height="90.8"
   viewBox="0 0 200 90.8"
   version="1.1"
   sodipodi:docname="triggers.svg"
   inkscape:version="1.3.2 (091e20e, 2023-11-25, custom)"
   xmlns:inkscape="http://www.inkscape.org/namespaces/inkscape"
   xmlns:sodipodi="http://sodipodi.sourceforge.net/DTD/sodipodi-0.dtd"
   xmlns="http://www.w3.org/2000/svg"
   xmlns:svg="http://www.w3.org/2000/svg">
  <sodipodi:namedview
     id="namedview8"
     pagecolor="#505050"
     bordercolor="#eeeeee"
     borderopacity="1"
     inkscape:showpageshadow="0"
     inkscape:pageopacity="0"
     inkscape:pagecheckerboard="0"
     inkscape:deskcolor="#505050"
     inkscape:zoom="6.695"
     inkscape:cx="100"
     inkscape:cy="45.332338"
     inkscape:window-width="1920"
     inkscape:window-height="1017"
     inkscape:window-x="-8"
     inkscape:window-y="-8"
     inkscape:window-maximized="1"
     inkscape:current-layer="Layer_1" />
  <defs
     id="defs1">
    <style
       id="style1">
      .cls-1 {
        fill: #ededed;
      }

      .cls-2 {
        fill: #f5f5f5;
      }

      .cls-3 {
        opacity: 0.08;
      }
    </style>
  </defs>
  <g
     id="g5">
    <g
       id="g2">
      <path
         class="cls-1"
         d="M199.9,90.8s-32.7-3.2-50.6-3.2S100.9,90,100.9,90s3.1-44.7,4.8-52,7.7-21.3,16.9-27.9S134.6,0,145.4,0,170.8,6.4,180,21.4,199.9,90.8,199.9,90.8Z"
         transform="translate(0.1 0)"
         id="path1" />
      <path
         class="cls-2"
         d="M101.4,83.2s26.1-4.4,49-4.4,47.9,4.4,47.9,4.4c1,4.7,1.6,7.6,1.6,7.6s-32.7-3.2-50.6-3.2S100.9,90,100.9,90,101.1,87.3,101.4,83.2Z"
         transform="translate(0.1 0)"
         id="path2" />
    </g>
    <g
       class="cls-3"
       id="g4">
      <path
         d="M151.4,65.7l-3.2,2.6a6.71,6.71,0,0,0-2,4.5H156V70.2h-6.2a6.71,6.71,0,0,1,2.1-1.9,12.47,12.47,0,0,0,2.7-2.1,4.77,4.77,0,0,0,1.3-3.3,4.22,4.22,0,0,0-1.4-3.3,5.13,5.13,0,0,0-3.5-1.2c-3.1,0-4.7,1.7-4.7,5H149q0-2.7,2.1-2.7a1.83,1.83,0,0,1,2,2.1C153.2,63.9,152.6,64.8,151.4,65.7Z"
         transform="translate(0.1 0)"
         id="path3" />
      <path
         d="M133.9,67.2h3c1.5,0,2.3.6,2.4,1.9s.2,2.5.3,3.8h3.3v-.4c-.5-.2-.7-.7-.7-1.5a2.81,2.81,0,0,1,.1-.8v-.7a3.56,3.56,0,0,0-1.8-3.5,3.25,3.25,0,0,0,2.2-3.4,3.54,3.54,0,0,0-1.3-3,4.72,4.72,0,0,0-3.2-1h-7.3V72.9h3Zm0-6.2h3.7c1.4,0,2.1.6,2.1,1.9s-.8,1.9-2.3,1.9h-3.5Z"
         transform="translate(0.1 0)"
         id="path4" />
    </g>
  </g>
  <g
     id="g8">
    <g
       id="g6">
      <path
         class="cls-1"
         d="M0,90.8s32.7-3.2,50.6-3.2S98.9,90,98.9,90s-3.1-44.7-4.8-52S86.4,16.7,77.2,10.1,65.3,0,54.5,0,29.1,6.4,19.9,21.4,0,90.8,0,90.8Z"
         transform="translate(0.1 0)"
         id="path5" />
      <path
         class="cls-2"
         d="M98.4,83.2s-26.1-4.4-49-4.4S1.5,83.2,1.5,83.2c-1,4.7-1.6,7.6-1.6,7.6s32.7-3.2,50.6-3.2S98.9,90,98.9,90,98.8,87.3,98.4,83.2Z"
         transform="translate(0.1 0)"
         id="path6" />
    </g>
    <g
       class="cls-3"
       id="g7">
      <path
         d="M64.5,65.7l-3.2,2.6a6.71,6.71,0,0,0-2,4.5H69V70.2H62.8a6.71,6.71,0,0,1,2.1-1.9,12.47,12.47,0,0,0,2.7-2.1,4.77,4.77,0,0,0,1.3-3.3,4.22,4.22,0,0,0-1.4-3.3A5.13,5.13,0,0,0,64,58.4c-3.1,0-4.7,1.7-4.7,5H62q0-2.7,2.1-2.7a1.83,1.83,0,0,1,2,2.1A3.17,3.17,0,0,1,64.5,65.7Z"
         transform="translate(0.1 0)"
         id="path7" />
      <polygon
         points="56.1 70.2 49 70.2 49 58.5 46 58.5 46 72.8 56.1 72.8 56.1 70.2"
         id="polygon7" />
    </g>
  </g>
  <path
     style="fill:#00ffcc;stroke-width:0.149365"
     d="m 46.004481,65.646004 v -7.169529 h 1.493652 1.493652 v 5.899925 5.899926 h 3.510082 3.510082 v 1.269604 1.269604 h -5.003734 -5.003734 z"
     id="path9" />
  <path
     style="fill:#00ffcc;stroke-width:0.149365"
     d="m 59.447349,72.455429 c 0,-0.548806 0.517119,-2.091203 0.941625,-2.808558 0.465915,-0.78733 1.193813,-1.486384 3.315283,-3.18391 1.97643,-1.58147 2.297875,-1.993351 2.454094,-3.144534 0.148952,-1.097631 -0.02305,-1.730584 -0.602859,-2.21846 -0.615855,-0.518208 -1.973138,-0.549163 -2.596018,-0.0592 -0.496114,0.390243 -0.823552,1.120696 -0.823552,1.837189 v 0.527576 h -1.365564 -1.365565 l 0.08992,-0.860284 c 0.280846,-2.686991 1.613299,-3.924319 4.350548,-4.039958 1.64651,-0.06956 2.773008,0.288418 3.754462,1.19309 0.968707,0.892923 1.318047,1.743744 1.307479,3.184373 -0.01549,2.111314 -0.828174,3.286651 -3.556827,5.144018 -0.840013,0.571788 -1.751645,1.295049 -2.025849,1.607246 l -0.498554,0.567631 3.090376,0.04037 3.090376,0.04037 v 1.266574 1.266574 h -4.779686 -4.779686 z"
     id="path10" />
  <path
     style="fill:#00ffcc;stroke-width:0.149365"
     d="m 130.99328,65.71239 v -7.103144 l 4.36893,0.04564 c 4.19499,0.04382 4.39867,0.05934 5.11576,0.389718 1.42573,0.656868 2.15416,1.696277 2.27904,3.252024 0.11897,1.482201 -0.45994,2.736513 -1.56355,3.387655 l -0.51249,0.30238 0.60091,0.613839 c 0.91276,0.932387 1.07051,1.453051 1.0521,3.472513 -0.014,1.54184 0.0192,1.783945 0.29634,2.158826 0.1717,0.232228 0.31217,0.458561 0.31217,0.502963 0,0.0444 -0.73129,0.08073 -1.6251,0.08073 h -1.62511 l -0.1049,-1.755041 c -0.21546,-3.605149 -0.52915,-3.918319 -3.92644,-3.920004 l -1.68036,-8.33e-4 v 2.837939 2.837939 h -1.49365 -1.49365 z m 7.92498,-1.201817 c 0.69858,-0.407995 0.91173,-0.868994 0.84345,-1.824229 -0.044,-0.616179 -0.14643,-0.883632 -0.45741,-1.194922 -0.39779,-0.398189 -0.41825,-0.401395 -2.86219,-0.448449 l -2.46153,-0.04739 v 1.970284 1.970284 l 2.2121,-0.06284 c 1.87158,-0.05317 2.29114,-0.109006 2.72558,-0.362732 z"
     id="path11" />
  <path
     style="fill:#00ffcc;stroke-width:0.149365"
     d="m 146.42712,72.048563 c 0.10903,-0.920584 0.82476,-2.508269 1.45361,-3.224481 0.25056,-0.285373 1.20798,-1.127294 2.12759,-1.870934 0.91962,-0.743641 1.89869,-1.560412 2.17571,-1.815046 1.32838,-1.221026 1.42408,-3.431638 0.18035,-4.166323 -0.2399,-0.141711 -0.73938,-0.254826 -1.12524,-0.254826 -1.28509,0 -1.92851,0.610974 -2.1208,2.013856 l -0.0925,0.674718 h -1.33313 -1.33314 l 0.0956,-0.709485 c 0.21028,-1.561042 0.50912,-2.280973 1.25747,-3.029321 0.86145,-0.861451 1.79246,-1.190246 3.37027,-1.190246 2.1489,0 3.60198,0.808134 4.41215,2.453829 0.44628,0.906518 0.476,1.061021 0.41311,2.147412 -0.11639,2.010559 -0.96669,3.224705 -3.38615,4.835075 -1.11206,0.740178 -2.55935,2.010215 -2.55935,2.245896 0,0.0647 1.37789,0.117639 3.06199,0.117639 h 3.06198 v 1.269604 1.269604 h -4.87517 -4.87518 z"
     id="path12" />
</svg>
