<?xml version="1.0" encoding="UTF-8" standalone="no"?>
<svg
   id="Layer_1"
   data-name="Layer 1"
   width="28.4"
   height="46.7"
   viewBox="0 0 28.4 46.7"
   version="1.1"
   sodipodi:docname="start.svg"
   inkscape:version="1.3.2 (091e20e, 2023-11-25, custom)"
   xmlns:inkscape="http://www.inkscape.org/namespaces/inkscape"
   xmlns:sodipodi="http://sodipodi.sourceforge.net/DTD/sodipodi-0.dtd"
   xmlns="http://www.w3.org/2000/svg"
   xmlns:svg="http://www.w3.org/2000/svg">
  <sodipodi:namedview
     id="namedview2"
     pagecolor="#505050"
     bordercolor="#eeeeee"
     borderopacity="1"
     inkscape:showpageshadow="0"
     inkscape:pageopacity="0"
     inkscape:pagecheckerboard="0"
     inkscape:deskcolor="#505050"
     inkscape:zoom="17.580299"
     inkscape:cx="14.192023"
     inkscape:cy="23.293119"
     inkscape:window-width="1920"
     inkscape:window-height="1017"
     inkscape:window-x="-8"
     inkscape:window-y="-8"
     inkscape:window-maximized="1"
     inkscape:current-layer="Layer_1" />
  <defs
     id="defs1">
    <style
       id="style1">
      .cls-1 {
        fill: #fff;
      }

      .cls-2 {
        fill: #efeee5;
      }
    </style>
  </defs>
  <g
     id="g2">
    <path
       class="cls-1"
       d="M14.2,1.7A12.5,12.5,0,0,1,26.7,14.2V32.5a12.5,12.5,0,0,1-25,0V14.2A12.5,12.5,0,0,1,14.2,1.7m0-1.7A14.25,14.25,0,0,0,0,14.2V32.5a14.2,14.2,0,1,0,28.4,0V14.2A14.25,14.25,0,0,0,14.2,0Z"
       id="path1" />
    <path
       class="cls-2"
       d="M14.2,1.7A12.5,12.5,0,0,0,1.7,14.2V32.5a12.5,12.5,0,0,0,25,0V14.2A12.5,12.5,0,0,0,14.2,1.7Z"
       id="path2"
       style="fill:#000000;stroke:#ffffff" />
  </g>
  <path
     style="fill:#000000;stroke:#ffffff"
     d="M 12.855299,46.613707 C 9.0288786,46.216751 5.5289182,44.323739 3.1607342,41.370241 1.4727731,39.265087 0.42365407,36.742259 0.10219986,34.015348 0.04440293,33.525053 0.02844093,31.204681 0.02844093,23.293119 c 0,-9.387893 0.0071267,-10.146433 0.10153938,-10.807552 C 0.49701667,9.9154175 1.4179825,7.6603234 2.9097586,5.6789499 3.7985998,4.4983933 5.1967618,3.1941757 6.4845312,2.3443711 7.2038312,1.869702 8.6305634,1.1527645 9.4191513,0.86971556 10.166725,0.60138759 11.40065,0.29491769 12.258039,0.16462088 c 0.842904,-0.12809544 2.852747,-0.14514133 3.66888,-0.0311165 2.027112,0.28321509 3.905781,0.93857532 5.538276,1.93198812 3.80285,2.3141261 6.220953,6.0418006 6.814739,10.5053965 0.109113,0.820218 0.111321,20.783387 0.0024,21.586663 -0.226576,1.670789 -0.672476,3.155178 -1.375494,4.578989 -2.080071,4.212732 -6.025458,7.088082 -10.6955,7.794749 -0.702564,0.106312 -2.661883,0.154428 -3.356029,0.08242 z m 2.88384,-2.189752 c 5.477295,-0.702494 9.755517,-5.038693 10.399034,-10.539959 0.125985,-1.077009 0.125985,-19.990982 0,-21.067991 C 25.554731,7.8283086 21.963589,3.734792 17.121438,2.5378938 14.366787,1.8569906 11.448803,2.1656698 8.9029644,3.4072858 5.7262142,4.9565995 3.4052808,7.8275202 2.5331027,11.286601 2.1730757,12.714477 2.1899513,12.121218 2.1899513,23.35 c 0,9.571565 0.00644,10.251214 0.1028892,10.864434 0.5488208,3.489252 2.3930201,6.398052 5.2724459,8.31607 1.4861584,0.989946 3.4564996,1.711228 5.2331306,1.91569 0.711144,0.08184 2.218068,0.07044 2.940722,-0.02224 z"
     id="path3" />
</svg>
