<?xml version="1.0" encoding="UTF-8" standalone="no"?>
<svg
   id="Layer_1"
   data-name="Layer 1"
   width="263.8"
   height="151.2"
   viewBox="0 0 263.8 151.2"
   version="1.1"
   sodipodi:docname="touchpad.svg"
   inkscape:version="1.3.2 (091e20e, 2023-11-25, custom)"
   xmlns:inkscape="http://www.inkscape.org/namespaces/inkscape"
   xmlns:sodipodi="http://sodipodi.sourceforge.net/DTD/sodipodi-0.dtd"
   xmlns="http://www.w3.org/2000/svg"
   xmlns:svg="http://www.w3.org/2000/svg">
  <sodipodi:namedview
     id="namedview6"
     pagecolor="#505050"
     bordercolor="#eeeeee"
     borderopacity="1"
     inkscape:showpageshadow="0"
     inkscape:pageopacity="0"
     inkscape:pagecheckerboard="0"
     inkscape:deskcolor="#505050"
     inkscape:zoom="3.5891434"
     inkscape:cx="126.07465"
     inkscape:cy="77.316499"
     inkscape:window-width="1920"
     inkscape:window-height="1017"
     inkscape:window-x="-8"
     inkscape:window-y="-8"
     inkscape:window-maximized="1"
     inkscape:current-layer="Layer_1" />
  <defs
     id="defs1">
    <style
       id="style1">
      .cls-1 {
        fill: none;
      }

      .cls-2 {
        fill: #4c4c4c;
      }

      .cls-3 {
        fill: #ededed;
      }

      .cls-4 {
        fill: #f7f7f7;
      }

      .cls-5 {
        opacity: 0.12;
      }

      .cls-6 {
        fill: url(#SVGID_1_);
      }
    </style>
    <pattern
       id="SVGID_1_"
       data-name="SVGID 1 "
       width="71"
       height="71"
       patternTransform="matrix(0.1, 0, 0, -0.1, -7927.93, 7486.73)"
       patternUnits="userSpaceOnUse"
       viewBox="0 0 71 71">
      <rect
         class="cls-1"
         width="71"
         height="71"
         id="rect1" />
      <g
         id="g1">
        <polygon
           class="cls-1"
           points="0 71 71 71 71 0 0 0 0 71"
           id="polygon1" />
        <path
           class="cls-2"
           d="M41.8,35.5a6.3,6.3,0,1,0-6.3,6.3A6.27,6.27,0,0,0,41.8,35.5Z"
           id="path1" />
      </g>
    </pattern>
  </defs>
  <g
     id="g6">
    <path
       class="cls-3"
       d="M263.8,5.6A6.57,6.57,0,0,0,257.3,0H6.7A6.48,6.48,0,0,0,.2,5.6,14.77,14.77,0,0,0,.1,7.7V135.1a16.09,16.09,0,0,0,16.1,16.1H247.8a16.09,16.09,0,0,0,16.1-16.1V7.7A13.42,13.42,0,0,0,263.8,5.6Z"
       transform="translate(-0.1)"
       id="path2"
       style="fill:#000000;stroke:#ffffff" />
    <g
       id="g5">
      <path
         class="cls-4"
         d="M259.4,1.9A1.9,1.9,0,0,0,257.5,0H6.4A1.9,1.9,0,0,0,4.5,1.9V131.1a15.62,15.62,0,0,0,15.6,15.6H243.9a15.62,15.62,0,0,0,15.6-15.6V7.9Z"
         transform="translate(-0.1)"
         id="path3"
         style="fill:#000000;stroke:#ffffff" />
      <g
         class="cls-5"
         id="g4">
        <path
           class="cls-6"
           d="M4.5,131.1a15.62,15.62,0,0,0,15.6,15.6H243.9a15.62,15.62,0,0,0,15.6-15.6V24.5H4.6V131.1Z"
           transform="translate(-0.1)"
           id="path4"
           style="fill:#000000;stroke:#ffffff" />
      </g>
    </g>
  </g>
</svg>
