<?xml version="1.0" encoding="UTF-8" standalone="no"?>
<svg
   id="Layer_1"
   data-name="Layer 1"
   width="200"
   height="90.8"
   viewBox="0 0 200 90.8"
   version="1.1"
   sodipodi:docname="triggers.svg"
   inkscape:version="1.3.2 (091e20e, 2023-11-25, custom)"
   xmlns:inkscape="http://www.inkscape.org/namespaces/inkscape"
   xmlns:sodipodi="http://sodipodi.sourceforge.net/DTD/sodipodi-0.dtd"
   xmlns="http://www.w3.org/2000/svg"
   xmlns:svg="http://www.w3.org/2000/svg">
  <sodipodi:namedview
     id="namedview8"
     pagecolor="#505050"
     bordercolor="#eeeeee"
     borderopacity="1"
     inkscape:showpageshadow="0"
     inkscape:pageopacity="0"
     inkscape:pagecheckerboard="0"
     inkscape:deskcolor="#505050"
     inkscape:zoom="4.7340799"
     inkscape:cx="109.94745"
     inkscape:cy="48.900738"
     inkscape:window-width="1920"
     inkscape:window-height="1017"
     inkscape:window-x="-8"
     inkscape:window-y="-8"
     inkscape:window-maximized="1"
     inkscape:current-layer="Layer_1" />
  <defs
     id="defs1">
    <style
       id="style1">
      .cls-1 {
        fill: #ededed;
      }

      .cls-2 {
        fill: #f5f5f5;
      }

      .cls-3 {
        opacity: 0.08;
      }
    </style>
  </defs>
  <g
     id="g5">
    <g
       id="g2">
      <path
         class="cls-1"
         d="M199.9,90.8s-32.7-3.2-50.6-3.2S100.9,90,100.9,90s3.1-44.7,4.8-52,7.7-21.3,16.9-27.9S134.6,0,145.4,0,170.8,6.4,180,21.4,199.9,90.8,199.9,90.8Z"
         transform="translate(0.1 0)"
         id="path1"
         style="fill:#000000;stroke:#ffffff" />
      <path
         class="cls-2"
         d="M101.4,83.2s26.1-4.4,49-4.4,47.9,4.4,47.9,4.4c1,4.7,1.6,7.6,1.6,7.6s-32.7-3.2-50.6-3.2S100.9,90,100.9,90,101.1,87.3,101.4,83.2Z"
         transform="translate(0.1 0)"
         id="path2"
         style="fill:#000000;stroke:#ffffff" />
    </g>
    <g
       class="cls-3"
       id="g4">
      <path
         d="M151.4,65.7l-3.2,2.6a6.71,6.71,0,0,0-2,4.5H156V70.2h-6.2a6.71,6.71,0,0,1,2.1-1.9,12.47,12.47,0,0,0,2.7-2.1,4.77,4.77,0,0,0,1.3-3.3,4.22,4.22,0,0,0-1.4-3.3,5.13,5.13,0,0,0-3.5-1.2c-3.1,0-4.7,1.7-4.7,5H149q0-2.7,2.1-2.7a1.83,1.83,0,0,1,2,2.1C153.2,63.9,152.6,64.8,151.4,65.7Z"
         transform="translate(0.1 0)"
         id="path3"
         style="fill:#000000;stroke:#ffffff" />
      <path
         d="M133.9,67.2h3c1.5,0,2.3.6,2.4,1.9s.2,2.5.3,3.8h3.3v-.4c-.5-.2-.7-.7-.7-1.5a2.81,2.81,0,0,1,.1-.8v-.7a3.56,3.56,0,0,0-1.8-3.5,3.25,3.25,0,0,0,2.2-3.4,3.54,3.54,0,0,0-1.3-3,4.72,4.72,0,0,0-3.2-1h-7.3V72.9h3Zm0-6.2h3.7c1.4,0,2.1.6,2.1,1.9s-.8,1.9-2.3,1.9h-3.5Z"
         transform="translate(0.1 0)"
         id="path4"
         style="fill:#000000;stroke:#ffffff" />
    </g>
  </g>
  <g
     id="g8">
    <g
       id="g6">
      <path
         class="cls-1"
         d="M0,90.8s32.7-3.2,50.6-3.2S98.9,90,98.9,90s-3.1-44.7-4.8-52S86.4,16.7,77.2,10.1,65.3,0,54.5,0,29.1,6.4,19.9,21.4,0,90.8,0,90.8Z"
         transform="translate(0.1 0)"
         id="path5"
         style="fill:#000000;stroke:#ffffff" />
      <path
         class="cls-2"
         d="M98.4,83.2s-26.1-4.4-49-4.4S1.5,83.2,1.5,83.2c-1,4.7-1.6,7.6-1.6,7.6s32.7-3.2,50.6-3.2S98.9,90,98.9,90,98.8,87.3,98.4,83.2Z"
         transform="translate(0.1 0)"
         id="path6"
         style="fill:#000000;stroke:#ffffff" />
    </g>
    <g
       class="cls-3"
       id="g7">
      <path
         d="M64.5,65.7l-3.2,2.6a6.71,6.71,0,0,0-2,4.5H69V70.2H62.8a6.71,6.71,0,0,1,2.1-1.9,12.47,12.47,0,0,0,2.7-2.1,4.77,4.77,0,0,0,1.3-3.3,4.22,4.22,0,0,0-1.4-3.3A5.13,5.13,0,0,0,64,58.4c-3.1,0-4.7,1.7-4.7,5H62q0-2.7,2.1-2.7a1.83,1.83,0,0,1,2,2.1A3.17,3.17,0,0,1,64.5,65.7Z"
         transform="translate(0.1 0)"
         id="path7"
         style="fill:#000000;stroke:#ffffff" />
      <polygon
         points="56.1 70.2 49 70.2 49 58.5 46 58.5 46 72.8 56.1 72.8 56.1 70.2"
         id="polygon7"
         style="fill:#000000;stroke:#ffffff" />
    </g>
  </g>
  <path
     style="fill:#ffffff;stroke:#000000;stroke-width:0.0264043"
     d="m 130.51639,65.746672 v -7.64404 h 4.19693 c 4.50076,0 4.46986,-8.18e-4 5.04457,0.133497 0.52988,0.12384 1.17885,0.394136 1.61066,0.670845 0.99076,0.634888 1.60324,1.512369 1.85292,2.654619 0.0559,0.255605 0.0606,0.341134 0.061,1.095778 3.8e-4,0.808596 -5e-4,0.822041 -0.073,1.107545 -0.22645,0.892293 -0.68529,1.600123 -1.3804,2.129502 l -0.24905,0.189667 0.18605,0.195866 c 0.27103,0.285326 0.50435,0.613341 0.68181,0.958564 0.18323,0.356425 0.2732,0.596575 0.36604,0.976958 0.0637,0.260859 0.0683,0.326873 0.0791,1.116905 0.0107,0.787337 0.008,0.85799 -0.0471,1.133806 -0.0739,0.37097 -0.0636,0.90618 0.0225,1.176054 0.08,0.250678 0.1542,0.3305 0.401,0.431406 l 0.21145,0.08646 v 0.615464 0.615463 l -2.11865,-0.0068 -2.11864,-0.0068 -0.0848,-1.082576 c -0.26389,-3.367129 -0.26694,-3.399945 -0.33789,-3.624514 -0.15803,-0.500259 -0.46996,-0.765703 -1.06971,-0.910303 -0.20943,-0.05049 -0.32551,-0.05487 -1.73608,-0.06549 l -1.51165,-0.01138 v 2.853733 2.853733 h -1.99352 -1.99352 z m 2.98368,3.81542 v -2.851663 l 1.89451,4.57e-4 c 1.07007,2.59e-4 2.00366,0.01191 2.14535,0.02678 0.75359,0.07908 1.32204,0.333142 1.73517,0.775522 0.30474,0.326311 0.51344,0.797486 0.58701,1.325286 0.0204,0.146174 0.29184,3.46414 0.29184,3.566997 0,0.0046 0.44499,0.0083 0.98886,0.0083 h 0.98886 l -0.0907,-0.191431 c -0.15482,-0.326769 -0.20056,-0.554884 -0.21642,-1.079257 -0.0107,-0.352399 -0.004,-0.528652 0.0275,-0.726118 0.0248,-0.155251 0.0483,-0.533198 0.0582,-0.93407 0.015,-0.607421 0.0115,-0.699148 -0.0358,-0.937352 -0.11941,-0.600779 -0.38202,-1.115523 -0.78947,-1.547435 -0.25375,-0.268993 -0.5079,-0.447675 -1.12272,-0.789345 -0.30052,-0.167007 -0.54668,-0.30959 -0.54702,-0.316851 -3.4e-4,-0.0073 0.26155,-0.100977 0.58197,-0.208258 0.32043,-0.107281 0.66616,-0.235106 0.76831,-0.284056 0.78428,-0.375856 1.3627,-1.144502 1.5148,-2.012951 0.0519,-0.296226 0.0515,-1.143977 -5.8e-4,-1.489795 -0.13028,-0.864334 -0.62281,-1.619815 -1.37899,-2.115206 -0.59243,-0.388117 -1.20653,-0.603981 -1.92182,-0.675543 -0.20015,-0.02003 -1.40681,-0.02661 -3.88143,-0.02118 l -3.59098,0.0079 -0.007,6.660481 -0.007,6.660482 h 1.00342 1.00341 z"
     id="path10" />
  <path
     style="fill:#ffffff;stroke:#000000;stroke-width:0.0528086"
     d="m 133.50007,62.893653 v -2.41264 l 2.41599,0.02465 c 2.60249,0.02655 2.70994,0.03723 3.27987,0.326032 0.34191,0.17326 0.76294,0.643819 0.91312,1.020526 0.10559,0.264877 0.12113,0.397499 0.12222,1.042792 0.001,0.716667 -0.004,0.749838 -0.16086,1.082576 -0.28443,0.602281 -0.76655,0.979782 -1.52712,1.195726 -0.27115,0.07699 -0.65773,0.09306 -2.68004,0.111472 l -2.36318,0.02151 z m 4.86201,1.316536 c 0.4107,-0.120632 0.61072,-0.260083 0.77577,-0.540849 0.13181,-0.224214 0.14476,-0.293617 0.14476,-0.77574 0,-0.464377 -0.0166,-0.561777 -0.13508,-0.791985 -0.11138,-0.216434 -0.18946,-0.290313 -0.44498,-0.421059 l -0.3099,-0.158569 -1.94461,-0.01618 -1.94461,-0.01618 v 1.402406 1.402407 h 1.78591 c 1.47984,0 1.83506,-0.01444 2.07274,-0.08425 z"
     id="path11" />
  <path
     style="fill:#ffffff;stroke:#000000;stroke-width:0.0528086"
     d="m 145.82505,72.712926 c 0.11042,-1.707901 0.76683,-3.283491 1.85412,-4.450474 0.17427,-0.187041 1.17671,-1.037897 2.22764,-1.890791 1.05094,-0.852894 2.03259,-1.687004 2.18146,-1.853577 0.14887,-0.166573 0.34595,-0.457325 0.43795,-0.646116 0.15566,-0.31939 0.1686,-0.389151 0.18616,-1.003363 0.0183,-0.642197 0.0147,-0.667961 -0.13304,-0.949589 -0.17463,-0.332772 -0.49647,-0.603475 -0.82293,-0.692161 -0.522,-0.14181 -1.38081,0.03245 -1.66286,0.337404 -0.31541,0.341031 -0.48686,0.953057 -0.48686,1.73791 v 0.569799 h -1.8483 -1.84831 v -0.446802 c 0,-1.166526 0.22191,-2.229789 0.64518,-3.091372 0.23912,-0.486725 0.33428,-0.61659 0.77867,-1.062622 0.4489,-0.450555 0.56895,-0.538642 1.05946,-0.777381 1.49369,-0.72701 3.5531,-0.775077 5.12503,-0.119619 1.38095,0.575829 2.38976,1.701594 2.79713,3.12141 0.14554,0.507259 0.19852,1.622047 0.10488,2.206584 -0.32204,2.010078 -1.43401,3.309104 -4.43979,5.186616 -0.20924,0.130702 -0.52599,0.373229 -0.70389,0.53895 l -0.32345,0.301311 2.81206,0.0023 2.81206,0.0023 v 1.769087 1.769087 h -5.39426 -5.39425 z m 9.80181,-1.209725 v -0.81814 l -3.32775,-0.0136 -3.32775,-0.0136 0.42563,-0.580895 c 0.73702,-1.00587 1.37593,-1.591043 2.47699,-2.268632 0.9326,-0.573919 1.58615,-1.080918 2.24784,-1.743784 0.58926,-0.59031 0.83413,-0.93596 1.06104,-1.497747 0.25649,-0.635004 0.30988,-0.93964 0.30689,-1.751015 -0.003,-0.682307 -0.0181,-0.811748 -0.14274,-1.188193 -0.37109,-1.120502 -1.19328,-1.969816 -2.332,-2.408954 -0.66092,-0.254876 -1.06926,-0.321687 -1.92968,-0.315722 -0.99833,0.0069 -1.59539,0.12639 -2.249,0.450014 -1.08913,0.539264 -1.77285,1.682735 -1.90477,3.18561 l -0.0336,0.382862 h 0.87909 0.87909 v -0.176383 c 0,-0.267434 0.19497,-0.976167 0.35729,-1.298792 0.29425,-0.584825 0.89172,-1.024396 1.58917,-1.169188 0.43403,-0.0901 1.29159,-0.03763 1.64452,0.100634 0.62037,0.243028 1.1676,0.840402 1.3548,1.478924 0.10176,0.347125 0.10893,1.439388 0.0121,1.846872 -0.0928,0.390485 -0.39699,0.969377 -0.70682,1.345003 -0.33403,0.40496 -0.49857,0.54719 -2.62647,2.270398 -1.64736,1.334064 -2.03926,1.700531 -2.4233,2.26606 -0.47219,0.695338 -0.99627,2.043959 -0.99668,2.56477 l -1.3e-4,0.171628 h 4.38311 4.38311 z"
     id="path12" />
  <path
     style="fill:#ffffff;stroke:#000000;stroke-width:0.0264043"
     d="m 58.897117,73.054059 c 0.03235,-0.575419 0.0724,-0.969805 0.130855,-1.288606 0.241161,-1.315206 0.895134,-2.615152 1.798271,-3.574551 0.162098,-0.172196 0.7236,-0.646335 1.839242,-1.553079 0.883251,-0.717866 1.697239,-1.365442 1.808862,-1.439058 0.688084,-0.453791 1.126894,-1.168219 1.217695,-1.982531 0.04708,-0.42225 0.03671,-0.88263 -0.02427,-1.077566 -0.140574,-0.449328 -0.476922,-0.775558 -0.93637,-0.908204 -0.202253,-0.05839 -0.844802,-0.04188 -1.070665,0.02751 -0.376509,0.115672 -0.63905,0.339005 -0.805612,0.6853 -0.182608,0.37966 -0.25056,0.777921 -0.25056,1.468533 v 0.473366 h -1.8483 -1.8483 v -0.41719 c 0,-3.307479 1.466164,-5.176571 4.322754,-5.510725 0.457544,-0.05352 1.453671,-0.05279 1.826056,0.0013 0.616719,0.08965 1.106619,0.237407 1.653657,0.498761 0.392136,0.187348 0.684956,0.363498 0.988986,0.594936 0.876483,0.667209 1.505112,1.714458 1.721771,2.868343 0.04926,0.26235 0.05914,0.40805 0.05979,0.88196 8.61e-4,0.623989 -0.02793,0.895936 -0.14609,1.379941 -0.147178,0.602869 -0.39563,1.158379 -0.760023,1.699327 -0.242658,0.360232 -0.413997,0.556124 -0.875164,1.000577 -0.71875,0.692701 -1.375775,1.18812 -2.412437,1.81906 -0.230891,0.140526 -0.5338,0.341149 -0.67313,0.445829 -0.265069,0.199148 -0.610143,0.510197 -0.610143,0.549983 0,0.01319 1.207717,0.02321 2.798854,0.02321 H 69.6017 v 1.78229 1.782289 h -5.358785 -5.358784 z m 9.701218,-1.551151 v -0.805229 l -3.326067,-0.0067 -3.326067,-0.0067 0.371774,-0.514884 c 0.457327,-0.633368 0.649245,-0.861277 1.05333,-1.250864 0.387248,-0.373353 0.846057,-0.720646 1.362644,-1.031445 0.648955,-0.390438 1.164242,-0.74768 1.633224,-1.132295 0.340324,-0.279101 0.876179,-0.780118 1.063388,-0.994252 0.5274,-0.603253 0.880462,-1.337728 1.00797,-2.096879 0.216451,-1.288706 -0.05111,-2.403266 -0.792161,-3.299826 -0.249314,-0.301633 -0.409744,-0.444119 -0.777515,-0.690556 -0.51195,-0.343047 -1.080339,-0.577624 -1.707466,-0.70468 -0.268851,-0.05447 -0.371703,-0.06057 -1.012176,-0.06006 -0.548847,4.38e-4 -0.779195,0.01119 -1.000915,0.04671 -0.976619,0.156452 -1.638326,0.471149 -2.182907,1.038156 -0.348742,0.363102 -0.574517,0.745757 -0.763658,1.294287 -0.149762,0.434327 -0.290408,1.180289 -0.290408,1.540278 v 0.08025 h 0.854879 0.854879 l 0.03223,-0.257442 c 0.163751,-1.308075 0.806272,-2.125856 1.862765,-2.370873 0.261697,-0.06069 0.861739,-0.09436 1.133333,-0.06359 1.072015,0.121439 1.927972,0.978103 2.043319,2.045005 0.02832,0.261967 0.0014,0.95643 -0.04959,1.280608 -0.07657,0.486525 -0.278322,0.993835 -0.571652,1.437425 -0.219512,0.331958 -0.670352,0.787049 -0.987044,0.996348 -0.307664,0.203333 -3.297254,2.636234 -3.500623,2.848775 -0.631717,0.660208 -1.133609,1.515972 -1.415947,2.414301 -0.0706,0.224627 -0.18763,0.735627 -0.216187,0.943953 l -0.01719,0.125421 h 4.331921 4.33192 z"
     id="path13" />
  <path
     style="fill:#ffffff;stroke:#000000;stroke-width:0.0264043"
     d="m 45.520989,65.641055 v -7.644041 h 1.980263 1.980263 l 0.0067,5.855151 0.0067,5.85515 3.544776,0.0067 3.544775,0.0067 v 1.782193 1.782194 H 51.052768 45.52107 Z m 10.086438,5.861752 V 70.697476 H 52.05605 48.504674 v -5.848549 -5.84855 h -1.003363 -1.003363 v 6.65388 6.653881 h 4.554739 4.55474 z"
     id="path14" />
</svg>
