<?xml version="1.0" encoding="UTF-8" standalone="no"?>
<svg
   id="Layer_1"
   data-name="Layer 1"
   width="67.41"
   height="33.21"
   viewBox="0 0 67.41 33.21"
   version="1.1"
   sodipodi:docname="start-select.svg"
   inkscape:version="1.3.2 (091e20e, 2023-11-25, custom)"
   xmlns:inkscape="http://www.inkscape.org/namespaces/inkscape"
   xmlns:sodipodi="http://sodipodi.sourceforge.net/DTD/sodipodi-0.dtd"
   xmlns="http://www.w3.org/2000/svg"
   xmlns:svg="http://www.w3.org/2000/svg">
  <sodipodi:namedview
     id="namedview4"
     pagecolor="#505050"
     bordercolor="#eeeeee"
     borderopacity="1"
     inkscape:showpageshadow="0"
     inkscape:pageopacity="0"
     inkscape:pagecheckerboard="0"
     inkscape:deskcolor="#505050"
     inkscape:zoom="19.863521"
     inkscape:cx="33.755345"
     inkscape:cy="16.588197"
     inkscape:window-width="1920"
     inkscape:window-height="1017"
     inkscape:window-x="-8"
     inkscape:window-y="-8"
     inkscape:window-maximized="1"
     inkscape:current-layer="Layer_1" />
  <defs
     id="defs1">
    <style
       id="style1">
      .cls-1 {
        fill: #f5f5f5;
        stroke: #fff;
        stroke-miterlimit: 10;
      }

      .cls-2 {
        fill: #929493;
      }
    </style>
  </defs>
  <g
     id="Menu_Pressed"
     data-name="Menu Pressed">
    <path
       class="cls-1"
       d="M66.91,16.6A16.1,16.1,0,1,1,50.81.5,16.11,16.11,0,0,1,66.91,16.6Z"
       id="path1"
       style="fill:#000000;stroke:#ffffff" />
    <g
       id="g3">
      <rect
         class="cls-2"
         x="43.61"
         y="11.98"
         width="14.36"
         height="1.55"
         id="rect1"
         style="fill:#000000;stroke:#ffffff" />
      <rect
         class="cls-2"
         x="43.61"
         y="15.9"
         width="14.36"
         height="1.55"
         id="rect2"
         style="fill:#000000;stroke:#ffffff" />
      <rect
         class="cls-2"
         x="43.61"
         y="19.71"
         width="14.36"
         height="1.53"
         id="rect3"
         style="fill:#000000;stroke:#ffffff" />
    </g>
  </g>
  <g
     id="Switcher_PRessed"
     data-name="Switcher PRessed">
    <path
       class="cls-1"
       d="M32.71,16.6A16.11,16.11,0,1,1,16.6.5,16.09,16.09,0,0,1,32.71,16.6Z"
       id="path3"
       style="fill:#000000;stroke:#ffffff" />
    <g
       id="g4">
      <polygon
         class="cls-2"
         points="14.09 16.5 11.06 16.5 11.06 12.72 16.53 12.72 16.53 14.04 18.33 14.04 18.33 10.98 9.44 10.98 9.44 18.37 14.09 18.37 14.09 16.5"
         id="polygon3"
         style="fill:#000000;stroke:#ffffff" />
      <path
         class="cls-2"
         d="M14.84,14.66v7.59h9V14.66ZM22,20.45H16.53V16.5H22Z"
         id="path4"
         style="fill:#000000;stroke:#ffffff" />
    </g>
  </g>
  <path
     style="fill:#000000;stroke:#ffffff;stroke-width:0.0503435"
     d="M 48.959094,33.069754 C 44.388432,32.535737 40.293689,30.187203 37.55865,26.531047 36.23161,24.757081 35.332949,22.899167 34.786037,20.798881 33.426609,15.578319 34.636642,10.16013 38.095607,5.9795471 c 0.543837,-0.6572923 1.821974,-1.8982772 2.48308,-2.4109031 3.122442,-2.4211607 6.848088,-3.64688513 10.721382,-3.52729643 3.98642,0.12308148 7.669668,1.61013583 10.647659,4.29882703 3.236139,2.921761 5.224209,7.1351674 5.404141,11.4532364 0.173621,4.166628 -1.04885,7.925782 -3.643294,11.203297 -0.465804,0.588441 -1.695516,1.839927 -2.293728,2.334342 -2.589634,2.140296 -5.704665,3.437401 -9.050312,3.768567 -0.726568,0.07192 -2.68098,0.05478 -3.405441,-0.02986 z m 3.423361,-0.931394 c 2.94937,-0.2809 5.859685,-1.473598 8.24107,-3.377334 0.685723,-0.548183 1.829174,-1.693725 2.367666,-2.371996 1.862829,-2.346371 2.986454,-5.044326 3.33746,-8.013637 0.101387,-0.857677 0.115422,-2.538341 0.02796,-3.347846 C 66.032869,12.031276 64.93306,9.3125549 63.077754,6.922237 62.616174,6.3275519 61.5,5.178593 60.865342,4.6448407 57.371147,1.7061971 52.800703,0.45370098 48.254285,1.1888748 47.466186,1.3163135 46.285374,1.6247553 45.476557,1.9144498 44.689835,2.1962302 43.206973,2.9204381 42.489949,3.3730643 40.037215,4.92137 38.112758,7.059321 36.825457,9.66596 c -0.719324,1.456548 -1.183789,2.887974 -1.429341,4.40506 -0.651976,4.028083 0.282157,8.14788 2.599497,11.464522 1.914452,2.740019 4.638992,4.783517 7.81701,5.863027 2.080915,0.706846 4.29638,0.956316 6.569832,0.739791 z"
     id="path2" />
  <path
     style="fill:#000000;stroke:#ffffff;stroke-width:0.0503435"
     d="m 15.63167,33.172141 c -0.110756,-0.01101 -0.447935,-0.04391 -0.749288,-0.07311 -2.10793,-0.204269 -4.379754,-0.91356 -6.2736364,-1.958705 C 7.9316215,30.766654 6.8164793,30.015208 6.1670839,29.494997 5.4554175,28.924903 4.2736319,27.742681 3.7074771,27.034482 1.7183487,24.546295 0.52042359,21.687214 0.12159628,18.47608 0.00227514,17.515373 0.00133124,15.70968 0.11964888,14.750658 0.53364003,11.395058 1.7964521,8.475149 3.9407658,5.9153662 7.3383606,1.8594741 12.599603,-0.34091577 17.902404,0.07624195 c 3.932483,0.30935828 7.621808,2.01169075 10.416519,4.80640115 2.796755,2.7967547 4.476449,6.4247439 4.810852,10.3910089 0.07262,0.861278 0.03457,2.587678 -0.07501,3.403802 -0.407515,3.035014 -1.549263,5.764069 -3.421841,8.179033 -0.51116,0.659216 -1.751879,1.937567 -2.409983,2.48308 -2.479489,2.055289 -5.435852,3.332798 -8.646172,3.736202 -0.601522,0.07559 -2.521915,0.138427 -2.945097,0.09637 z m 2.945097,-1.053037 c 3.142364,-0.428689 5.904749,-1.667032 8.281513,-3.7125 2.448901,-2.107552 4.27279,-5.153165 4.983388,-8.321495 0.292976,-1.306285 0.347171,-1.839633 0.350214,-3.446568 0.0025,-1.311053 -0.01101,-1.576602 -0.115115,-2.26546 C 31.336229,9.4729736 28.504455,5.3646128 24.189704,2.9304675 22.970105,2.2424371 21.385976,1.6457498 19.953094,1.3346814 18.167829,0.9471132 16.063258,0.8819669 14.231503,1.1575715 9.89844,1.809521 5.9433516,4.3446943 3.5495135,8.0046231 1.1977741,11.600187 0.41405554,15.918709 1.3593579,20.073032 c 0.9449485,4.152768 3.5192718,7.71673 7.1727906,9.930204 1.9909485,1.20621 4.2982475,1.952118 6.7722885,2.189356 0.667926,0.06405 2.578709,0.02114 3.27233,-0.07349 z"
     id="path5" />
</svg>
