<?xml version="1.0" encoding="UTF-8" standalone="no"?>
<svg
   id="Layer_1"
   data-name="Layer 1"
   width="88.93"
   height="121.8"
   viewBox="0 0 88.93 121.8"
   version="1.1"
   sodipodi:docname="trigger.svg"
   inkscape:version="1.3.2 (091e20e, 2023-11-25, custom)"
   xmlns:inkscape="http://www.inkscape.org/namespaces/inkscape"
   xmlns:sodipodi="http://sodipodi.sourceforge.net/DTD/sodipodi-0.dtd"
   xmlns="http://www.w3.org/2000/svg"
   xmlns:svg="http://www.w3.org/2000/svg">
  <sodipodi:namedview
     id="namedview3"
     pagecolor="#505050"
     bordercolor="#eeeeee"
     borderopacity="1"
     inkscape:showpageshadow="0"
     inkscape:pageopacity="0"
     inkscape:pagecheckerboard="0"
     inkscape:deskcolor="#505050"
     inkscape:zoom="6.7405581"
     inkscape:cx="44.432522"
     inkscape:cy="60.900002"
     inkscape:window-width="1920"
     inkscape:window-height="1017"
     inkscape:window-x="-8"
     inkscape:window-y="-8"
     inkscape:window-maximized="1"
     inkscape:current-layer="Layer_1" />
  <defs
     id="defs1">
    <style
       id="style1">
      .cls-1 {
        fill: #e5e5e5;
      }

      .cls-2 {
        fill: #ebebeb;
      }
    </style>
  </defs>
  <g
     id="LT_Pressed"
     data-name="LT Pressed">
    <path
       class="cls-1"
       d="M74.75,56.08v-.67A5.91,5.91,0,0,1,74.75,56.08Z"
       transform="translate(0 0)"
       id="path1" />
    <path
       class="cls-1"
       d="M49.72,5.47c.4-.32.8-.62,1.21-.9l2.32,110L0,121.79C12.07,5,43,10.76,49.72,5.47Z"
       transform="translate(0 0)"
       id="path2"
       style="fill:#000000;stroke:#ffffff" />
    <path
       class="cls-2"
       d="M76.74.14C87.57.55,88.81,11.58,88.93,15.33v1.23a819.52,819.52,0,0,0,0,93.09C79,111.94,50.39,115,50.39,115s0-20.91-.68-50.6c-.81-37.5,1.22-59.78,1.22-59.78C57.34.09,64.49-.31,76.74.14Z"
       transform="translate(0 0)"
       id="path3"
       style="fill:#000000;stroke:#ffffff" />
  </g>
</svg>
