<?xml version="1.0" encoding="UTF-8" standalone="no"?>
<svg
   id="Layer_1"
   data-name="Layer 1"
   width="195.57"
   height="96.74"
   viewBox="0 0 195.57 96.74"
   version="1.1"
   sodipodi:docname="abxy.svg"
   inkscape:version="1.3.2 (091e20e, 2023-11-25, custom)"
   xmlns:inkscape="http://www.inkscape.org/namespaces/inkscape"
   xmlns:sodipodi="http://sodipodi.sourceforge.net/DTD/sodipodi-0.dtd"
   xmlns="http://www.w3.org/2000/svg"
   xmlns:svg="http://www.w3.org/2000/svg">
  <sodipodi:namedview
     id="namedview19"
     pagecolor="#505050"
     bordercolor="#eeeeee"
     borderopacity="1"
     inkscape:showpageshadow="0"
     inkscape:pageopacity="0"
     inkscape:pagecheckerboard="0"
     inkscape:deskcolor="#505050"
     inkscape:zoom="4.8413148"
     inkscape:cx="101.1089"
     inkscape:cy="35.837372"
     inkscape:window-width="1920"
     inkscape:window-height="1017"
     inkscape:window-x="-8"
     inkscape:window-y="-8"
     inkscape:window-maximized="1"
     inkscape:current-layer="Layer_1" />
  <defs
     id="defs1">
    <style
       id="style1">
      .cls-1 {
        fill: #141414;
      }

      .cls-2 {
        isolation: isolate;
      }

      .cls-3 {
        fill: #39b54a;
      }

      .cls-4 {
        fill: #c1272d;
      }

      .cls-5 {
        fill: #fcee21;
      }

      .cls-6 {
        fill: #0071bc;
      }

      .cls-7 {
        fill: #fff;
      }

      .cls-8 {
        fill: #c64ab5;
      }

      .cls-9 {
        fill: #3ed8d2;
      }

      .cls-10 {
        fill: #0311de;
      }

      .cls-11 {
        fill: #ff8e43;
      }
    </style>
  </defs>
  <g
     id="g10">
    <g
       id="g3">
      <g
         id="A">
        <path
           class="cls-1"
           d="M23.69,0A23.68,23.68,0,1,1,0,23.68,23.69,23.69,0,0,1,23.69,0Z"
           id="path1" />
      </g>
      <g
         class="cls-2"
         id="g2">
        <path
           class="cls-3"
           d="M32.45,38.83l-2.78-7.66H17.54L14.9,38.83H9.42L20.88,8.53h5.59L38,38.83ZM23.66,13.08h-.13a10.82,10.82,0,0,1-.45,2.17L18.94,26.93h9.3L24.07,15.25A11.49,11.49,0,0,1,23.66,13.08Z"
           id="path2" />
      </g>
    </g>
    <g
       id="g5">
      <g
         id="B">
        <path
           class="cls-1"
           d="M73.08,0A23.69,23.69,0,1,1,49.39,23.69,23.7,23.7,0,0,1,73.08,0Z"
           id="path3" />
      </g>
      <g
         class="cls-2"
         id="g4">
        <path
           class="cls-4"
           d="M83.29,30a7.94,7.94,0,0,1-2.93,6.39,11.38,11.38,0,0,1-7.56,2.43H62.89V8.53h9.57a11.41,11.41,0,0,1,6.87,1.88,6.05,6.05,0,0,1,2.52,5.09,6.76,6.76,0,0,1-1.5,4.35,7.92,7.92,0,0,1-4,2.67v.09A8.15,8.15,0,0,1,81.46,25,7.22,7.22,0,0,1,83.29,30ZM76.52,16.47a3.3,3.3,0,0,0-1.33-2.79,6.79,6.79,0,0,0-4-1H67.93v8.39h3.23a5.93,5.93,0,0,0,4-1.2A4.29,4.29,0,0,0,76.52,16.47ZM78,29.87a4.11,4.11,0,0,0-1.55-3.41,7.58,7.58,0,0,0-4.68-1.2H67.93v9.41h4.24a6.36,6.36,0,0,0,4.24-1.31A4.26,4.26,0,0,0,78,29.87Z"
           id="path4" />
      </g>
    </g>
    <g
       id="g7">
      <g
         id="Y">
        <path
           class="cls-1"
           d="M171.87,0a23.69,23.69,0,1,1-23.69,23.69A23.69,23.69,0,0,1,171.87,0Z"
           id="path5" />
      </g>
      <g
         class="cls-2"
         id="g6">
        <path
           class="cls-5"
           d="M174.27,27.85v11h-5V28L159.42,8.53h5.72l6.1,12.65a6.27,6.27,0,0,1,.44,1.12c.1.34.17.61.25.83h0a8.28,8.28,0,0,1,.69-1.91L179,8.53h5.31Z"
           id="path6" />
      </g>
    </g>
    <g
       id="g9">
      <g
         id="X">
        <path
           class="cls-1"
           d="M122.47,0A23.69,23.69,0,1,1,98.79,23.69,23.7,23.7,0,0,1,122.47,0Z"
           id="path7" />
      </g>
      <g
         class="cls-2"
         id="g8">
        <path
           class="cls-6"
           d="M129.59,38.83l-6.41-11a5.14,5.14,0,0,1-.3-.76,5.44,5.44,0,0,0-.22-.76h-.09c-.11.27-.19.52-.27.77a4.94,4.94,0,0,1-.33.75l-6.53,11h-6.12l10.14-15.19L110.2,8.53h6.19l5.4,10a10.25,10.25,0,0,1,1,2.27h.08c.3-.79.53-1.31.65-1.56s2.21-3.8,6.27-10.66h5.68l-9.46,15,9.58,15.28Z"
           id="path8" />
      </g>
    </g>
  </g>
  <g
     id="g19">
    <g
       id="g12">
      <g
         id="A-2"
         data-name="A">
        <path
           class="cls-7"
           d="M23.69,49.38A23.68,23.68,0,1,1,0,73.06,23.68,23.68,0,0,1,23.69,49.38Z"
           id="path10" />
      </g>
      <g
         class="cls-2"
         id="g11">
        <path
           class="cls-8"
           d="M32.45,88.21l-2.78-7.66H17.54L14.9,88.21H9.42L20.88,57.9h5.59L38,88.21ZM23.66,62.46h-.13a11.13,11.13,0,0,1-.45,2.17L18.94,76.31h9.3L24.07,64.63A11.67,11.67,0,0,1,23.66,62.46Z"
           id="path11" />
      </g>
    </g>
    <g
       id="g14">
      <g
         id="B-2"
         data-name="B">
        <path
           class="cls-7"
           d="M73.08,49.37A23.69,23.69,0,1,1,49.39,73.06,23.7,23.7,0,0,1,73.08,49.37Z"
           id="path12" />
      </g>
      <g
         class="cls-2"
         id="g13">
        <path
           class="cls-9"
           d="M83.29,79.38a7.92,7.92,0,0,1-2.93,6.39,11.39,11.39,0,0,1-7.56,2.44H62.89V57.9h9.57a11.34,11.34,0,0,1,6.87,1.89,6,6,0,0,1,2.52,5.09,6.75,6.75,0,0,1-1.5,4.34,7.86,7.86,0,0,1-4,2.67V72a8,8,0,0,1,5.07,2.37A7.17,7.17,0,0,1,83.29,79.38ZM76.52,65.84a3.3,3.3,0,0,0-1.33-2.79,6.8,6.8,0,0,0-4-1H67.93v8.38h3.23a5.93,5.93,0,0,0,4-1.2A4.27,4.27,0,0,0,76.52,65.84ZM78,79.25a4.1,4.1,0,0,0-1.55-3.41,7.52,7.52,0,0,0-4.68-1.21H67.93v9.42h4.24a6.36,6.36,0,0,0,4.24-1.31A4.28,4.28,0,0,0,78,79.25Z"
           id="path13" />
      </g>
    </g>
    <g
       id="g16">
      <g
         id="Y-2"
         data-name="Y">
        <path
           class="cls-7"
           d="M171.87,49.37a23.69,23.69,0,1,1-23.69,23.69A23.7,23.7,0,0,1,171.87,49.37Z"
           id="path14" />
      </g>
      <g
         class="cls-2"
         id="g15">
        <path
           class="cls-10"
           d="M174.27,77.22v11h-5V77.34l-9.85-19.43h5.72l6.1,12.64a6.27,6.27,0,0,1,.44,1.12c.1.34.17.61.25.83h0a8.2,8.2,0,0,1,.69-1.9L179,57.91h5.31Z"
           id="path15" />
      </g>
    </g>
    <g
       id="g18">
      <g
         id="X-2"
         data-name="X">
        <path
           class="cls-7"
           d="M122.47,49.37A23.69,23.69,0,1,1,98.79,73.06,23.7,23.7,0,0,1,122.47,49.37Z"
           id="path16" />
      </g>
      <g
         class="cls-2"
         id="g17">
        <path
           class="cls-11"
           d="M129.59,88.21l-6.41-11a5.22,5.22,0,0,1-.3-.77,5.86,5.86,0,0,0-.22-.76h-.09c-.11.28-.19.52-.27.78a4.94,4.94,0,0,1-.33.75l-6.53,11h-6.12L119.46,73,110.2,57.9h6.18l5.41,10a10.7,10.7,0,0,1,1,2.26h.08c.3-.79.53-1.31.65-1.56s2.21-3.79,6.27-10.66h5.68l-9.46,15,9.58,15.29Z"
           id="path17" />
      </g>
    </g>
  </g>
  <path
     style="fill:#37c837;stroke:#37c837;stroke-width:0.146057"
     d="M 9.6851053,38.303386 C 9.7925399,38.04231 12.37028,31.239716 15.413417,23.186511 L 20.946394,8.5443207 h 2.730652 2.730652 l 0.145317,0.4016561 c 0.07992,0.2209109 2.625325,6.9084852 5.656447,14.8612762 3.031121,7.95279 5.543121,14.574639 5.58222,14.715219 0.06585,0.236744 -0.126796,0.255559 -2.611481,0.255054 l -2.682571,-5.43e-4 -1.390003,-3.833447 -1.390002,-3.833445 h -6.115879 -6.115878 l -1.313534,3.83399 -1.313534,3.83399 H 12.174285 9.4897695 Z M 27.684402,25.158278 C 24.562734,16.406483 23.935292,14.5702 23.839785,13.90657 c -0.06027,-0.418804 -0.174404,-0.740498 -0.253629,-0.714875 -0.07922,0.02562 -0.221934,0.452838 -0.317132,0.949369 -0.1374,0.716648 -2.549455,7.73036 -4.140489,12.039611 l -0.283112,0.766798 h 4.738583 4.738583 z"
     id="path19" />
  <path
     style="fill:#37c837;stroke:#37c837;stroke-width:0.146057"
     d="M 62.950465,23.659668 V 8.5214393 l 5.951814,0.059056 c 5.643708,0.055999 6.008519,0.075965 7.047238,0.385693 3.889098,1.1596617 5.834269,3.3316777 5.840537,6.5216567 0.0037,1.883765 -0.706511,3.543874 -2.126973,4.971759 -0.826572,0.830891 -2.682758,1.960109 -3.221989,1.960109 -0.109703,0 -0.199461,0.05726 -0.199461,0.12724 0,0.06998 0.343315,0.172783 0.762921,0.228446 1.075852,0.142717 2.673586,0.845663 3.628609,1.596461 3.173568,2.49492 3.479652,7.785348 0.63734,11.015933 -1.135514,1.290629 -3.057485,2.433581 -5.107165,3.037111 -0.754142,0.222058 -1.699449,0.264309 -7.041972,0.314739 l -6.170899,0.05825 z M 74.95657,34.274879 c 1.078613,-0.430511 2.257,-1.494318 2.693438,-2.431542 0.505555,-1.085652 0.49131,-2.936882 -0.03066,-3.98434 -0.632021,-1.268301 -1.878868,-2.113828 -3.6853,-2.499122 -0.425693,-0.0908 -1.953812,-0.165083 -3.39582,-0.165083 h -2.621833 v 4.757235 4.757235 l 3.103707,-0.051 c 2.818447,-0.04631 3.180244,-0.08155 3.936468,-0.383383 z M 74.022769,20.606756 c 1.775258,-0.81969 2.584118,-2.22345 2.488931,-4.319495 C 76.466508,15.29211 76.401042,15.057132 76.016572,14.510098 75.002788,13.06766 73.683723,12.63391 70.310947,12.63391 h -2.394552 v 4.247474 4.247475 l 2.592508,-0.04834 c 2.505565,-0.04672 2.623406,-0.06261 3.513866,-0.47376 z"
     id="path20" />
  <path
     style="fill:#37c837;stroke:#37c837;stroke-width:0.146057"
     d="m 109.54257,38.706995 c 0,-0.04242 2.23925,-3.435031 4.97611,-7.539142 2.81425,-4.220151 4.94223,-7.550314 4.89812,-7.665256 -0.0881,-0.229538 -8.80905,-14.4926859 -9.03437,-14.7757053 -0.11534,-0.1448821 0.48399,-0.1820974 2.90322,-0.1802771 l 3.04856,0.00229 2.92114,5.4194494 c 1.60662,2.980698 3.04496,5.740138 3.19629,6.13209 0.15134,0.391953 0.32132,0.712641 0.37775,0.712641 0.0564,0 0.26809,-0.383592 0.47038,-0.852428 0.2023,-0.468835 1.60572,-2.949974 3.11872,-5.513643 1.51301,-2.563668 2.88637,-4.9071435 3.05193,-5.2077229 l 0.30102,-0.5465081 2.73856,-0.0012 c 1.50621,-6.626e-4 2.73856,0.051376 2.73856,0.1156407 0,0.064265 -0.0595,0.1792847 -0.13222,0.2555993 -0.0727,0.076315 -2.16992,3.373712 -4.66044,7.327548 l -4.52821,7.188794 4.58763,7.317352 c 2.52319,4.024543 4.65556,7.444297 4.7386,7.599454 0.14686,0.274396 0.0721,0.282006 -2.73878,0.278639 l -2.88976,-0.0035 -3.26439,-5.617059 c -1.79541,-3.089382 -3.33996,-5.873022 -3.43233,-6.185866 -0.0924,-0.312845 -0.23368,-0.568967 -0.31401,-0.569162 -0.0803,-1.98e-4 -0.26216,0.30386 -0.40407,0.675683 -0.14191,0.371822 -1.72538,3.140749 -3.51882,6.15317 l -3.26081,5.477129 -2.94419,0.03954 c -1.6193,0.02174 -2.94419,0.0048 -2.94419,-0.03759 z"
     id="path21" />
  <path
     style="fill:#37c837;stroke:#37c837;stroke-width:0.146057"
     d="m 169.27979,33.297598 v -5.480474 l -3.30494,-6.532695 c -1.81771,-3.592983 -4.02133,-7.930789 -4.89693,-9.63957 l -1.59199,-3.1068741 2.80687,0.039682 2.80686,0.039682 3.1742,6.5725541 c 1.74581,3.614905 3.25743,6.884751 3.35916,7.266325 0.10173,0.381573 0.22786,0.693769 0.28028,0.693769 0.0524,0 0.17825,-0.276759 0.2796,-0.615021 0.10134,-0.338262 1.6893,-3.624539 3.52879,-7.302838 l 3.34453,-6.6878175 h 2.55714 2.55715 l -0.64417,1.2779967 c -0.35429,0.7028988 -2.58962,5.0199008 -4.96739,9.5933378 l -4.32323,8.315341 v 5.523538 5.523537 h -2.48297 -2.48296 z"
     id="path22" />
  <path
     style="fill:#ff0000;stroke:#ff0000;stroke-width:0.146057"
     d="m 11.745757,82.266472 c 1.221675,-3.233331 3.792437,-10.035925 5.712805,-15.116875 l 3.491577,-9.23809 h 2.728779 2.72878 l 0.144576,0.401656 c 0.07952,0.220911 2.62412,6.908485 5.654674,14.861276 3.030554,7.952791 5.542885,14.574639 5.58296,14.715219 0.0675,0.236799 -0.124449,0.255588 -2.609707,0.25544 l -2.682571,-1.58e-4 -1.374083,-3.797318 -1.374085,-3.797317 -6.147839,4.55e-4 -6.14784,4.52e-4 -1.296549,3.797024 -1.296549,3.797021 H 12.192607 9.5245293 Z M 28.125069,75.766946 C 25.320538,67.96903 24.046282,64.287371 23.922398,63.624341 c -0.08426,-0.450963 -0.177035,-0.906255 -0.206169,-1.011761 -0.103647,-0.375353 -0.31011,-0.02276 -0.404844,0.691383 -0.07579,0.571308 -1.866047,5.8088 -4.260052,12.462983 l -0.197053,0.547713 h 4.733887 4.733887 z"
     id="path23" />
  <path
     style="fill:#ff0000;stroke:#ff0000;stroke-width:0.146057"
     d="M 62.950465,73.024412 V 57.886266 l 5.951814,0.06172 c 5.619456,0.05828 6.012983,0.0798 7.047238,0.385537 2.209337,0.653094 3.961372,1.760037 4.807433,3.037355 2.187036,3.301822 0.742056,7.985436 -3.048746,9.881896 -0.587207,0.293769 -1.157408,0.534125 -1.267112,0.534125 -0.109703,0 -0.199461,0.05826 -0.199461,0.129473 0,0.07121 0.309614,0.175902 0.68803,0.232649 3.020385,0.452934 5.502481,2.72985 6.112336,5.607061 0.948123,4.473116 -1.727292,8.481543 -6.654309,9.969782 -1.049261,0.316938 -1.355489,0.333111 -7.266324,0.383788 l -6.170899,0.05291 z m 12.282782,10.487351 c 1.18129,-0.582006 1.961352,-1.323172 2.412635,-2.292335 0.50981,-1.094855 0.497539,-2.941566 -0.02653,-3.993244 -0.632021,-1.268302 -1.878868,-2.113829 -3.6853,-2.499122 -0.425693,-0.0908 -1.953812,-0.165084 -3.39582,-0.165084 h -2.621833 v 4.757057 4.757057 l 3.180561,-0.04673 3.18056,-0.04673 z M 73.977751,69.989447 c 1.716834,-0.80306 2.431451,-1.85039 2.528859,-3.706253 C 76.614129,64.23468 75.941513,63.153782 74.106402,62.426046 73.341489,62.122709 72.95569,62.079539 70.581931,62.03166 L 67.916395,61.9779 v 4.259074 4.259074 l 2.592508,-0.04834 c 2.485098,-0.04634 2.628815,-0.06533 3.468848,-0.458256 z"
     id="path24" />
  <path
     style="fill:#ff0000;stroke:#ff0000;stroke-width:0.146057"
     d="m 109.54257,88.074182 c 0,-0.04242 2.23925,-3.435032 4.97611,-7.539142 3.01756,-4.525036 4.94367,-7.546555 4.89369,-7.676801 -0.0911,-0.23742 -8.79722,-14.472397 -9.02977,-14.764161 -0.11548,-0.144897 0.48357,-0.181778 2.90305,-0.178726 l 3.04856,0.0038 2.92114,5.419529 c 1.60662,2.980741 3.04496,5.739484 3.19629,6.130539 0.15134,0.391056 0.32132,0.71101 0.37775,0.71101 0.0564,0 0.26981,-0.387577 0.4742,-0.861282 0.2044,-0.473705 1.74328,-3.199101 3.41974,-6.056435 l 3.04811,-5.195154 2.7437,-0.0049 c 2.70364,-0.0048 2.74141,-6.34e-4 2.5866,0.288631 -0.13086,0.244508 -7.1243,11.35822 -8.70024,13.826083 l -0.48241,0.755441 4.59193,7.324208 c 2.52556,4.028314 4.65986,7.451153 4.7429,7.606309 0.14684,0.274369 0.0718,0.282059 -2.73878,0.280531 l -2.88976,-0.0016 -3.20948,-5.512074 c -1.76521,-3.03164 -3.32165,-5.8407 -3.45876,-6.242356 -0.13711,-0.401656 -0.30312,-0.705875 -0.36892,-0.676042 -0.0658,0.02983 -0.23526,0.358462 -0.3766,0.730284 -0.14133,0.371823 -1.72234,3.140749 -3.51335,6.15317 l -3.25638,5.477129 -2.94966,0.03954 c -1.62231,0.02174 -2.94966,0.0048 -2.94966,-0.03759 z"
     id="path25" />
  <path
     style="fill:#ff0000;stroke:#ff0000;stroke-width:0.146057"
     d="m 169.27979,82.652508 v -5.49275 l -3.30478,-6.520419 c -1.81763,-3.586231 -4.02358,-7.918521 -4.90212,-9.627312 l -1.59733,-3.106892 2.80921,0.0397 2.80922,0.0397 3.17685,6.572555 c 1.74728,3.614905 3.26018,6.884751 3.362,7.266324 0.10183,0.381573 0.22804,0.693769 0.28046,0.693769 0.0524,0 0.17825,-0.276759 0.2796,-0.615021 0.10134,-0.338261 1.6893,-3.624538 3.52879,-7.302838 l 3.34453,-6.687817 h 2.55568 c 1.40562,0 2.55568,0.01789 2.55568,0.03975 0,0.02186 -2.23467,4.338964 -4.96593,9.593562 l -4.96593,9.553813 v 5.523315 5.523313 h -2.48297 -2.48296 z"
     id="path26" />
</svg>
