<?xml version="1.0" encoding="UTF-8" standalone="no"?>
<svg
   id="Layer_1"
   data-name="Layer 1"
   width="67.41"
   height="33.21"
   viewBox="0 0 67.41 33.21"
   version="1.1"
   sodipodi:docname="start-select.svg"
   inkscape:version="1.3.2 (091e20e, 2023-11-25, custom)"
   xmlns:inkscape="http://www.inkscape.org/namespaces/inkscape"
   xmlns:sodipodi="http://sodipodi.sourceforge.net/DTD/sodipodi-0.dtd"
   xmlns="http://www.w3.org/2000/svg"
   xmlns:svg="http://www.w3.org/2000/svg">
  <sodipodi:namedview
     id="namedview4"
     pagecolor="#505050"
     bordercolor="#eeeeee"
     borderopacity="1"
     inkscape:showpageshadow="0"
     inkscape:pageopacity="0"
     inkscape:pagecheckerboard="0"
     inkscape:deskcolor="#505050"
     inkscape:zoom="19.863521"
     inkscape:cx="33.705002"
     inkscape:cy="16.588197"
     inkscape:window-width="1920"
     inkscape:window-height="1017"
     inkscape:window-x="-8"
     inkscape:window-y="-8"
     inkscape:window-maximized="1"
     inkscape:current-layer="Layer_1" />
  <defs
     id="defs1">
    <style
       id="style1">
      .cls-1 {
        fill: #f5f5f5;
        stroke: #fff;
        stroke-miterlimit: 10;
      }

      .cls-2 {
        fill: #929493;
      }
    </style>
  </defs>
  <g
     id="Menu_Pressed"
     data-name="Menu Pressed">
    <path
       class="cls-1"
       d="M66.91,16.6A16.1,16.1,0,1,1,50.81.5,16.11,16.11,0,0,1,66.91,16.6Z"
       id="path1" />
    <g
       id="g3">
      <rect
         class="cls-2"
         x="43.61"
         y="11.98"
         width="14.36"
         height="1.55"
         id="rect1" />
      <rect
         class="cls-2"
         x="43.61"
         y="15.9"
         width="14.36"
         height="1.55"
         id="rect2" />
      <rect
         class="cls-2"
         x="43.61"
         y="19.71"
         width="14.36"
         height="1.53"
         id="rect3" />
    </g>
  </g>
  <g
     id="Switcher_PRessed"
     data-name="Switcher PRessed">
    <path
       class="cls-1"
       d="M32.71,16.6A16.11,16.11,0,1,1,16.6.5,16.09,16.09,0,0,1,32.71,16.6Z"
       id="path3" />
    <g
       id="g4">
      <polygon
         class="cls-2"
         points="14.09 16.5 11.06 16.5 11.06 12.72 16.53 12.72 16.53 14.04 18.33 14.04 18.33 10.98 9.44 10.98 9.44 18.37 14.09 18.37 14.09 16.5"
         id="polygon3" />
      <path
         class="cls-2"
         d="M14.84,14.66v7.59h9V14.66ZM22,20.45H16.53V16.5H22Z"
         id="path4" />
    </g>
  </g>
  <path
     style="fill:#37c837;stroke:#37c837;stroke-width:0.0503435"
     d="m 9.464586,14.675143 v -3.675079 h 4.430232 4.430232 v 1.510306 1.510307 h -0.881012 -0.881012 v -0.654466 -0.654466 h -2.768895 -2.768895 v 1.913054 1.913055 h 1.510306 1.510306 v 0.906184 0.906183 H 11.755217 9.464586 Z"
     id="path5" />
  <path
     style="fill:#37c837;stroke:#37c837;stroke-width:0.0503435"
     d="m 14.851345,18.450908 v -3.775765 h 4.480575 4.480576 v 3.775765 3.775766 H 19.33192 14.851345 Z m 7.148783,0.02517 v -1.98857 h -2.743723 -2.743723 v 1.98857 1.98857 h 2.743723 2.743723 z"
     id="path6" />
  <path
     style="fill:#37c837;stroke:#37c837;stroke-width:0.0503435"
     d="m 43.647852,16.688884 v -0.755153 h 7.148783 7.148783 v 0.755153 0.755154 h -7.148783 -7.148783 z"
     id="path7" />
  <path
     style="fill:#37c837;stroke:#37c837;stroke-width:0.0503435"
     d="m 43.647852,12.762088 v -0.755153 h 7.148783 7.148783 v 0.755153 0.755153 h -7.148783 -7.148783 z"
     id="path8" />
  <path
     style="fill:#37c837;stroke:#37c837;stroke-width:0.0503435"
     d="m 43.647852,20.46465 v -0.755153 h 7.148783 7.148783 v 0.755153 0.755153 h -7.148783 -7.148783 z"
     id="path9" />
</svg>
