<svg version="1.2" xmlns="http://www.w3.org/2000/svg" viewBox="0 0 326 106" width="326" height="106">
	<title>Sticks</title>
	<style>
		.s0 { fill: #e5353b } 
		.s1 { fill: #e12229 } 
		.s2 { fill: #b9191a } 
		.s3 { fill: #39c8c3 } 
		.s4 { fill: #3ed8d2 } 
		.s5 { fill: #61e0df } 
		.s6 { fill: #000000 } 
	</style>
	<g id="LS + RS">
		<path id="Stick Base" fill-rule="evenodd" class="s0" d="m53 106c-29.31 0-53-23.69-53-53 0-29.31 23.69-53 53-53 29.31 0 53 23.69 53 53 0 29.31-23.69 53-53 53z"/>
		<path id="Ring 1" fill-rule="evenodd" class="s1" d="m52.5 0.1c3.3-0.04 8.81 0.6 12.25 1.41 3.44 0.82 9.06 2.91 12.5 4.64 3.44 1.73 9.08 5.89 12.54 9.25 3.75 3.63 7.67 8.73 9.69 12.6 1.87 3.58 4.09 9.42 4.94 13 0.85 3.58 1.55 8.98 1.55 12 0 3.02-0.67 8.31-1.48 11.75-0.82 3.44-2.91 9.06-4.64 12.5-1.73 3.44-5.89 9.08-9.25 12.54-3.63 3.75-8.73 7.67-12.6 9.69-3.58 1.87-9.42 4.09-13 4.94-3.58 0.85-8.98 1.55-12 1.55-3.02 0-8.42-0.7-12-1.55-3.58-0.85-9.42-3.07-13-4.94-3.87-2.02-8.97-5.94-12.6-9.69-3.36-3.46-7.52-9.1-9.25-12.54-1.73-3.44-3.82-9.06-4.64-12.5-0.81-3.44-1.48-8.73-1.48-11.75 0-3.02 0.67-8.31 1.48-11.75 0.82-3.44 2.91-9.06 4.64-12.5 1.73-3.44 5.89-9.08 9.25-12.54 3.62-3.74 8.74-7.68 12.6-9.7 3.58-1.87 9.2-4.07 12.5-4.87 3.3-0.81 8.7-1.5 12-1.54zm-9.5 21.46c-2.48 0.79-6.26 2.67-8.42 4.19-2.16 1.51-5.67 5-7.8 7.75-2.14 2.75-4.58 7.47-5.44 10.5-0.98 3.45-1.39 7.74-1.09 11.5 0.25 3.3 1.37 8.03 2.48 10.5 1.11 2.47 3.77 6.46 5.9 8.86 2.29 2.58 6.51 5.64 10.35 7.5 5.51 2.67 7.61 3.14 14.02 3.14 6.41 0 8.51-0.47 14.02-3.14 3.84-1.86 8.06-4.92 10.35-7.5 2.13-2.4 4.71-6.16 5.73-8.36 1.02-2.2 2.14-6.93 2.49-10.5 0.44-4.55 0.17-8.15-0.93-12-0.85-3.03-3.3-7.75-5.44-10.5-2.13-2.75-5.64-6.24-7.8-7.75-2.16-1.51-6.17-3.43-8.92-4.26-2.75-0.83-7.25-1.48-10-1.44-2.75 0.05-7.02 0.73-9.5 1.51z"/>
		<path id="Ring 2" fill-rule="evenodd" class="s2" d="m52.5 0.1c3.3-0.04 8.81 0.6 12.25 1.41 3.44 0.82 9.06 2.91 12.5 4.64 3.44 1.73 9.08 5.89 12.54 9.25 3.75 3.63 7.67 8.73 9.69 12.6 1.87 3.58 4.09 9.42 4.94 13 0.85 3.58 1.55 8.98 1.55 12 0 3.02-0.67 8.31-1.48 11.75-0.82 3.44-2.91 9.06-4.64 12.5-1.73 3.44-5.89 9.08-9.25 12.54-3.63 3.75-8.73 7.67-12.6 9.69-3.58 1.87-9.42 4.09-13 4.94-3.58 0.85-8.98 1.55-12 1.55-3.02 0-8.42-0.7-12-1.55-3.58-0.85-9.42-3.07-13-4.94-3.87-2.02-8.97-5.94-12.6-9.69-3.36-3.46-7.52-9.1-9.25-12.54-1.73-3.44-3.82-9.06-4.64-12.5-0.81-3.44-1.48-8.73-1.48-11.75 0-3.02 0.67-8.31 1.48-11.75 0.82-3.44 2.91-9.06 4.64-12.5 1.73-3.44 5.89-9.08 9.25-12.54 3.62-3.74 8.74-7.68 12.6-9.7 3.58-1.87 9.2-4.07 12.5-4.87 3.3-0.81 8.7-1.5 12-1.54zm-12.5 5.71c-3.58 0.94-8.75 3.02-11.5 4.62-2.75 1.6-7.49 5.43-10.53 8.49-3.12 3.15-6.94 8.42-8.75 12.08-1.76 3.58-3.67 8.98-4.23 12-0.55 3.02-1 7.75-0.99 10.5 0.02 2.75 0.72 7.92 1.57 11.5 0.85 3.58 2.76 8.74 4.24 11.49 1.48 2.74 5.39 7.71 8.69 11.04 3.61 3.65 8.59 7.36 12.5 9.32 4.26 2.13 9.26 3.65 14.5 4.4 6.02 0.86 9.86 0.86 15.5 0 4.57-0.7 10.04-2.42 14-4.4 3.91-1.96 8.89-5.67 12.5-9.32 3.3-3.33 7.21-8.3 8.69-11.04 1.48-2.75 3.39-7.91 4.24-11.49 0.85-3.58 1.55-8.75 1.57-11.5 0.01-2.75-0.44-7.48-0.99-10.5-0.56-3.02-2.46-8.42-4.22-12-1.97-4-5.53-8.81-9.26-12.5-3.33-3.3-8.3-7.21-11.04-8.69-2.75-1.48-7.91-3.39-11.49-4.24-3.58-0.85-9.2-1.52-12.5-1.5-3.3 0.03-8.92 0.81-12.5 1.74z"/>
	</g>
	<g id="L3">
		<path id="L3 Base" fill-rule="evenodd" class="s3" d="m163 106c-29.31 0-53-23.69-53-53 0-29.31 23.69-53 53-53 29.31 0 53 23.69 53 53 0 29.31-23.69 53-53 53z"/>
		<path id="Ring 1" fill-rule="evenodd" class="s4" d="m162.5 0.1c3.3-0.04 8.81 0.6 12.25 1.41 3.44 0.82 9.06 2.91 12.5 4.64 3.44 1.73 9.08 5.89 12.54 9.25 3.75 3.63 7.67 8.73 9.69 12.6 1.87 3.58 4.09 9.42 4.94 13 0.85 3.58 1.55 8.98 1.55 12 0 3.02-0.67 8.31-1.48 11.75-0.82 3.44-2.91 9.06-4.64 12.5-1.73 3.44-5.89 9.08-9.25 12.54-3.63 3.75-8.73 7.67-12.6 9.69-3.57 1.87-9.43 4.09-13 4.94-3.57 0.85-8.97 1.55-12 1.55-3.03 0-8.43-0.7-12-1.55-3.57-0.85-9.43-3.07-13-4.94-3.87-2.02-8.97-5.94-12.6-9.69-3.36-3.46-7.52-9.1-9.25-12.54-1.73-3.44-3.82-9.06-4.64-12.5-0.81-3.44-1.48-8.73-1.48-11.75 0-3.02 0.67-8.31 1.48-11.75 0.82-3.44 2.91-9.06 4.64-12.5 1.73-3.44 5.89-9.08 9.25-12.54 3.62-3.74 8.74-7.68 12.6-9.7 3.57-1.87 9.2-4.07 12.5-4.87 3.3-0.81 8.7-1.5 12-1.54zm-9.5 21.46c-2.47 0.79-6.26 2.67-8.42 4.19-2.16 1.51-5.67 5-7.8 7.75-2.14 2.75-4.58 7.47-5.44 10.5-0.98 3.45-1.39 7.74-1.09 11.5 0.25 3.3 1.37 8.03 2.48 10.5 1.11 2.47 3.77 6.46 5.9 8.86 2.29 2.58 6.51 5.64 10.35 7.5 5.51 2.67 7.61 3.14 14.02 3.14 6.41 0 8.51-0.47 14.02-3.14 3.84-1.86 8.06-4.92 10.35-7.5 2.13-2.4 4.71-6.16 5.73-8.36 1.02-2.2 2.14-6.93 2.49-10.5 0.44-4.55 0.17-8.15-0.93-12-0.85-3.03-3.3-7.75-5.44-10.5-2.13-2.75-5.64-6.24-7.8-7.75-2.16-1.51-6.17-3.43-8.92-4.26-2.75-0.83-7.25-1.48-10-1.44-2.75 0.05-7.03 0.73-9.5 1.51z"/>
		<path id="Ring 2" fill-rule="evenodd" class="s5" d="m162.5 0.1c3.3-0.04 8.81 0.6 12.25 1.41 3.44 0.82 9.06 2.91 12.5 4.64 3.44 1.73 9.08 5.89 12.54 9.25 3.75 3.63 7.67 8.73 9.69 12.6 1.87 3.58 4.09 9.42 4.94 13 0.85 3.58 1.55 8.98 1.55 12 0 3.02-0.67 8.31-1.48 11.75-0.82 3.44-2.91 9.06-4.64 12.5-1.73 3.44-5.89 9.08-9.25 12.54-3.63 3.75-8.73 7.67-12.6 9.69-3.57 1.87-9.43 4.09-13 4.94-3.57 0.85-8.97 1.55-12 1.55-3.03 0-8.43-0.7-12-1.55-3.57-0.85-9.43-3.07-13-4.94-3.87-2.02-8.97-5.94-12.6-9.69-3.36-3.46-7.52-9.1-9.25-12.54-1.73-3.44-3.82-9.06-4.64-12.5-0.81-3.44-1.48-8.73-1.48-11.75 0-3.02 0.67-8.31 1.48-11.75 0.82-3.44 2.91-9.06 4.64-12.5 1.73-3.44 5.89-9.08 9.25-12.54 3.62-3.74 8.74-7.68 12.6-9.7 3.57-1.87 9.2-4.07 12.5-4.87 3.3-0.81 8.7-1.5 12-1.54zm-12.5 5.71c-3.57 0.94-8.75 3.02-11.5 4.62-2.75 1.6-7.49 5.43-10.53 8.49-3.12 3.15-6.94 8.42-8.75 12.08-1.76 3.58-3.67 8.98-4.23 12-0.55 3.02-1 7.75-0.99 10.5 0.02 2.75 0.72 7.92 1.57 11.5 0.85 3.58 2.76 8.74 4.24 11.49 1.48 2.74 5.39 7.71 8.69 11.04 3.61 3.65 8.59 7.36 12.5 9.32 4.26 2.13 9.26 3.65 14.5 4.4 6.02 0.86 9.86 0.86 15.5 0 4.57-0.7 10.04-2.42 14-4.4 3.91-1.96 8.89-5.67 12.5-9.32 3.3-3.33 7.21-8.3 8.69-11.04 1.48-2.75 3.39-7.91 4.24-11.49 0.85-3.58 1.55-8.75 1.57-11.5 0.01-2.75-0.44-7.48-0.99-10.5-0.56-3.02-2.46-8.42-4.22-12-1.97-4-5.53-8.81-9.26-12.5-3.33-3.3-8.3-7.21-11.04-8.69-2.75-1.48-7.92-3.39-11.49-4.24-3.57-0.85-9.2-1.52-12.5-1.5-3.3 0.03-8.93 0.81-12.5 1.74z"/>
		<g id="L3 Text">
			<path id="3" class="s6" d="m178.14 51.4q2.99 0.64 4.66 2.66 1.69 2.02 1.69 4.99 0 4.56-3.13 7.05-3.14 2.5-8.91 2.5-1.94 0-4-0.37-2.05-0.4-4.23-1.16v-4.02q1.73 1.01 3.79 1.53 2.07 0.51 4.31 0.51 3.92 0 5.96-1.54 2.07-1.55 2.07-4.5 0-2.72-1.92-4.25-1.9-1.55-5.3-1.55h-3.59v-3.42h3.75q3.08 0 4.71-1.22 1.62-1.23 1.62-3.54 0-2.38-1.69-3.63-1.67-1.28-4.8-1.28-1.71 0-3.67 0.37-1.96 0.37-4.31 1.15v-3.71q2.37-0.66 4.43-0.99 2.08-0.33 3.92-0.33 4.74 0 7.51 2.17 2.76 2.14 2.76 5.81 0 2.56-1.46 4.33-1.47 1.76-4.17 2.44z"/>
			<path id="L" class="s6" d="m140.15 68v-30.79h4.16v27.28h15v3.51z"/>
		</g>
	</g>
	<g id="R3">
		<path id="R3 Base" fill-rule="evenodd" class="s3" d="m273 106c-29.31 0-53-23.69-53-53 0-29.31 23.69-53 53-53 29.31 0 53 23.69 53 53 0 29.31-23.69 53-53 53z"/>
		<path id="Ring 1" fill-rule="evenodd" class="s4" d="m272.5 0.1c3.3-0.04 8.81 0.6 12.25 1.41 3.44 0.82 9.06 2.91 12.5 4.64 3.44 1.73 9.08 5.89 12.54 9.25 3.75 3.63 7.67 8.73 9.69 12.6 1.87 3.58 4.09 9.42 4.94 13 0.85 3.58 1.55 8.98 1.55 12 0 3.02-0.67 8.31-1.48 11.75-0.82 3.44-2.91 9.06-4.64 12.5-1.73 3.44-5.89 9.08-9.25 12.54-3.63 3.75-8.73 7.67-12.6 9.69-3.57 1.87-9.43 4.09-13 4.94-3.57 0.85-8.98 1.55-12 1.55-3.02 0-8.43-0.7-12-1.55-3.57-0.85-9.43-3.07-13-4.94-3.87-2.02-8.97-5.94-12.6-9.69-3.36-3.46-7.52-9.1-9.25-12.54-1.73-3.44-3.82-9.06-4.64-12.5-0.81-3.44-1.48-8.73-1.48-11.75 0-3.02 0.67-8.31 1.48-11.75 0.82-3.44 2.91-9.06 4.64-12.5 1.73-3.44 5.89-9.08 9.25-12.54 3.62-3.74 8.74-7.68 12.6-9.7 3.57-1.87 9.2-4.07 12.5-4.87 3.3-0.81 8.7-1.5 12-1.54zm-9.5 21.46c-2.48 0.79-6.26 2.67-8.42 4.19-2.16 1.51-5.67 5-7.8 7.75-2.14 2.75-4.58 7.47-5.44 10.5-0.98 3.45-1.39 7.74-1.09 11.5 0.25 3.3 1.37 8.03 2.48 10.5 1.11 2.47 3.77 6.46 5.9 8.86 2.29 2.58 6.51 5.64 10.35 7.5 5.51 2.67 7.61 3.14 14.02 3.14 6.41 0 8.51-0.47 14.02-3.14 3.84-1.86 8.06-4.92 10.35-7.5 2.13-2.4 4.71-6.16 5.73-8.36 1.02-2.2 2.14-6.93 2.49-10.5 0.44-4.55 0.17-8.15-0.93-12-0.85-3.03-3.3-7.75-5.44-10.5-2.13-2.75-5.64-6.24-7.8-7.75-2.16-1.51-6.17-3.43-8.92-4.26-2.75-0.83-7.25-1.48-10-1.44-2.75 0.05-7.02 0.73-9.5 1.51z"/>
		<path id="Ring 2" fill-rule="evenodd" class="s5" d="m272.5 0.1c3.3-0.04 8.81 0.6 12.25 1.41 3.44 0.82 9.06 2.91 12.5 4.64 3.44 1.73 9.08 5.89 12.54 9.25 3.75 3.63 7.67 8.73 9.69 12.6 1.87 3.58 4.09 9.42 4.94 13 0.85 3.58 1.55 8.98 1.55 12 0 3.02-0.67 8.31-1.48 11.75-0.82 3.44-2.91 9.06-4.64 12.5-1.73 3.44-5.89 9.08-9.25 12.54-3.63 3.75-8.73 7.67-12.6 9.69-3.57 1.87-9.43 4.09-13 4.94-3.57 0.85-8.98 1.55-12 1.55-3.02 0-8.43-0.7-12-1.55-3.57-0.85-9.43-3.07-13-4.94-3.87-2.02-8.97-5.94-12.6-9.69-3.36-3.46-7.52-9.1-9.25-12.54-1.73-3.44-3.82-9.06-4.64-12.5-0.81-3.44-1.48-8.73-1.48-11.75 0-3.02 0.67-8.31 1.48-11.75 0.82-3.44 2.91-9.06 4.64-12.5 1.73-3.44 5.89-9.08 9.25-12.54 3.62-3.74 8.74-7.68 12.6-9.7 3.57-1.87 9.2-4.07 12.5-4.87 3.3-0.81 8.7-1.5 12-1.54zm-12.5 5.71c-3.57 0.94-8.75 3.02-11.5 4.62-2.75 1.6-7.49 5.43-10.53 8.49-3.12 3.15-6.94 8.42-8.75 12.08-1.76 3.58-3.67 8.98-4.23 12-0.55 3.02-1 7.75-0.99 10.5 0.02 2.75 0.72 7.92 1.57 11.5 0.85 3.58 2.76 8.74 4.24 11.49 1.48 2.74 5.39 7.71 8.69 11.04 3.61 3.65 8.59 7.36 12.5 9.32 4.26 2.13 9.26 3.65 14.5 4.4 6.02 0.86 9.86 0.86 15.5 0 4.57-0.7 10.04-2.42 14-4.4 3.91-1.96 8.89-5.67 12.5-9.32 3.3-3.33 7.21-8.3 8.69-11.04 1.48-2.75 3.39-7.91 4.24-11.49 0.85-3.58 1.55-8.75 1.57-11.5 0.01-2.75-0.44-7.48-0.99-10.5-0.56-3.02-2.46-8.42-4.22-12-1.97-4-5.53-8.81-9.26-12.5-3.33-3.3-8.3-7.21-11.04-8.69-2.75-1.48-7.92-3.39-11.49-4.24-3.57-0.85-9.2-1.52-12.5-1.5-3.3 0.03-8.93 0.81-12.5 1.74z"/>
		<g id="R3 Text">
			<path id="3" class="s6" d="m290.14 51.4q2.99 0.64 4.66 2.66 1.69 2.02 1.69 4.99 0 4.56-3.13 7.05-3.14 2.5-8.91 2.5-1.94 0-4-0.37-2.05-0.4-4.23-1.16v-4.02q1.73 1.01 3.79 1.53 2.06 0.51 4.31 0.51 3.92 0 5.96-1.54 2.07-1.55 2.07-4.5 0-2.72-1.92-4.25-1.9-1.55-5.3-1.55h-3.59v-3.42h3.75q3.08 0 4.71-1.22 1.62-1.23 1.62-3.54 0-2.38-1.69-3.63-1.67-1.28-4.8-1.28-1.71 0-3.67 0.37-1.96 0.37-4.31 1.15v-3.71q2.37-0.66 4.43-0.99 2.08-0.33 3.92-0.33 4.74 0 7.51 2.17 2.76 2.14 2.76 5.81 0 2.56-1.46 4.33-1.47 1.76-4.17 2.44z"/>
			<path id="R" fill-rule="evenodd" class="s6" d="m262.75 53.56q1.34 0.46 2.6 1.94 1.28 1.49 2.55 4.08l4.23 8.42h-4.47l-3.94-7.9q-1.53-3.09-2.97-4.1-1.43-1.01-3.9-1.01h-4.54v13.01h-4.16v-30.79h9.4q5.28 0 7.88 2.2 2.6 2.21 2.6 6.67 0 2.9-1.36 4.82-1.34 1.92-3.92 2.66zm-5.2-12.93h-5.24v10.93h5.24q3.01 0 4.54-1.38 1.54-1.4 1.54-4.1 0-2.71-1.54-4.07-1.53-1.38-4.54-1.38z"/>
		</g>
	</g>
</svg>