<svg version="1.2" xmlns="http://www.w3.org/2000/svg" viewBox="0 0 359 194" width="359" height="194">
	<title>Touchpad</title>
	<style>
		.s0 { fill: #61e0df } 
		.s1 { fill: #3ed8d2 } 
		.s2 { opacity: .2;fill: #000000 } 
	</style>
	<g id="Touchpad copy 2">
		<path id="Touchpad" class="s0" d="m125.5 0.97c-14.3 0.44-34.78 1.32-45.5 1.96-10.73 0.64-26.93 1.83-36 2.65-9.08 0.83-20.55 2.14-25.5 2.93-5.04 0.81-10.05 2.22-11.38 3.21-1.31 0.98-3.33 3.05-4.5 4.6-1.76 2.35-2.18 4.53-2.48 13-0.33 9.2 0.04 11.82 3.75 27.18 2.26 9.35 6.34 27.57 9.06 40.5 2.72 12.92 6.14 30.25 7.59 38.5 1.46 8.25 3.53 18.37 4.59 22.5 1.07 4.12 3.13 9.52 4.59 12 1.46 2.47 4.93 6.9 7.71 9.84 2.79 2.93 7.32 6.62 10.07 8.19 2.75 1.57 7.7 3.55 11 4.41 5.28 1.38 19.81 1.57 121 1.54q115-0.03 119.5-1.08c2.47-0.58 6.97-2.24 10-3.7 3.02-1.45 8.36-5.36 11.85-8.67 4.16-3.96 7.32-8.09 9.19-12.03 1.57-3.3 3.77-9.83 4.9-14.5 1.13-4.68 2.52-12.33 3.1-17 0.58-4.68 3.48-20.65 6.45-35.5 2.97-14.85 6.93-34.43 8.8-43.5 1.87-9.08 3.92-19.2 4.55-22.5 0.63-3.3 1.15-7.69 1.15-9.75 0.01-2.06-0.59-5.21-1.32-7-0.74-1.79-2.76-4.49-4.5-6-1.74-1.51-4.86-3.17-6.92-3.69-2.06-0.52-10.73-1.63-19.25-2.48-8.53-0.84-22.03-2-30-2.57-7.98-0.57-23.28-1.49-34-2.03-10.73-0.54-40.2-1.17-65.5-1.4-25.3-0.23-57.7-0.05-72 0.39z"/>
		<path id="Touchpad 1" class="s1" d="m102.5 2.03c-9.35 0.45-24.43 1.33-33.5 1.94-9.08 0.61-23.25 1.78-31.5 2.58-8.25 0.81-17.36 1.92-20.25 2.46-3.62 0.68-6.35 2-8.82 4.24-1.96 1.79-3.98 4.82-4.49 6.75-0.51 1.92-0.92 6.87-0.92 11 0.01 4.12 0.66 10.42 1.44 14 0.78 3.57 3.05 13.47 5.04 22 1.99 8.52 6.97 32.37 11.08 53 6.05 30.41 8.06 38.73 10.62 44 1.91 3.95 5.54 8.92 9.22 12.65 3.88 3.93 8.25 7.16 12.08 8.92 4.43 2.04 8.35 2.94 15 3.46 4.95 0.38 58.52 0.64 119.05 0.58l110.05-0.11c12.95-6.45 17.98-9.98 21.5-13.46 3.08-3.05 6.52-7.34 7.64-9.54 1.12-2.2 3-7.15 4.18-11 1.18-3.85 3.46-14.88 5.07-24.5 1.61-9.63 6.13-33.25 10.05-52.5 3.91-19.25 7.83-39.05 8.71-44 1.02-5.79 1.31-10.43 0.81-13-0.5-2.6-2.05-5.27-4.42-7.63-2.03-2.03-5.41-4.12-7.64-4.72-2.2-0.59-14.13-1.99-26.5-3.11-12.38-1.12-29.48-2.53-38-3.13-8.53-0.61-47.68-1.24-87-1.4-39.33-0.17-79.15 0.06-88.5 0.52z"/>
		<path id="Touchpad 2" class="s2" d="m97 15.1c-9.63 0.43-27.4 1.52-39.5 2.41-12.1 0.88-26.73 2.26-32.5 3.06-5.78 0.79-12.08 1.95-14 2.56-1.93 0.61-4.52 2.07-5.78 3.24-1.79 1.68-2.26 3.18-2.23 7.13 0.03 2.75 0.69 7.92 1.47 11.5 0.78 3.57 3.05 13.47 5.04 22 1.99 8.52 6.97 32.37 11.08 53 6.05 30.41 8.06 38.73 10.62 44 1.91 3.95 5.54 8.92 9.22 12.65 3.88 3.93 8.25 7.16 12.08 8.92 4.43 2.04 8.35 2.94 15 3.46 4.95 0.38 58.52 0.64 119.05 0.58l110.05-0.11c12.95-6.45 17.98-9.98 21.5-13.46 3.08-3.05 6.52-7.34 7.64-9.54 1.12-2.2 3-7.15 4.18-11 1.18-3.85 3.46-14.88 5.07-24.5 1.61-9.63 6.12-33.25 10.02-52.5 3.91-19.25 7.75-38.49 8.54-42.75 1.17-6.22 1.2-8.07 0.2-9.37-0.69-0.89-2.49-2.24-4-3-1.51-0.76-8.04-2.05-14.5-2.86-6.46-0.81-20.75-2.16-31.75-2.99-11-0.84-29.9-1.97-42-2.52-12.1-0.55-50.13-0.93-84.5-0.85-34.38 0.08-70.38 0.5-80 0.94z"/>
	</g>
</svg>