<svg version="1.2" xmlns="http://www.w3.org/2000/svg" viewBox="0 0 807 599" width="807" height="599">
	<style>
		.s0 { fill: #eb6e34 } 
		.s1 { fill: #2f3573 } 
	</style>
	<g>
		<path class="s0" d="m805.9 508.6v-2.4c-0.1-12.4-0.8-67.1-4.6-87.6-2.9-15.5-17.7-102.5-32-144.6-9.4-27.7-13.1-53-17-64.9-12-35.7-33-65.7-33-65.7 0 0-9.5-13.1-10.1-16.3-0.6-3.2-4.7-8.6-4.7-8.6q-0.91-0.28-1.83-0.52-0.91-0.25-1.84-0.46-0.93-0.21-1.86-0.39-0.93-0.18-1.87-0.33v-6.9q0-0.29-0.07-0.57-0.07-0.28-0.22-0.53-0.14-0.25-0.35-0.46-0.21-0.2-0.46-0.34c-4.5-2.9-23.4-13.6-51.5-13.6-26.9 0-41.1 5.9-45.1 8q-0.28 0.14-0.5 0.35-0.23 0.21-0.39 0.48-0.16 0.26-0.24 0.56-0.08 0.3-0.07 0.61v11c-7.4 1.2-9.6 2.4-9.6 2.4q-0.63 0.72-1.32 1.38-0.68 0.67-1.43 1.27-0.74 0.6-1.53 1.14-0.79 0.54-1.62 1.01c-3.5 1.8-11.7 1.7-11.7 1.7h-33.4q-0.12-0.02-0.25-0.01-0.12 0.01-0.24 0.05-0.12 0.04-0.22 0.1-0.1 0.07-0.19 0.16-0.12 0.23-0.22 0.48-0.1 0.24-0.18 0.49-0.08 0.25-0.13 0.51-0.05 0.26-0.07 0.52h-1.6q-0.35-0.86-0.93-1.59-0.57-0.74-1.33-1.28-0.76-0.54-1.63-0.86-0.88-0.31-1.81-0.37h-251.7q-0.93 0.07-1.8 0.39-0.87 0.31-1.63 0.86-0.75 0.54-1.33 1.27-0.58 0.72-0.94 1.58h-1.6q-0.04-0.26-0.09-0.52-0.06-0.25-0.14-0.5-0.07-0.25-0.17-0.5-0.09-0.24-0.2-0.48-0.09-0.09-0.19-0.15-0.11-0.07-0.22-0.11-0.12-0.04-0.24-0.05-0.13-0.01-0.25 0.01h-33.4c0 0-8.2 0.2-11.7-1.7q-0.84-0.46-1.64-0.99-0.79-0.53-1.53-1.13-0.75-0.61-1.43-1.28-0.68-0.67-1.3-1.4c-0.41-0.49-2.1-1.2-9.6-2.4v-11q0-0.31-0.08-0.6-0.09-0.3-0.24-0.57-0.16-0.26-0.39-0.47-0.22-0.21-0.49-0.36c-4-2-18.2-8-45.1-8-28.2 0-47 10.7-51.5 13.6q-0.25 0.14-0.46 0.34-0.21 0.21-0.35 0.46-0.15 0.25-0.22 0.53-0.07 0.28-0.07 0.57v6.9c-5.1 1-7.4 1.7-7.4 1.7 0 0-4.1 5.3-4.7 8.6-0.6 3.3-10.1 16.3-10.1 16.3 0 0-21 30-33 65.7-4 11.9-7.7 37.2-17 64.9-14.3 42.1-29.1 129.1-32 144.6-3.8 20.5-4.5 75.2-4.6 87.6v2.4 0.2c0.2 2.5 3.6 35.7 20.8 59.5 0.5 0.7 1.1 1.4 1.6 2.1q0 0.02 0.01 0.04 0.01 0.02 0.02 0.03 0.01 0.01 0.03 0.02 0.02 0.01 0.04 0.01c0.5 0.7 1.1 1.4 1.6 2 0.6 0.7 1.1 1.3 1.7 1.9l0.2 0.2c0.6 0.6 1.1 1.2 1.7 1.8l0.1 0.1c0.6 0.6 1.2 1.2 1.8 1.7l0.3 0.3c0.6 0.5 1.2 1 1.8 1.6l0.1 0.1c0.6 0.5 1.3 1 1.9 1.5 0.2 0.1 0.3 0.2 0.5 0.3q0.24 0.19 0.49 0.37 0.24 0.18 0.49 0.36 0.25 0.17 0.51 0.34 0.25 0.17 0.51 0.33c31.7 21.5 56.7 14 56.7 14h0.1c0.1 0 0.1 0 0.2-0.1h0.1c0.1 0 0.3-0.1 0.4-0.1 0.2 0 0.3-0.1 0.5-0.2h0.1q0.09-0.03 0.17-0.06 0.09-0.02 0.18-0.05 0.08-0.03 0.17-0.05 0.09-0.02 0.18-0.04c0.1 0 0.1 0 0.2-0.1 0.3-0.1 0.5-0.2 0.8-0.3h0.1l0.9-0.3c0.1 0 0.1 0 0.2-0.1q0.14-0.04 0.28-0.08 0.14-0.05 0.28-0.1 0.14-0.05 0.27-0.1 0.14-0.06 0.27-0.12c0.1 0 0.2-0.1 0.3-0.1q0.16-0.05 0.31-0.1 0.15-0.06 0.3-0.12 0.15-0.06 0.3-0.13 0.15-0.07 0.29-0.15c0.1 0 0.1-0.1 0.2-0.1 0.4-0.2 0.8-0.3 1.2-0.5q0.03 0 0.06-0.01 0.02-0.01 0.05-0.02 0.02-0.02 0.05-0.03 0.02-0.02 0.04-0.04c0.4-0.2 0.9-0.4 1.4-0.6 0.1 0 0.2-0.1 0.3-0.1q0.19-0.07 0.39-0.15 0.19-0.08 0.37-0.17 0.19-0.09 0.38-0.18 0.18-0.1 0.36-0.2c0.1 0 0.2-0.1 0.3-0.1q0.19-0.07 0.39-0.15 0.19-0.08 0.37-0.17 0.19-0.09 0.38-0.18 0.18-0.1 0.36-0.2 0.03 0 0.06-0.01 0.02-0.01 0.05-0.02 0.02-0.02 0.05-0.03 0.02-0.02 0.04-0.04c0.5-0.3 1.1-0.5 1.7-0.8 0.1-0.1 0.3-0.1 0.4-0.2 0.6-0.3 1.1-0.6 1.7-0.9 0.1-0.1 0.2-0.1 0.3-0.2 0.6-0.3 1.1-0.6 1.7-0.9 0.1 0 0.1-0.1 0.2-0.1 0.6-0.3 1.2-0.7 1.9-1.1q0.04-0.04 0.09-0.07 0.04-0.03 0.09-0.06 0.06-0.03 0.11-0.04 0.05-0.02 0.11-0.03c0.6-0.4 1.3-0.7 1.9-1.1q0.04-0.04 0.09-0.07 0.04-0.03 0.09-0.06 0.06-0.03 0.11-0.04 0.05-0.02 0.11-0.03c0.7-0.4 1.3-0.8 2-1.2q0.02 0 0.04-0.01 0.02-0.01 0.03-0.02 0.01-0.01 0.02-0.03 0.01-0.02 0.01-0.04 4.57-2.94 8.86-6.28 4.29-3.35 8.25-7.07 3.96-3.73 7.57-7.8 3.6-4.07 6.82-8.45c0.5-0.7 1-1.4 1.5-2.2 0.1-0.2 0.3-0.4 0.4-0.6q0.2-0.26 0.38-0.53 0.19-0.27 0.36-0.54 0.18-0.28 0.34-0.56 0.17-0.28 0.32-0.57c0-0.1 0.1-0.1 0.1-0.2 0.5-0.8 1.1-1.7 1.6-2.5 0.1-0.2 0.2-0.3 0.3-0.5 0.5-0.8 1-1.7 1.5-2.5l0.1-0.1c0.6-1 1.1-1.9 1.7-2.9 0.1-0.1 0.1-0.2 0.2-0.3 0.5-1 1.1-2 1.7-3l1.8-3.3v-0.1c21.9-41.6 44.3-108.8 44.3-108.8q0.6-0.77 1.26-1.49 0.66-0.72 1.38-1.39 0.71-0.66 1.48-1.27 0.77-0.61 1.58-1.15 0.71-0.49 1.46-0.9 0.75-0.42 1.55-0.74 0.79-0.33 1.62-0.57 0.82-0.24 1.67-0.39h1.9c7.07 6.91 15.42 12.39 24.58 16.13 9.16 3.73 18.96 5.66 28.85 5.67 9.89 0.01 19.69-1.9 28.86-5.62 9.16-3.72 17.52-9.18 24.61-16.08h36c0 2.8 1.8 2.2 4.6 2.2h67.9c2.8 0 5.5 0.6 5.5-2.2h35.9c7.09 6.9 15.45 12.36 24.61 16.08 9.17 3.72 18.97 5.63 28.86 5.62 9.89-0.01 19.69-1.94 28.85-5.67 9.16-3.74 17.51-9.22 24.58-16.13h1.9q0.85 0.15 1.67 0.39 0.83 0.24 1.62 0.57 0.8 0.32 1.55 0.74 0.75 0.41 1.46 0.9 0.81 0.54 1.58 1.15 0.77 0.61 1.48 1.27 0.72 0.67 1.38 1.39 0.66 0.72 1.26 1.49c0.4 0.51 22.5 67.2 44.3 108.8v0.1l1.8 3.3c0.6 1 1.1 2 1.7 3 0.1 0.1 0.1 0.2 0.2 0.3 0.6 1 1.1 2 1.7 2.9l0.1 0.1c0.5 0.9 1 1.7 1.5 2.5 0.1 0.2 0.2 0.3 0.3 0.5 0.5 0.9 1.1 1.7 1.6 2.5 0 0.1 0.1 0.1 0.1 0.2 0.5 0.7 1 1.5 1.4 2.2 0.1 0.2 0.3 0.4 0.4 0.6 0.5 0.7 1 1.5 1.5 2.2q3.21 4.39 6.81 8.47 3.6 4.07 7.56 7.79 3.97 3.73 8.26 7.07 4.29 3.34 8.87 6.27 0.02 0 0.04 0.01 0.02 0.01 0.03 0.02 0.01 0.01 0.02 0.03 0.01 0.02 0.01 0.04c0.7 0.4 1.3 0.8 2 1.2q0.04 0.04 0.09 0.07 0.04 0.03 0.09 0.06 0.06 0.03 0.11 0.04 0.05 0.02 0.11 0.03 0.23 0.15 0.46 0.3 0.24 0.14 0.47 0.28 0.24 0.14 0.48 0.27 0.24 0.13 0.49 0.25 0.04 0.04 0.09 0.07 0.04 0.03 0.09 0.06 0.06 0.03 0.11 0.04 0.05 0.02 0.11 0.03c0.6 0.4 1.3 0.7 1.9 1.1 0.1 0 0.1 0.1 0.2 0.1 0.6 0.3 1.2 0.6 1.7 0.9 0.1 0.1 0.2 0.1 0.3 0.2 0.6 0.3 1.2 0.6 1.7 0.9 0.1 0.1 0.3 0.1 0.4 0.2 0.6 0.3 1.1 0.5 1.7 0.8q0.03 0 0.06 0.01 0.02 0.01 0.05 0.02 0.02 0.02 0.05 0.03 0.02 0.02 0.04 0.04c0.5 0.2 1 0.5 1.5 0.7 0.1 0 0.2 0.1 0.3 0.1q0.19 0.07 0.39 0.15 0.19 0.08 0.37 0.17 0.19 0.09 0.38 0.18 0.18 0.1 0.36 0.2c0.1 0 0.2 0.1 0.3 0.1 0.5 0.2 0.9 0.4 1.4 0.6q0.03 0 0.06 0.01 0.02 0.01 0.05 0.02 0.02 0.02 0.05 0.03 0.02 0.02 0.04 0.04c0.4 0.2 0.8 0.3 1.2 0.5 0.1 0 0.1 0.1 0.2 0.1 0.4 0.2 0.8 0.3 1.2 0.5 0.1 0 0.2 0.1 0.3 0.1 0.4 0.1 0.7 0.3 1.1 0.4 0.1 0 0.1 0 0.2 0.1l0.9 0.3h0.1q0.1 0.03 0.2 0.07 0.1 0.03 0.2 0.07 0.1 0.04 0.2 0.08 0.1 0.04 0.2 0.08c0.1 0 0.1 0 0.2 0.1 0.1 0.1 0.5 0.1 0.7 0.2h0.1c0.2 0.1 0.4 0.1 0.5 0.2 0.2 0 0.3 0.1 0.4 0.1h0.1q0.03 0 0.06 0.01 0.02 0.01 0.05 0.02 0.02 0.02 0.05 0.03 0.02 0.02 0.04 0.04h0.1c0 0 25 7.5 56.7-14 0.7-0.5 1.3-0.9 2-1.4 0.2-0.1 0.3-0.2 0.5-0.3 0.6-0.5 1.3-1 1.9-1.5l0.1-0.1c0.6-0.5 1.2-1 1.8-1.6l0.3-0.3c0.6-0.6 1.2-1.1 1.8-1.7l0.1-0.1c0.6-0.6 1.1-1.2 1.7-1.8l0.2-0.2c0.6-0.6 1.1-1.3 1.7-1.9 0.6-0.7 1.1-1.3 1.6-2q0-0.02 0.01-0.04 0.01-0.02 0.02-0.03 0.01-0.01 0.03-0.02 0.02-0.01 0.04-0.01c0.5-0.7 1.1-1.4 1.6-2.1 17.2-23.8 20.6-57 20.8-59.5v-0.1c0 0-0.4 0-0.4-0.1z"/>
		<path class="s0" d="m608.7 89.3c0.5 0 1.1-0.1 1.6-0.1 4.4-0.3 9.6-0.6 15-0.9 1.3-0.1 2.7-0.1 4-0.2l8-0.3c1.3 0 2.6-0.1 3.8-0.1 1.2 0 2.4 0 3.6-0.1h1.7c17.9 0 50.6 3.2 50.6 3.2q0-0.04-0.01-0.08-0.01-0.04-0.02-0.08-0.02-0.03-0.03-0.07-0.02-0.04-0.04-0.07v-0.3q0-0.04 0-0.08 0-0.04-0.02-0.08-0.01-0.04-0.03-0.08-0.02-0.03-0.05-0.06v-0.3q-0.01-0.1-0.03-0.2-0.02-0.11-0.04-0.21-0.03-0.1-0.06-0.2-0.03-0.09-0.07-0.19v-0.1c0-0.1-0.1-0.3-0.1-0.4v-0.1c-2.3-11-11.4-53.8-19.4-66.8-9.1-15-23.7-21.4-34.6-21.4-10.9 0-13.6 3.4-22.7 10.1-9.1 6.7-15.3 20.6-16.9 27.9-1.2 5.5-3.3 32.4-4.3 45.2v2.8c0 0.6-0.1 1.1-0.1 1.6v0.5q-0.02 0.22-0.04 0.45-0.02 0.22-0.03 0.45-0.02 0.22-0.02 0.45-0.01 0.22-0.01 0.45v0.1c0 0 1.9-0.1 5-0.4 1.3-0.1 3.2-0.2 5.3-0.3z"/>
		<path class="s0" d="m207.7 90c0-0.3-0.1-0.9-0.1-1.9v-0.5c0-0.5-0.1-1-0.1-1.6v-2.7c-1-12.8-3.1-39.7-4.3-45.2-1.6-7.3-7.7-21.3-16.9-27.9-9.2-6.6-12.2-10.2-23-10.2-10.8 0-25.4 6.4-34.6 21.4-8 13-17.1 55.8-19.4 66.8v0.1c0 0.2-0.1 0.3-0.1 0.4v0.1c-0.1 0.3-0.1 0.6-0.2 0.8v0.3q0 0.04 0 0.08 0 0.04-0.02 0.08-0.01 0.04-0.03 0.08-0.02 0.03-0.05 0.06v0.3q0 0.04 0 0.08 0 0.04-0.02 0.08-0.01 0.04-0.03 0.08-0.02 0.03-0.05 0.06c0 0 32.7-3.2 50.6-3.2 17.9 0 48.3 2.4 48.3 2.4z"/>
	</g>
	<g>
		<path class="s1" d="m171.4 251.7q1.95-0.29 3.91-0.5 1.95-0.22 3.92-0.35 1.96-0.14 3.93-0.2 1.97-0.07 3.94-0.05c10.1 0 17 2.1 22 6.2 5.2 4.2 8.4 10.6 8.4 19.8 0 9.6-3.3 16.8-8.4 21.4-5.4 4.9-13.9 7.4-24.4 7.4q-1.67 0.02-3.33-0.02-1.67-0.04-3.33-0.12-1.66-0.09-3.32-0.23-1.66-0.14-3.32-0.33zm9.9 45.7q0.67 0.07 1.35 0.11 0.67 0.05 1.35 0.07 0.67 0.03 1.35 0.03 0.67 0.01 1.35-0.01c12.8 0.1 20.4-7 20.4-20.6 0.1-11.9-6.8-18.7-19.1-18.7q-0.84-0.03-1.69-0.01-0.84 0.02-1.68 0.09-0.84 0.08-1.67 0.21-0.84 0.13-1.66 0.31z"/>
		<path class="s1" d="m236.4 255.1q0.02 1.1-0.41 2.11-0.43 1.01-1.22 1.77-0.8 0.76-1.84 1.13-1.03 0.37-2.13 0.29-1.08 0.06-2.09-0.32-1.01-0.38-1.78-1.14-0.77-0.76-1.17-1.76-0.4-1-0.36-2.08-0.02-1.09 0.39-2.11 0.41-1.01 1.19-1.78 0.78-0.77 1.8-1.16 1.03-0.39 2.12-0.35 1.09-0.03 2.11 0.36 1.01 0.4 1.79 1.17 0.78 0.76 1.2 1.77 0.41 1.01 0.4 2.1zm-10.5 49.8v-39h9.9v39z"/>
		<path class="s1" d="m245.9 295.9q1.14 0.65 2.35 1.16 1.21 0.5 2.48 0.86 1.26 0.35 2.56 0.55 1.3 0.19 2.61 0.23c4.3 0 6.2-1.8 6.2-4.3 0-2.5-1.6-4-6.4-5.7-7.6-2.6-10.8-6.8-10.7-11.4 0-6.9 5.7-12.2 14.7-12.2q1.33-0.02 2.66 0.12 1.32 0.13 2.63 0.42 1.3 0.29 2.55 0.74 1.26 0.44 2.46 1.02l-1.9 7q-0.94-0.53-1.93-0.93-0.99-0.41-2.03-0.69-1.04-0.28-2.1-0.42-1.07-0.15-2.14-0.16c-3.5 0-5.4 1.7-5.4 4.1 0 2.4 1.8 3.7 6.8 5.4 7 2.6 10.3 6.2 10.4 11.9 0 7-5.5 12.2-15.8 12.2q-1.53 0.03-3.05-0.12-1.53-0.16-3.02-0.5-1.49-0.34-2.93-0.86-1.44-0.52-2.8-1.22z"/>
		<path class="s1" d="m308.4 303.7q-1.31 0.52-2.66 0.91-1.35 0.39-2.74 0.65-1.38 0.25-2.79 0.36-1.4 0.11-2.81 0.08c-12.2 0-20.1-7.8-20.1-19.8 0-11.7 8-20.8 21.7-20.8q1.22-0.01 2.43 0.1 1.21 0.11 2.41 0.34 1.19 0.22 2.36 0.57 1.17 0.34 2.3 0.79l-1.8 7.4q-0.87-0.39-1.78-0.67-0.91-0.29-1.84-0.48-0.93-0.19-1.88-0.28-0.95-0.09-1.9-0.07c-7.5 0-12 5.5-11.9 12.6 0 8 5.2 12.6 11.9 12.6q1 0.01 2-0.08 0.99-0.09 1.98-0.28 0.98-0.19 1.94-0.47 0.95-0.29 1.88-0.67z"/>
		<path class="s1" d="m352 285.1c0 14.3-10.1 20.7-20 20.7-11 0-19.5-7.6-19.5-20.1 0-12.8 8.4-20.6 20.2-20.6 11.5 0 19.3 8.2 19.3 20zm-29.4 0.4c0 7.5 3.7 13.2 9.7 13.2 5.6 0 9.5-5.5 9.5-13.4 0-6.1-2.7-13-9.4-13-7 0-9.8 6.7-9.8 13.2z"/>
		<path class="s1" d="m360.1 277.6c0-4.5-0.1-8.2-0.3-11.6h8.6l0.5 5.8h0.2q0.97-1.58 2.32-2.85 1.35-1.28 2.98-2.16 1.64-0.88 3.44-1.31 1.81-0.43 3.66-0.38c6.8 0 13.8 4.4 13.8 16.7v23.1h-9.8v-22c0-5.6-2.1-9.8-7.4-9.8q-1.29 0.04-2.52 0.47-1.22 0.43-2.25 1.21-1.03 0.78-1.79 1.83-0.74 1.06-1.14 2.29-0.11 0.39-0.19 0.79-0.08 0.39-0.13 0.79-0.05 0.41-0.07 0.81-0.02 0.41-0.01 0.81v22.9h-9.9z"/>
		<path class="s1" d="m405.8 277.6c0-4.5-0.1-8.2-0.3-11.6h8.6l0.5 5.8h0.2q0.97-1.58 2.32-2.85 1.35-1.28 2.98-2.16 1.64-0.88 3.44-1.31 1.81-0.43 3.66-0.38c6.8 0 13.8 4.4 13.8 16.7v23.1h-9.8v-22c0-5.6-2.1-9.8-7.4-9.8q-1.29 0.04-2.52 0.47-1.22 0.43-2.25 1.21-1.03 0.78-1.79 1.83-0.74 1.06-1.14 2.29-0.11 0.39-0.19 0.79-0.08 0.39-0.13 0.79-0.05 0.41-0.07 0.81-0.02 0.41-0.01 0.81v22.9h-9.9z"/>
		<path class="s1" d="m458.5 288.2c0.2 7 5.8 10.1 12 10.1q1.38 0.05 2.75-0.04 1.38-0.09 2.74-0.32 1.36-0.23 2.69-0.59 1.33-0.36 2.62-0.85l1.4 6.8q-1.62 0.62-3.3 1.09-1.67 0.47-3.38 0.77-1.72 0.3-3.45 0.44-1.73 0.13-3.47 0.1c-12.6 0-20.1-7.8-20.1-19.7 0-10.8 6.6-21 19-21 12.6 0 16.8 10.4 16.8 19q-0.01 0.53-0.03 1.05-0.02 0.53-0.06 1.05-0.03 0.53-0.09 1.05-0.05 0.53-0.12 1.05zm17.2-6.9c0.1-3.6-1.5-9.5-8.1-9.5-6.1 0-8.6 5.5-9 9.5z"/>
		<path class="s1" d="m521.5 303.7q-1.31 0.52-2.66 0.91-1.35 0.39-2.74 0.65-1.38 0.25-2.79 0.36-1.4 0.11-2.81 0.08c-12.2 0-20.1-7.8-20.1-19.8 0-11.7 8-20.8 21.7-20.8q1.22-0.01 2.43 0.1 1.21 0.11 2.41 0.34 1.19 0.22 2.36 0.57 1.17 0.34 2.3 0.79l-1.8 7.4q-0.87-0.39-1.78-0.67-0.91-0.29-1.84-0.48-0.93-0.19-1.88-0.28-0.95-0.09-1.9-0.07c-7.5 0-12 5.5-11.9 12.6 0 8 5.2 12.6 11.9 12.6q1 0.01 2-0.08 0.99-0.09 1.98-0.28 0.98-0.19 1.94-0.47 0.95-0.29 1.88-0.67z"/>
		<path class="s1" d="m541.3 254.9v11.1h9.4v7.4h-9.4v17.2c0 4.7 1.3 7.2 5 7.2q0.48 0.02 0.96-0.01 0.48-0.02 0.96-0.08 0.48-0.06 0.95-0.17 0.47-0.1 0.93-0.24l0.2 7.5q-0.86 0.28-1.73 0.49-0.88 0.2-1.78 0.33-0.89 0.12-1.79 0.17-0.9 0.04-1.8 0.01-1.17 0.05-2.33-0.13-1.15-0.19-2.25-0.6-1.09-0.41-2.08-1.04-0.99-0.62-1.84-1.43c-2.1-2.2-3-5.8-3-10.9v-18.3h-5.6v-7.4h5.6v-8.8z"/>
		<path class="s1" d="m564.5 288.2c0.2 7 5.8 10.1 12 10.1q1.38 0.05 2.75-0.04 1.38-0.09 2.74-0.32 1.36-0.23 2.69-0.59 1.33-0.36 2.62-0.85l1.4 6.8q-1.62 0.62-3.3 1.09-1.67 0.47-3.38 0.77-1.72 0.3-3.45 0.44-1.73 0.13-3.47 0.1c-12.6 0-20.1-7.8-20.1-19.7 0-10.8 6.6-21 19-21 12.6 0 16.8 10.4 16.8 19q-0.01 0.53-0.03 1.05-0.02 0.53-0.06 1.05-0.03 0.53-0.09 1.05-0.05 0.53-0.12 1.05zm17.2-6.9c0.1-3.6-1.5-9.5-8.1-9.5-6.1 0-8.6 5.5-9 9.5z"/>
		<path class="s1" d="m634.8 248.1v45.9c0 4 0.2 8.3 0.3 11h-8.8l-0.4-6.2h-0.2c-2.3 4.3-7 7-12.7 7-9.3 0-16.6-7.9-16.6-19.9-0.1-13 8.1-20.8 17.4-20.8 5.4 0 9.2 2.2 11 5.1h0.2v-22.1zm-9.9 34.1q-0.01-0.33-0.02-0.65-0.02-0.33-0.04-0.65-0.03-0.33-0.06-0.65-0.04-0.33-0.08-0.65-0.3-1.47-1.07-2.76-0.78-1.29-1.94-2.25-1.16-0.96-2.57-1.47-1.42-0.51-2.92-0.52c-6.3 0-9.8 5.6-9.8 12.9 0 7.1 3.5 12.3 9.8 12.3q1.5-0.01 2.92-0.52 1.41-0.51 2.58-1.47 1.16-0.95 1.93-2.24 0.77-1.3 1.07-2.77 0.08-0.36 0.14-0.72 0.05-0.36 0.09-0.72 0.04-0.36 0.06-0.73 0.01-0.36 0.01-0.73z"/>
	</g>
</svg>