<svg version="1.2" xmlns="http://www.w3.org/2000/svg" viewBox="0 0 224 113" width="224" height="113">
	<style>
		.s0 { fill: #e6e6e6 } 
		.s1 { fill: #f0f0f0 } 
		.s2 { fill: #2f3573 } 
		.s3 { fill: #232856 } 
		.s4 { fill: #ffffff } 
	</style>
	<g>
		<g>
			<g>
				<path class="s0" d="m83.8 111.3c-10.63 0.02-20.22-6.37-24.29-16.18-4.08-9.81-1.84-21.12 5.68-28.63 7.51-7.52 18.82-9.76 28.63-5.68 9.81 4.07 16.2 13.66 16.18 24.29-0.02 3.44-0.71 6.84-2.03 10.01-1.32 3.17-3.25 6.05-5.68 8.48-2.43 2.43-5.31 4.36-8.48 5.68-3.17 1.32-6.57 2.01-10.01 2.03z"/>
				<path class="s1" d="m83.8 57.8c-11.02-0.02-20.97 6.6-25.21 16.78-4.23 10.17-1.92 21.9 5.86 29.7 7.78 7.81 19.49 10.16 29.68 5.96 10.19-4.19 16.85-14.12 16.87-25.14 0-3.58-0.7-7.12-2.07-10.42-1.37-3.31-3.37-6.31-5.89-8.85-2.53-2.53-5.52-4.54-8.82-5.92-3.31-1.38-6.84-2.1-10.42-2.11zm0 2c10.2 0.02 19.39 6.18 23.29 15.61 3.89 9.43 1.73 20.28-5.49 27.49-7.21 7.22-18.06 9.38-27.49 5.49-9.43-3.9-15.59-13.09-15.61-23.29 0-3.32 0.66-6.61 1.93-9.68 1.27-3.07 3.13-5.86 5.48-8.21 2.35-2.35 5.14-4.21 8.21-5.48 3.07-1.27 6.36-1.93 9.68-1.93z"/>
			</g>
			<path class="s2" d="m83.8 66.2c-7.64 0-14.54 4.6-17.46 11.67-2.93 7.06-1.31 15.19 4.1 20.59 5.4 5.41 13.53 7.03 20.59 4.1 7.07-2.92 11.67-9.82 11.67-17.46-0.01-2.48-0.5-4.93-1.45-7.22-0.95-2.3-2.35-4.38-4.1-6.13-1.75-1.75-3.83-3.15-6.13-4.1-2.29-0.95-4.74-1.44-7.22-1.45zm0 34.9c-6.47 0-12.31-3.9-14.78-9.88-2.48-5.98-1.11-12.86 3.47-17.43 4.57-4.58 11.45-5.95 17.43-3.47 5.98 2.47 9.88 8.31 9.88 14.78 0 2.1-0.41 4.18-1.22 6.12-0.8 1.94-1.98 3.71-3.47 5.19-1.48 1.49-3.25 2.67-5.19 3.47-1.94 0.81-4.02 1.22-6.12 1.22z"/>
		</g>
		<g>
			<g>
				<path class="s0" d="m27.2 111.3c-10.58-0.08-20.07-6.52-24.06-16.31-3.99-9.8-1.7-21.03 5.8-28.49 7.51-7.45 18.77-9.65 28.53-5.59 9.77 4.07 16.13 13.61 16.13 24.19 0 3.46-0.69 6.88-2.02 10.07-1.33 3.19-3.28 6.08-5.73 8.52-2.46 2.43-5.37 4.36-8.57 5.67-3.2 1.3-6.62 1.96-10.08 1.94z"/>
				<path class="s1" d="m27.3 57.8c-11.04 0-21 6.65-25.22 16.85-4.23 10.2-1.89 21.95 5.92 29.75 7.8 7.81 19.55 10.15 29.75 5.92 10.2-4.22 16.85-14.18 16.85-25.22-0.01-3.58-0.71-7.13-2.09-10.44-1.37-3.31-3.38-6.32-5.92-8.85-2.53-2.54-5.54-4.55-8.85-5.92-3.31-1.38-6.86-2.08-10.44-2.09zm0 2c10.2 0.02 19.39 6.18 23.29 15.61 3.89 9.43 1.73 20.28-5.49 27.49-7.21 7.22-18.06 9.38-27.49 5.49-9.43-3.9-15.59-13.09-15.61-23.29 0-3.32 0.66-6.61 1.93-9.68 1.27-3.07 3.13-5.86 5.48-8.21 2.35-2.35 5.14-4.21 8.21-5.48 3.07-1.27 6.36-1.93 9.68-1.93z"/>
			</g>
			<path fill-rule="evenodd" class="s2" d="m41.6 72.7l-2-2-12.3 12.4-12.4-12.4-2 2 12.3 12.4-12.3 12.3 2 2.1 12.4-12.4 12.3 12.4 2-2.1-12.3-12.3 12.3-12.4z"/>
		</g>
		<g>
			<g>
				<path class="s0" d="m140.3 111.3c-10.61-0.02-20.16-6.42-24.21-16.23-4.05-9.8-1.8-21.08 5.7-28.58 7.5-7.5 18.78-9.75 28.58-5.7 9.81 4.05 16.21 13.6 16.23 24.21 0.01 3.46-0.67 6.88-1.99 10.07-1.32 3.2-3.25 6.1-5.7 8.54-2.44 2.45-5.34 4.38-8.54 5.7-3.19 1.32-6.61 2-10.07 1.99z"/>
				<path class="s1" d="m140.3 57.8c-11.02 0.02-20.95 6.68-25.14 16.87-4.2 10.19-1.85 21.9 5.96 29.68 7.8 7.78 19.53 10.09 29.7 5.86 10.18-4.24 16.8-14.19 16.78-25.21-0.01-3.58-0.73-7.11-2.11-10.42-1.38-3.3-3.39-6.29-5.92-8.82-2.54-2.52-5.54-4.52-8.85-5.89-3.3-1.37-6.84-2.07-10.42-2.07zm0 2c10.2 0.02 19.39 6.18 23.29 15.61 3.89 9.43 1.73 20.28-5.49 27.49-7.21 7.22-18.06 9.38-27.49 5.49-9.43-3.9-15.59-13.09-15.61-23.29 0-3.32 0.66-6.61 1.93-9.68 1.27-3.07 3.13-5.86 5.48-8.21 2.35-2.35 5.14-4.21 8.21-5.48 3.07-1.27 6.36-1.93 9.68-1.93z"/>
			</g>
			<path class="s2" d="m151.8 70.7h-25.8v28.6h28.6v-28.6zm0 25.9h-23v-23h23z"/>
		</g>
		<g>
			<g>
				<path class="s0" d="m196.7 111.3c-10.62-0.02-20.18-6.43-24.22-16.25-4.05-9.82-1.78-21.1 5.74-28.6 7.53-7.49 18.82-9.71 28.62-5.63 9.8 4.08 16.18 13.66 16.16 24.28-0.02 3.44-0.71 6.85-2.04 10.03-1.33 3.18-3.27 6.06-5.71 8.49-2.44 2.43-5.33 4.36-8.51 5.68-3.19 1.32-6.6 2-10.04 2z"/>
				<path class="s1" d="m196.8 57.8c-11.02-0.02-20.97 6.6-25.21 16.78-4.23 10.17-1.92 21.9 5.86 29.7 7.78 7.81 19.49 10.16 29.68 5.96 10.19-4.19 16.85-14.12 16.87-25.14 0-3.58-0.7-7.12-2.07-10.42-1.37-3.31-3.37-6.31-5.89-8.85-2.53-2.53-5.52-4.54-8.82-5.92-3.31-1.38-6.84-2.1-10.42-2.11zm0 2c10.2 0.02 19.39 6.18 23.29 15.61 3.89 9.43 1.73 20.28-5.49 27.49-7.21 7.22-18.06 9.38-27.49 5.49-9.43-3.9-15.59-13.09-15.61-23.29 0-3.32 0.66-6.61 1.93-9.68 1.27-3.07 3.13-5.86 5.48-8.21 2.35-2.35 5.14-4.21 8.21-5.48 3.07-1.27 6.36-1.93 9.68-1.93z"/>
			</g>
			<path class="s2" d="m212.7 93.1l-16-27.6-16 27.6-1.6 2.8h35.2zm-15.9 0h-12.7l12.7-21.9 12.7 21.9z"/>
		</g>
	</g>
	<g>
		<g>
			<g>
				<path class="s2" d="m83.8 53.5c-10.62 0.02-20.2-6.36-24.28-16.16-4.08-9.8-1.86-21.09 5.63-28.62 7.5-7.52 18.78-9.79 28.6-5.74 9.82 4.04 16.23 13.6 16.25 24.22 0 3.44-0.68 6.85-2 10.04-1.32 3.18-3.25 6.07-5.68 8.51-2.43 2.44-5.31 4.38-8.49 5.71-3.18 1.33-6.59 2.02-10.03 2.04z"/>
				<path class="s3" d="m83.8 0c-11.05-0.04-21.04 6.59-25.29 16.78-4.26 10.2-1.95 21.96 5.85 29.79 7.8 7.83 19.55 10.18 29.76 5.96 10.22-4.22 16.88-14.18 16.88-25.23-0.01-3.58-0.71-7.11-2.08-10.42-1.37-3.3-3.37-6.3-5.89-8.84-2.53-2.53-5.52-4.54-8.82-5.92-3.3-1.38-6.83-2.1-10.41-2.12zm0 2c10.2 0.02 19.39 6.18 23.29 15.61 3.89 9.43 1.73 20.28-5.49 27.49-7.21 7.22-18.06 9.38-27.49 5.49-9.43-3.9-15.59-13.09-15.61-23.29-0.01-3.32 0.64-6.62 1.91-9.69 1.27-3.07 3.13-5.87 5.48-8.22 2.35-2.35 5.15-4.21 8.22-5.48 3.07-1.27 6.37-1.92 9.69-1.91z"/>
			</g>
			<path class="s4" d="m83.8 8.4c-7.64 0-14.54 4.6-17.46 11.67-2.93 7.06-1.31 15.19 4.1 20.59 5.4 5.41 13.53 7.03 20.59 4.1 7.07-2.92 11.67-9.82 11.67-17.46-0.01-2.48-0.5-4.93-1.45-7.22-0.95-2.3-2.35-4.38-4.1-6.13-1.75-1.75-3.83-3.15-6.13-4.1-2.29-0.95-4.74-1.44-7.22-1.45zm0 34.9c-6.47 0-12.31-3.9-14.78-9.88-2.48-5.98-1.11-12.86 3.47-17.43 4.57-4.58 11.45-5.95 17.43-3.47 5.98 2.47 9.88 8.31 9.88 14.78 0 2.1-0.41 4.18-1.22 6.12-0.8 1.94-1.98 3.71-3.47 5.19-1.48 1.49-3.25 2.67-5.19 3.47-1.94 0.81-4.02 1.22-6.12 1.22z"/>
		</g>
		<g>
			<g>
				<path class="s2" d="m27.2 53.5c-10.62-0.02-20.18-6.43-24.22-16.25-4.05-9.82-1.78-21.1 5.74-28.6 7.53-7.49 18.82-9.71 28.62-5.63 9.8 4.08 16.18 13.66 16.16 24.28-0.01 3.45-0.7 6.86-2.03 10.04-1.33 3.18-3.26 6.06-5.71 8.5-2.44 2.43-5.33 4.36-8.52 5.67-3.18 1.32-6.59 1.99-10.04 1.99z"/>
				<path class="s3" d="m27.3 0c-11.04 0-21 6.65-25.22 16.85-4.23 10.2-1.89 21.95 5.92 29.75 7.8 7.81 19.55 10.15 29.75 5.92 10.2-4.22 16.85-14.18 16.85-25.22 0-3.59-0.7-7.14-2.07-10.45-1.37-3.32-3.38-6.33-5.92-8.86-2.53-2.54-5.54-4.55-8.86-5.92-3.31-1.37-6.86-2.07-10.45-2.07zm0 2c10.2 0.02 19.39 6.18 23.29 15.61 3.89 9.43 1.73 20.28-5.49 27.49-7.21 7.22-18.06 9.38-27.49 5.49-9.43-3.9-15.59-13.09-15.61-23.29 0-3.32 0.66-6.61 1.93-9.68 1.28-3.07 3.14-5.85 5.49-8.2 2.35-2.35 5.13-4.21 8.2-5.49 3.07-1.27 6.36-1.93 9.68-1.93z"/>
			</g>
			<path fill-rule="evenodd" class="s4" d="m41.6 14.9l-2-2-12.3 12.3-12.4-12.3-2 2 12.3 12.3-12.3 12.4 2 2 12.4-12.3 12.3 12.3 2-2-12.3-12.4 12.3-12.3z"/>
		</g>
		<g>
			<g>
				<path class="s2" d="m140.3 54.2c-10.62-0.02-20.18-6.43-24.22-16.25-4.05-9.82-1.78-21.1 5.74-28.6 7.53-7.49 18.82-9.71 28.62-5.63 9.8 4.08 16.18 13.66 16.16 24.28 0 3.45-0.69 6.86-2.01 10.04-1.33 3.19-3.27 6.08-5.71 8.51-2.44 2.44-5.34 4.36-8.53 5.68-3.19 1.31-6.6 1.98-10.05 1.97z"/>
				<path class="s3" d="m140.3 0.7c-11.01 0.02-20.93 6.67-25.14 16.84-4.2 10.18-1.87 21.89 5.92 29.68 7.79 7.79 19.5 10.12 29.68 5.92 10.17-4.21 16.82-14.13 16.84-25.14-0.01-3.58-0.71-7.13-2.09-10.44-1.37-3.31-3.38-6.32-5.92-8.85-2.53-2.54-5.54-4.55-8.85-5.92-3.31-1.38-6.86-2.08-10.44-2.09zm0 2c10.21 0.02 19.41 6.19 23.3 15.63 3.89 9.45 1.7 20.3-5.53 27.51-7.24 7.21-18.1 9.35-27.53 5.42-9.43-3.93-15.56-13.15-15.54-23.36 0.02-3.31 0.68-6.59 1.96-9.65 1.28-3.05 3.15-5.83 5.49-8.17 2.35-2.33 5.13-4.19 8.2-5.46 3.06-1.26 6.34-1.92 9.65-1.92z"/>
			</g>
			<path class="s4" d="m151.8 13.5h-25.8v28.6h28.6v-28.6zm0 25.9h-23v-23h23z"/>
		</g>
		<g>
			<g>
				<path class="s2" d="m196.7 54.8c-10.65 0-20.24-6.42-24.31-16.26-4.06-9.84-1.79-21.16 5.75-28.67 7.54-7.52 18.87-9.74 28.69-5.64 9.83 4.1 16.21 13.72 16.17 24.37-0.02 3.44-0.71 6.85-2.04 10.03-1.33 3.18-3.27 6.06-5.71 8.49-2.44 2.43-5.33 4.36-8.51 5.68-3.19 1.32-6.6 2-10.04 2z"/>
				<path class="s3" d="m196.8 3.3c10.23 0 19.46 6.16 23.37 15.62 3.92 9.45 1.76 20.33-5.48 27.57-7.24 7.24-18.12 9.4-27.57 5.48-9.46-3.91-15.62-13.14-15.62-23.37 0-3.32 0.66-6.61 1.93-9.68 1.28-3.07 3.14-5.85 5.49-8.2 2.35-2.35 5.13-4.21 8.2-5.49 3.07-1.27 6.36-1.93 9.68-1.93zm0-2c-11.05-0.04-21.04 6.59-25.29 16.78-4.26 10.2-1.95 21.96 5.85 29.79 7.8 7.83 19.55 10.18 29.76 5.96 10.22-4.22 16.88-14.18 16.88-25.23-0.01-3.58-0.71-7.11-2.08-10.42-1.37-3.3-3.37-6.3-5.89-8.84-2.53-2.53-5.52-4.54-8.82-5.92-3.3-1.38-6.83-2.1-10.41-2.12z"/>
			</g>
			<path class="s4" d="m212.7 36.6l-16-27.6-16 27.6-1.6 2.8h35.2zm-15.9 0h-12.7l12.7-21.9 12.7 21.9z"/>
		</g>
	</g>
</svg>