<svg version="1.2" xmlns="http://www.w3.org/2000/svg" viewBox="0 0 43 43" width="43" height="43">
	<style>
		.s0 { fill: #fafafa } 
		.s1 { fill: #ffffff } 
		.s2 { fill: #2f3573 } 
	</style>
	<g>
		<g>
			<path fill-rule="evenodd" class="s0" d="m21.2 41.4c-11.17 0-20.2-9.03-20.2-20.2 0-11.17 9.03-20.2 20.2-20.2 11.17 0 20.2 9.03 20.2 20.2 0 11.17-9.03 20.2-20.2 20.2z"/>
			<path class="s1" d="m21.2 42.4c-8.57 0-16.3-5.17-19.59-13.09-3.28-7.92-1.46-17.04 4.6-23.1 6.06-6.06 15.18-7.88 23.1-4.6 7.92 3.29 13.09 11.02 13.09 19.59 0 2.78-0.55 5.54-1.62 8.11-1.06 2.57-2.62 4.91-4.59 6.88-1.97 1.97-4.31 3.53-6.88 4.59-2.57 1.07-5.33 1.62-8.11 1.62zm0-40.4c-7.77 0-14.77 4.68-17.74 11.85-2.97 7.18-1.33 15.44 4.16 20.93 5.49 5.49 13.75 7.13 20.93 4.16 7.17-2.97 11.85-9.97 11.85-17.74 0-2.52-0.5-5.02-1.46-7.35-0.97-2.33-2.38-4.44-4.16-6.23-1.79-1.78-3.9-3.19-6.23-4.16-2.33-0.96-4.83-1.46-7.35-1.46z"/>
		</g>
		<g>
			<path class="s2" d="m22.3 27.8v-12.8q-0.01-0.13 0-0.27 0.01-0.13 0.05-0.26 0.04-0.13 0.1-0.25 0.06-0.12 0.15-0.22 0.06-0.08 0.14-0.14 0.08-0.06 0.17-0.09 0.1-0.02 0.2-0.02 0.1 0.01 0.19 0.05c0.6 0.2 0.9 0.7 0.9 1.7v6.9q0.24 0.12 0.5 0.22 0.25 0.09 0.52 0.16 0.27 0.06 0.54 0.09 0.27 0.03 0.54 0.03 0.21 0 0.42-0.03 0.22-0.03 0.42-0.1 0.2-0.06 0.39-0.15 0.2-0.1 0.37-0.22c1-0.7 1.5-1.9 1.5-3.7q0.04-0.57-0.01-1.14-0.06-0.57-0.21-1.12-0.15-0.55-0.4-1.06-0.25-0.52-0.58-0.98-0.41-0.46-0.88-0.86-0.47-0.4-0.99-0.73-0.52-0.33-1.08-0.58-0.56-0.26-1.15-0.43c-1.3-0.4-2.5-0.8-3.6-1.1-1.1-0.3-2-0.5-2.9-0.7v12.2 2.7 1.7 2.5 1.5l4.7 1.5v-3.6z"/>
			<path class="s2" d="m17.3 26.8l-1.7 0.6-0.9 0.4-1.6 0.3-1.5-0.2c-0.3-0.2-0.4-0.4-0.2-0.6 0.2-0.2 0.2-0.1 0.3-0.2 0.1-0.1 0.3-0.1 0.4-0.2l1.1-0.4 4.1-1.5v-2.7l-1.7 0.5-5.5 2-1 0.4c-1.5 0.6-2.2 1.2-2.2 1.8 0.1 0.8 1 1.5 2.7 1.9q0.53 0.14 1.06 0.24 0.53 0.1 1.07 0.16 0.54 0.07 1.08 0.09 0.55 0.02 1.09 0.01 0.41 0 0.83-0.02 0.41-0.02 0.83-0.06 0.41-0.04 0.82-0.09 0.41-0.06 0.82-0.13v-2.3z"/>
			<path class="s2" d="m33.1 24.5q-0.3-0.11-0.61-0.2-0.31-0.09-0.62-0.16-0.32-0.08-0.63-0.14-0.32-0.06-0.64-0.1-0.31-0.05-0.62-0.08-0.31-0.03-0.63-0.04-0.31-0.02-0.62-0.01-0.32 0.01-0.63 0.03-0.35 0.02-0.7 0.05-0.35 0.03-0.7 0.06-0.35 0.04-0.7 0.09-0.35 0.04-0.7 0.1-0.33 0.07-0.66 0.16-0.33 0.08-0.66 0.18-0.32 0.1-0.64 0.22-0.32 0.11-0.64 0.24v2.8l3.9-1.4 1.6-0.5 1.1-0.3h1.4c0.3 0.1 0.6 0.2 0.7 0.4 0.1 0.2-0.2 0.4-0.8 0.6l-1.4 0.5-6.5 2.4v2.7l3.5-1.3 6.4-2.3 0.7-0.4c1.5-0.5 2.2-1.2 2.2-1.9 0-0.7-0.8-1.2-2.4-1.7z"/>
		</g>
	</g>
</svg>