<svg version="1.2" xmlns="http://www.w3.org/2000/svg" viewBox="0 0 29 47" width="29" height="47">
	<style>
		.s0 { fill: #ffffff } 
		.s1 { fill: #efeee5 } 
	</style>
	<g>
		<path class="s0" d="m14.2 0c-1.86 0.01-3.71 0.38-5.43 1.09-1.72 0.72-3.28 1.77-4.6 3.08-1.31 1.32-2.36 2.88-3.08 4.6-0.71 1.72-1.08 3.57-1.09 5.43v18.3c0 3.77 1.5 7.38 4.16 10.04 2.66 2.66 6.27 4.16 10.04 4.16 3.77 0 7.38-1.5 10.04-4.16 2.66-2.66 4.16-6.27 4.16-10.04v-18.3c-0.01-1.86-0.38-3.71-1.09-5.43-0.72-1.72-1.77-3.28-3.08-4.6-1.32-1.31-2.88-2.36-4.6-3.08-1.72-0.71-3.57-1.08-5.43-1.09zm0 1.7c1.64 0 3.27 0.32 4.78 0.95 1.52 0.63 2.9 1.55 4.06 2.71 1.16 1.16 2.08 2.54 2.71 4.06 0.63 1.51 0.95 3.14 0.95 4.78v18.3c0 3.32-1.32 6.49-3.66 8.84-2.35 2.34-5.52 3.66-8.84 3.66-3.32 0-6.49-1.32-8.84-3.66-2.34-2.35-3.66-5.52-3.66-8.84v-18.3c0-1.64 0.32-3.27 0.95-4.78 0.63-1.52 1.55-2.9 2.71-4.06 1.16-1.16 2.54-2.08 4.06-2.71 1.51-0.63 3.14-0.95 4.78-0.95z"/>
		<path class="s1" d="m14.2 1.7c-1.64 0-3.27 0.32-4.78 0.95-1.52 0.63-2.9 1.55-4.06 2.71-1.16 1.16-2.08 2.54-2.71 4.06-0.63 1.51-0.95 3.14-0.95 4.78v18.3c0 3.32 1.32 6.49 3.66 8.84 2.35 2.34 5.52 3.66 8.84 3.66 3.32 0 6.49-1.32 8.84-3.66 2.34-2.35 3.66-5.52 3.66-8.84v-18.3c0-1.64-0.32-3.27-0.95-4.78-0.63-1.52-1.55-2.9-2.71-4.06-1.16-1.16-2.54-2.08-4.06-2.71-1.51-0.63-3.14-0.95-4.78-0.95z"/>
	</g>
</svg>