<svg version="1.2" xmlns="http://www.w3.org/2000/svg" viewBox="0 0 286 94" width="286" height="94">
	<style>
		.s0 { fill: #232856 } 
		.s1 { fill: #1c2045 } 
		.s2 { fill: #2f3573 } 
		.s3 { fill: #f0f0f0 } 
		.s4 { fill: #ededed } 
		.s5 { fill: #ebebeb } 
		.s6 { fill: #000000 } 
	</style>
	<g>
		<g>
			<path class="s0" d="m47 92.5c-18.4 0-34.99-11.09-42.04-28.09-7.04-17-3.15-36.57 9.87-49.58 13.01-13.02 32.58-16.91 49.58-9.87 17 7.05 28.09 23.64 28.09 42.04-0.01 5.97-1.19 11.89-3.47 17.41-2.29 5.51-5.64 10.53-9.87 14.75-4.22 4.23-9.24 7.58-14.75 9.87-5.52 2.28-11.44 3.46-17.41 3.47z"/>
			<path class="s1" d="m47 3c17.8 0 33.84 10.72 40.65 27.16 6.81 16.44 3.05 35.37-9.54 47.95-12.58 12.59-31.51 16.35-47.95 9.54-16.44-6.81-27.16-22.85-27.16-40.65 0-5.78 1.14-11.5 3.35-16.84 2.21-5.34 5.45-10.19 9.54-14.27 4.08-4.09 8.93-7.33 14.27-9.54 5.34-2.21 11.06-3.35 16.84-3.35zm0-3c-19.01 0-36.15 11.45-43.42 29.01-7.28 17.57-3.26 37.78 10.19 51.22 13.44 13.45 33.65 17.47 51.22 10.19 17.56-7.27 29.01-24.41 29.01-43.42 0.01-6.17-1.2-12.29-3.56-17.99-2.36-5.71-5.83-10.89-10.19-15.26-4.37-4.36-9.55-7.83-15.26-10.19-5.7-2.36-11.82-3.57-17.99-3.56z"/>
		</g>
		<path fill-rule="evenodd" class="s2" d="m47 74.3c-15.1 0-27.3-12.2-27.3-27.3 0-15.1 12.2-27.3 27.3-27.3 15.1 0 27.3 12.2 27.3 27.3 0 15.1-12.2 27.3-27.3 27.3z"/>
	</g>
	<g>
		<g>
			<path class="s3" d="m239 92.5c-18.4 0-34.99-11.09-42.04-28.09-7.04-17-3.15-36.57 9.87-49.58 13.01-13.02 32.58-16.91 49.58-9.87 17 7.05 28.09 23.64 28.09 42.04-0.01 5.97-1.19 11.89-3.47 17.41-2.29 5.51-5.64 10.53-9.87 14.75-4.22 4.23-9.24 7.58-14.75 9.87-5.52 2.28-11.44 3.46-17.41 3.47z"/>
			<path class="s4" d="m239 3c17.8 0 33.84 10.72 40.65 27.16 6.81 16.44 3.05 35.37-9.54 47.95-12.58 12.59-31.51 16.35-47.95 9.54-16.44-6.81-27.16-22.85-27.16-40.65 0-5.78 1.14-11.5 3.35-16.84 2.21-5.34 5.45-10.19 9.54-14.27 4.08-4.09 8.93-7.33 14.27-9.54 5.34-2.21 11.06-3.35 16.84-3.35zm0-3c-19.01 0-36.15 11.45-43.42 29.01-7.28 17.57-3.26 37.78 10.19 51.22 13.44 13.45 33.65 17.47 51.22 10.19 17.56-7.27 29.01-24.41 29.01-43.42 0.01-6.17-1.2-12.29-3.56-17.99-2.36-5.71-5.83-10.89-10.19-15.26-4.37-4.36-9.55-7.83-15.26-10.19-5.7-2.36-11.82-3.57-17.99-3.56z"/>
		</g>
		<path fill-rule="evenodd" class="s5" d="m239 74.3c-15.1 0-27.3-12.2-27.3-27.3 0-15.1 12.2-27.3 27.3-27.3 15.1 0 27.3 12.2 27.3 27.3 0 15.1-12.2 27.3-27.3 27.3z"/>
		<g>
			<path class="s6" d="m218.7 33.5h12.6c5.8 0 8.7 2.7 8.7 7.1 0 5.1-3.5 6.4-4.4 6.7v0.1c1.6 0.2 3.9 1.4 3.9 5.6 0 3.1 0.4 5.9 1.4 7h-5q-0.22-0.45-0.37-0.93-0.16-0.48-0.25-0.97-0.09-0.5-0.11-1-0.02-0.5 0.03-1c0-4.8-1-7-5.3-7h-6.8v10.9h-4.6v-26.5zm4.6 12.1h7.6q4.5 0 4.5-4.2c0-3.4-2.2-4-4.6-4h-7.5z"/>
			<path class="s6" d="m250.3 44.8c2.8 0.1 5.7-0.9 5.7-4.1q0-0.78-0.31-1.49-0.31-0.71-0.88-1.23-0.57-0.53-1.3-0.79-0.74-0.25-1.51-0.19c-2.9 0-4.4 2.6-4.3 5.3h-4.2c0.2-5 3.4-8.8 8.6-8.8 4 0 8.2 2.3 8.2 6.9 0 2.6-1.1 4.7-3.7 5.5v0.1c3 0.6 4.7 3.1 4.7 6.5 0 4.9-4.3 7.9-9.2 7.9-6 0-9-3.6-9.1-9h4.2c-0.1 3.1 1.6 5.5 4.9 5.5 2.8 0 5-1.7 5-4.6 0-4-3.4-4.5-6.8-4.4z"/>
		</g>
	</g>
	<g>
		<g>
			<path class="s3" d="m143 92.5c-18.4 0-34.99-11.09-42.04-28.09-7.04-17-3.15-36.57 9.87-49.58 13.01-13.02 32.58-16.91 49.58-9.87 17 7.05 28.09 23.64 28.09 42.04-0.01 5.97-1.19 11.89-3.47 17.41-2.29 5.51-5.64 10.53-9.87 14.75-4.22 4.23-9.24 7.58-14.75 9.87-5.52 2.28-11.44 3.46-17.41 3.47z"/>
			<path class="s4" d="m143 3c17.8 0 33.84 10.72 40.65 27.16 6.81 16.44 3.05 35.37-9.54 47.95-12.58 12.59-31.51 16.35-47.95 9.54-16.44-6.81-27.16-22.85-27.16-40.65 0-5.78 1.14-11.5 3.35-16.84 2.21-5.34 5.45-10.19 9.54-14.27 4.08-4.09 8.93-7.33 14.27-9.54 5.34-2.21 11.06-3.35 16.84-3.35zm0-3c-19.01 0-36.15 11.45-43.42 29.01-7.28 17.57-3.26 37.78 10.19 51.22 13.44 13.45 33.65 17.47 51.22 10.19 17.56-7.27 29.01-24.41 29.01-43.42 0.01-6.17-1.2-12.29-3.56-17.99-2.36-5.71-5.83-10.89-10.19-15.26-4.37-4.36-9.55-7.83-15.26-10.19-5.7-2.36-11.82-3.57-17.99-3.56z"/>
		</g>
		<path fill-rule="evenodd" class="s5" d="m143 74.3c-15.1 0-27.3-12.2-27.3-27.3 0-15.1 12.2-27.3 27.3-27.3 15.1 0 27.3 12.2 27.3 27.3 0 15.1-12.2 27.3-27.3 27.3z"/>
		<g>
			<path class="s6" d="m125.1 33.5h4.6v22.4h13.4v4h-18z"/>
			<path class="s6" d="m151.9 44.8c2.8 0.1 5.7-0.9 5.7-4.1q0-0.78-0.31-1.49-0.31-0.71-0.88-1.23-0.57-0.53-1.3-0.79-0.74-0.25-1.51-0.19c-2.9 0-4.4 2.6-4.3 5.3h-4.2c0.2-5 3.4-8.8 8.6-8.8 4 0 8.2 2.3 8.2 6.9 0 2.6-1.1 4.7-3.7 5.5v0.1c3 0.6 4.7 3.1 4.7 6.5 0 4.9-4.3 7.9-9.2 7.9-6 0-9-3.6-9.1-9h4.2c-0.1 3.1 1.6 5.5 4.9 5.5 2.8 0 5-1.7 5-4.6 0-4-3.4-4.5-6.8-4.4z"/>
		</g>
	</g>
</svg>